<svg xmlns="http://www.w3.org/2000/svg" xmlns:xlink="http://www.w3.org/1999/xlink" version="1.1" width="595.5" height="842.25" viewBox="0 0 595.5 842.25">
<defs>
<clipPath id="clip_26">
<path transform="matrix(.24,0,0,.24,0,0)" d="M0 0H2481.25V3509.375H0Z" fill-rule="evenodd"/>
</clipPath>
<clipPath id="clip_27">
<path transform="matrix(.24,0,0,.24,0,0)" d="M0 0H2481.25V3509.375H0Z" fill-rule="evenodd"/>
</clipPath>
<clipPath id="clip_28">
<path transform="matrix(.24,0,0,.24,0,0)" d="M0 0H2481.25V3509.375H0Z" fill-rule="evenodd"/>
</clipPath>
<clipPath id="clip_29">
<path transform="matrix(.24,0,0,.24,530.16,0)" d="M0 0H273V223H0Z" fill-rule="evenodd"/>
</clipPath>
<clipPath id="clip_30">
<path transform="matrix(.24,0,0,.24,530.16,0)" d="M53.469728 222.03754 .60178759-70.09213 360.38255-135.20319 413.2505 156.9265 53.469728 222.03754Z"/>
</clipPath>
<clipPath id="clip_31">
<path transform="matrix(.24,0,0,.24,530.16,0)" d="M53.469728 222.03754 .60178759-70.09213 252.75583-115.725528 305.62379 176.40416 53.469728 222.03754Z"/>
</clipPath>
<clipPath id="clip_32">
<path transform="matrix(.24,0,0,.24,530.16,0)" d="M53.469728 222.03754 .60178378-70.09219 360.38255-135.20325 413.2505 156.9265 53.469728 222.03754Z"/>
</clipPath>
<clipPath id="clip_33">
<path transform="matrix(.24,0,0,.24,0,788.88)" d="M0 0H269V223H0Z"/>
</clipPath>
<clipPath id="clip_34">
<path transform="matrix(.24,0,0,.24,0,788.88)" d="M-90.10719 358.81007-142.97513 66.68039 216.80562 1.5693359 269.67359 293.69905-90.10719 358.81007Z"/>
</clipPath>
<clipPath id="clip_35">
<path transform="matrix(.24,0,0,.24,0,788.88)" d="M215.54445 .35864259 268.41239 292.4883-91.36836 357.59938-144.23632 65.46968 215.54445 .35864259Z"/>
</clipPath>
<clipPath id="clip_36">
<path transform="matrix(.24,0,0,.24,0,788.88)" d="M215.54445 .35864259 268.41239 292.4883-91.36836 357.59938-144.23632 65.46968 215.54445 .35864259Z"/>
</clipPath>
<clipPath id="clip_37">
<path transform="matrix(.24,0,0,.24,529.2,782.16)" d="M0 0H276V249H0Z"/>
</clipPath>
<clipPath id="clip_38">
<path transform="matrix(.24,0,0,.24,529.2,782.16)" d="M.6723633 .84277346H275.28175V247.71778H.6723633Z" fill-rule="evenodd"/>
</clipPath>
<clipPath id="clip_39">
<path transform="matrix(.24,0,0,.24,0,0)" d="M0 0H275V247H0Z" fill-rule="evenodd"/>
</clipPath>
<clipPath id="clip_40">
<path transform="matrix(.24,0,0,.24,0,0)" d="M0-.20454407H275V245.6939H0Z" fill-rule="evenodd"/>
</clipPath>
</defs>
<g>
<g clip-path="url(#clip_26)">
<path transform="matrix(.75,0,0,.75,0,0)" d="M0 0H794V1123H0Z" fill="#ffffff"/>
</g>
<g clip-path="url(#clip_27)">
<path transform="matrix(.75,0,0,.75,0,0)" d="M0 0H794V1123H0Z" fill="#ffffff"/>
</g>
<g clip-path="url(#clip_28)">
<g opacity=".05">
<g clip-path="url(#clip_29)">
<g clip-path="url(#clip_30)">
<g clip-path="url(#clip_31)">
<g clip-path="url(#clip_32)">
<path transform="matrix(-.030826582,-.17033687,.17163065,-.031060724,542.9927,53.288774)" d="M.61687 318.73908H0V308.48878H.61687C26.41031 308.48878 51.666463 301.3616 73.655078 287.8783 95.64343 274.39476 113.44835 255.11635 125.14461 232.12747L201.54445 81.9637C214.09908 57.28813 233.2103 36.595319 256.812 22.122769 280.41377 7.64994 307.52253 0 335.20838 0H411.55967V10.25031H335.20838C309.41496 10.25031 284.15855 17.37723 262.1704 30.86079 240.1818 44.34435 222.37689 63.62274 210.68064 86.61186L134.2803 236.77564C121.72592 261.4512 102.61495 282.14378 79.01323 296.6163 55.41174 311.08937 28.30273 318.73905 .61688998 318.73905L.61687 318.73908Z" fill="#1e1a1b"/>
<path transform="matrix(-.030826582,-.17033687,.17163065,-.031060724,542.9927,53.288774)" d="M76.96816 503.06846H0V492.81816H76.96816C102.761608 492.81816 128.01776 485.69099 150.0061 472.20744 171.99472 458.72389 189.79962 439.44548 201.49588 416.45637L277.8952 266.2931C290.44984 241.61753 309.56108 220.92472 333.16279 206.4519 356.76454 191.9791 383.8733 184.32917 411.5591 184.32917L411.5596 194.57947C385.76567 194.57947 360.50978 201.70639 338.52116 215.18994 316.53254 228.67351 298.72764 247.95215 287.03138 270.94126L210.63204 421.104C198.07741 445.77983 178.96619 466.47264 155.36446 480.94569 131.76297 495.41825 104.6537 503.06843 76.96812 503.06843L76.96816 503.06846Z" fill="#1e1a1b"/>
<path transform="matrix(-.030826582,-.17033687,.17163065,-.031060724,542.9927,53.288774)" d="M9.1004 339.22016H0V328.96986H9.1004C34.89359 328.96986 60.14974 321.84269 82.13835 308.35914 104.12696 294.87559 121.931629 275.59718 133.62813 252.6083L210.02797 102.444538C222.5826 77.76897 241.69382 57.076406 265.29554 42.603605 288.89729 28.131043 316.00605 20.481104 343.69187 20.481104H411.55964V30.731415H343.69187C317.89845 30.731415 292.64253 37.858335 270.65394 51.341897 248.66532 64.825458 230.86042 84.10385 219.16416 107.09271L142.76383 257.25648C130.20944 281.93205 111.09847 302.62486 87.49675 317.0974 63.89501 331.57048 36.786 339.22016 9.10041 339.22016H9.1004Z" fill="#1e1a1b"/>
<path transform="matrix(-.030826582,-.17033687,.17163065,-.031060724,542.9927,53.288774)" d="M68.48463 482.58735H0V472.33705H68.48463C94.27807 472.33705 119.53422 465.20988 141.52259 451.72633 163.5112 438.24278 181.3161 418.96437 193.01236 395.97526L269.4122 245.81198C281.96684 221.13642 301.07756 200.4436 324.6793 185.9708 348.28105 171.49799 375.3898 163.84806 403.07563 163.84806H411.55967V174.09836H403.07563C377.2822 174.09836 352.02629 181.22528 330.03767 194.70883 308.04905 208.19239 290.24464 227.47104 278.54838 250.46015L202.14853 400.6234C189.5939 425.29924 170.48268 445.99205 146.88095 460.4646 123.279468 474.93766 96.1702 482.58735 68.48461 482.58735H68.48463Z" fill="#1e1a1b"/>
<path transform="matrix(-.030826582,-.17033687,.17163065,-.031060724,542.9927,53.288774)" d="M17.58368 359.70127H0V349.45097H17.58368C43.37712 349.45097 68.63327 342.3238 90.62163 328.84025 112.61024 315.3567 130.4149 296.07829 142.11116 273.08943L218.5115 122.925647C231.06613 98.25008 250.17736 77.55727 273.77909 63.084714 297.38084 48.611906 324.4896 40.961965 352.1754 40.961965H411.55964V51.212274H352.1754C326.382 51.212274 301.12559 58.33919 279.13746 71.822757 257.14884 85.30631 239.34394 104.5847 227.64768 127.57382L151.24735 277.7376C138.69272 302.41319 119.58174 323.106 95.98001 337.57856 72.37827 352.0516 45.26926 359.7013 17.583672 359.7013L17.58368 359.70127Z" fill="#1e1a1b"/>
<path transform="matrix(-.030826582,-.17033687,.17163065,-.031060724,542.9927,53.288774)" d="M60.00109 462.10624H0V451.85594H60.00109C85.79453 451.85594 111.05068 444.72877 133.03903 431.2452 155.02765 417.76167 172.83255 398.48326 184.52881 375.49415L260.92866 225.33087C273.48329 200.6553 292.594 179.9625 316.19575 165.48969 339.7975 151.01688 366.90675 143.36695 394.5926 143.36695H411.55967V153.61725H394.5926C368.79917 153.61725 343.54277 160.74442 321.55415 174.22798 299.56553 187.71155 281.7611 206.98993 270.06486 229.97905L193.66501 380.14234C181.11038 404.81816 161.99916 425.51097 138.39768 439.98353 114.79594 454.45658 87.686679 462.10627 60.001085 462.10627L60.00109 462.10624Z" fill="#1e1a1b"/>
<path transform="matrix(-.030826582,-.17033687,.17163065,-.031060724,542.9927,53.288774)" d="M26.06722 380.18235H0V369.93205H26.06722C51.86066 369.93205 77.11681 362.80488 99.10543 349.32133 121.09379 335.83778 138.89846 316.55937 150.59471 293.57075L226.99506 143.40673C239.54969 118.731159 258.6604 98.038349 282.26216 83.565799 305.8639 69.09299 332.97267 61.443048 360.65849 61.443048H411.55967V71.69336H360.65849C334.86506 71.69336 309.60865 78.82028 287.62055 92.30384 265.63194 105.7874 247.82703 125.065799 236.13126 148.0549L159.73093 298.21894C147.1763 322.89427 128.06558 343.58708 104.46385 358.0596 80.862117 372.53266 53.7531 380.18235 26.06726 380.18235H26.06722Z" fill="#1e1a1b"/>
<path transform="matrix(-.030826582,-.17033687,.17163065,-.031060724,542.9927,53.288774)" d="M51.51756 441.62516H0V431.37486H51.51756C77.311 431.37486 102.567157 424.24769 124.55577 410.76414 146.54413 397.28059 164.34905 378.00218 176.0453 355.01307L252.44515 204.8498C264.9998 180.17423 284.111 159.48142 307.7127 145.00887 331.31446 130.53606 358.42323 122.886119 386.10905 122.886119H411.55964V133.13643H386.10905C360.3156 133.13643 335.0597 140.26335 313.0711 153.7469 291.0825 167.23047 273.2776 186.50885 261.58134 209.49797L185.18149 359.66127C172.62686 384.33708 153.51564 405.02989 129.91391 419.50245 106.31242 433.9755 79.203159 441.62519 51.51757 441.62519L51.51756 441.62516Z" fill="#1e1a1b"/>
<path transform="matrix(-.030826582,-.17033687,.17163065,-.031060724,542.9927,53.288774)" d="M34.55075 400.66297H0V390.41267H34.55075C60.344194 390.41267 85.600589 383.2855 107.58896 369.80244 129.57758 356.31889 147.38198 337.04048 159.07825 314.05137L235.47809 163.88785C248.03272 139.21228 267.14396 118.51947 290.74568 104.04667 314.3474 89.57386 341.45619 81.92392 369.142 81.92392H411.55967V92.17423H369.142C343.34858 92.17423 318.09266 99.3014 296.10408 112.78496 274.11549 126.26852 256.31056 145.5469 244.61429 168.53603L168.21445 318.69905C155.66033 343.37486 136.5491 364.06767 112.94737 378.54023 89.345638 393.01329 62.23662 400.66297 34.55078 400.66297H34.55075Z" fill="#1e1a1b"/>
<path transform="matrix(-.030826582,-.17033687,.17163065,-.031060724,542.9927,53.288774)" d="M43.03428 421.14405H0V410.89375H43.03428C68.82772 410.89375 94.08387 403.76658 116.07249 390.28303 138.0611 376.79948 155.86602 357.52107 167.56177 334.53245L243.96161 184.36893C256.51625 159.69336 275.62748 139.00055 299.2292 124.528 322.83094 110.05519 349.9397 102.40525 377.62553 102.40525H411.55967V112.65556H377.62553C351.8321 112.65556 326.57618 119.782489 304.5876 133.26604 282.59898 146.7496 264.79408 166.02799 253.09781 189.0171L176.69797 339.1801C164.14334 363.85594 145.03263 384.54875 121.43089 399.0213 97.829158 413.49436 70.72014 421.14405 43.0343 421.14405H43.03428Z" fill="#1e1a1b"/>
</g>
</g>
</g>
</g>
</g>
<g opacity=".05">
<g clip-path="url(#clip_33)">
<g clip-path="url(#clip_34)">
<g clip-path="url(#clip_35)">
<g clip-path="url(#clip_36)">
<path transform="matrix(.030826578,.17033684,-.17163065,.031060724,51.73071,788.9663)" d="M.61687 318.73908H0V308.48878H.61687C26.41031 308.48878 51.666463 301.3616 73.655078 287.8783 95.64343 274.39476 113.44835 255.11635 125.14461 232.12747L201.54445 81.9637C214.09908 57.28813 233.2103 36.595319 256.812 22.122769 280.41377 7.64994 307.52253 0 335.20838 0H411.55967V10.25031H335.20838C309.41496 10.25031 284.15855 17.37723 262.1704 30.86079 240.1818 44.34435 222.37689 63.62274 210.68064 86.61186L134.2803 236.77564C121.72592 261.4512 102.61495 282.14378 79.01323 296.6163 55.41174 311.08937 28.30273 318.73905 .61688998 318.73905L.61687 318.73908Z" fill="#1e1a1b"/>
<path transform="matrix(.030826578,.17033684,-.17163065,.031060724,51.73071,788.9663)" d="M76.96816 503.06846H0V492.81816H76.96816C102.761608 492.81816 128.01776 485.69099 150.0061 472.20744 171.99472 458.72389 189.79962 439.44548 201.49588 416.45637L277.8952 266.2931C290.44984 241.61753 309.56108 220.92472 333.16279 206.4519 356.76454 191.9791 383.8733 184.32917 411.5591 184.32917L411.5596 194.57947C385.76567 194.57947 360.50978 201.70639 338.52116 215.18994 316.53254 228.67351 298.72764 247.95215 287.03138 270.94126L210.63204 421.104C198.07741 445.77983 178.96619 466.47264 155.36446 480.94569 131.76297 495.41825 104.6537 503.06843 76.96812 503.06843L76.96816 503.06846Z" fill="#1e1a1b"/>
<path transform="matrix(.030826578,.17033684,-.17163065,.031060724,51.73071,788.9663)" d="M9.1004 339.22016H0V328.96986H9.1004C34.89359 328.96986 60.14974 321.84269 82.13835 308.35914 104.12696 294.87559 121.931629 275.59718 133.62813 252.6083L210.02797 102.444538C222.5826 77.76897 241.69382 57.076406 265.29554 42.603605 288.89729 28.131043 316.00605 20.481104 343.69187 20.481104H411.55964V30.731415H343.69187C317.89845 30.731415 292.64253 37.858335 270.65394 51.341897 248.66532 64.825458 230.86042 84.10385 219.16416 107.09271L142.76383 257.25648C130.20944 281.93205 111.09847 302.62486 87.49675 317.0974 63.89501 331.57048 36.786 339.22016 9.10041 339.22016H9.1004Z" fill="#1e1a1b"/>
<path transform="matrix(.030826578,.17033684,-.17163065,.031060724,51.73071,788.9663)" d="M68.48463 482.58735H0V472.33705H68.48463C94.27807 472.33705 119.53422 465.20988 141.52259 451.72633 163.5112 438.24278 181.3161 418.96437 193.01236 395.97526L269.4122 245.81198C281.96684 221.13642 301.07756 200.4436 324.6793 185.9708 348.28105 171.49799 375.3898 163.84806 403.07563 163.84806H411.55967V174.09836H403.07563C377.2822 174.09836 352.02629 181.22528 330.03767 194.70883 308.04905 208.19239 290.24464 227.47104 278.54838 250.46015L202.14853 400.6234C189.5939 425.29924 170.48268 445.99205 146.88095 460.4646 123.279468 474.93766 96.1702 482.58735 68.48461 482.58735H68.48463Z" fill="#1e1a1b"/>
<path transform="matrix(.030826578,.17033684,-.17163065,.031060724,51.73071,788.9663)" d="M17.58368 359.70127H0V349.45097H17.58368C43.37712 349.45097 68.63327 342.3238 90.62163 328.84025 112.61024 315.3567 130.4149 296.07829 142.11116 273.08943L218.5115 122.925647C231.06613 98.25008 250.17736 77.55727 273.77909 63.084714 297.38084 48.611906 324.4896 40.961965 352.1754 40.961965H411.55964V51.212274H352.1754C326.382 51.212274 301.12559 58.33919 279.13746 71.822757 257.14884 85.30631 239.34394 104.5847 227.64768 127.57382L151.24735 277.7376C138.69272 302.41319 119.58174 323.106 95.98001 337.57856 72.37827 352.0516 45.26926 359.7013 17.583672 359.7013L17.58368 359.70127Z" fill="#1e1a1b"/>
<path transform="matrix(.030826578,.17033684,-.17163065,.031060724,51.73071,788.9663)" d="M60.00109 462.10624H0V451.85594H60.00109C85.79453 451.85594 111.05068 444.72877 133.03903 431.2452 155.02765 417.76167 172.83255 398.48326 184.52881 375.49415L260.92866 225.33087C273.48329 200.6553 292.594 179.9625 316.19575 165.48969 339.7975 151.01688 366.90675 143.36695 394.5926 143.36695H411.55967V153.61725H394.5926C368.79917 153.61725 343.54277 160.74442 321.55415 174.22798 299.56553 187.71155 281.7611 206.98993 270.06486 229.97905L193.66501 380.14234C181.11038 404.81816 161.99916 425.51097 138.39768 439.98353 114.79594 454.45658 87.686679 462.10627 60.001085 462.10627L60.00109 462.10624Z" fill="#1e1a1b"/>
<path transform="matrix(.030826578,.17033684,-.17163065,.031060724,51.73071,788.9663)" d="M26.06722 380.18235H0V369.93205H26.06722C51.86066 369.93205 77.11681 362.80488 99.10543 349.32133 121.09379 335.83778 138.89846 316.55937 150.59471 293.57075L226.99506 143.40673C239.54969 118.731159 258.6604 98.038349 282.26216 83.565799 305.8639 69.09299 332.97267 61.443048 360.65849 61.443048H411.55967V71.69336H360.65849C334.86506 71.69336 309.60865 78.82028 287.62055 92.30384 265.63194 105.7874 247.82703 125.065799 236.13126 148.0549L159.73093 298.21894C147.1763 322.89427 128.06558 343.58708 104.46385 358.0596 80.862117 372.53266 53.7531 380.18235 26.06726 380.18235H26.06722Z" fill="#1e1a1b"/>
<path transform="matrix(.030826578,.17033684,-.17163065,.031060724,51.73071,788.9663)" d="M51.51756 441.62516H0V431.37486H51.51756C77.311 431.37486 102.567157 424.24769 124.55577 410.76414 146.54413 397.28059 164.34905 378.00218 176.0453 355.01307L252.44515 204.8498C264.9998 180.17423 284.111 159.48142 307.7127 145.00887 331.31446 130.53606 358.42323 122.886119 386.10905 122.886119H411.55964V133.13643H386.10905C360.3156 133.13643 335.0597 140.26335 313.0711 153.7469 291.0825 167.23047 273.2776 186.50885 261.58134 209.49797L185.18149 359.66127C172.62686 384.33708 153.51564 405.02989 129.91391 419.50245 106.31242 433.9755 79.203159 441.62519 51.51757 441.62519L51.51756 441.62516Z" fill="#1e1a1b"/>
<path transform="matrix(.030826578,.17033684,-.17163065,.031060724,51.73071,788.9663)" d="M34.55075 400.66297H0V390.41267H34.55075C60.344194 390.41267 85.600589 383.2855 107.58896 369.80244 129.57758 356.31889 147.38198 337.04048 159.07825 314.05137L235.47809 163.88785C248.03272 139.21228 267.14396 118.51947 290.74568 104.04667 314.3474 89.57386 341.45619 81.92392 369.142 81.92392H411.55967V92.17423H369.142C343.34858 92.17423 318.09266 99.3014 296.10408 112.78496 274.11549 126.26852 256.31056 145.5469 244.61429 168.53603L168.21445 318.69905C155.66033 343.37486 136.5491 364.06767 112.94737 378.54023 89.345638 393.01329 62.23662 400.66297 34.55078 400.66297H34.55075Z" fill="#1e1a1b"/>
<path transform="matrix(.030826578,.17033684,-.17163065,.031060724,51.73071,788.9663)" d="M43.03428 421.14405H0V410.89375H43.03428C68.82772 410.89375 94.08387 403.76658 116.07249 390.28303 138.0611 376.79948 155.86602 357.52107 167.56177 334.53245L243.96161 184.36893C256.51625 159.69336 275.62748 139.00055 299.2292 124.528 322.83094 110.05519 349.9397 102.40525 377.62553 102.40525H411.55967V112.65556H377.62553C351.8321 112.65556 326.57618 119.782489 304.5876 133.26604 282.59898 146.7496 264.79408 166.02799 253.09781 189.0171L176.69797 339.1801C164.14334 363.85594 145.03263 384.54875 121.43089 399.0213 97.829158 413.49436 70.72014 421.14405 43.0343 421.14405H43.03428Z" fill="#1e1a1b"/>
</g>
</g>
</g>
</g>
</g>
<g opacity=".3">
<g clip-path="url(#clip_37)">
<g clip-path="url(#clip_38)">
<path transform="matrix(-.09052561,0,0,.09052561,607.57278,766.8552)" d="M689.14 803.34C668.05 789.03 669.33 757.81008 657.24 735.36007 642.52999 708.03 608.99 696.41006 578 694.84 547.01 693.26 515.87 699.27 484.99 696.21 460.16999 693.75 435.96 685.35006 414.94999 671.9 406.71 666.63 398.58998 660.12 395.13999 650.97006 388.03999 632.16006 403.74998 612.14 421.19999 602.15 438.65 592.16006 459.3 586.85006 473.37998 572.49008 502.3 542.99008 486.61997 489.42005 453.05 465.34007 419.47999 441.26008 375.63999 438.44007 334.38 436.48005 307.29 435.19004 280.2 433.90007 253.11002 432.61006 236.20001 431.81007 216.53002 429.44004 207.79001 414.94004 202.76001 406.60005 202.82 396.28004 203.03002 386.55006 204.03002 339.88008 205.03002 293.22004 206.03002 246.55005 206.19002 239.02005 206.15001 230.84004 201.54001 224.89005 195.28002 216.82004 183.52 216.24005 173.31002 216.36005 160.88 216.51004 148.46 216.66005 136.03002 216.81005V828.3901H776.49008C762.55007 820.4601 747.16006 815.1001 731.25009 813.0301 716.82 811.15 701.2 811.52 689.14 803.34Z" fill="#6d6f8f"/>
<path transform="matrix(-.09052561,0,0,.09052561,607.57278,766.8552)" d="M863.95 803.66H175.65003V172.2L222.81003 171.62999C231.38004 171.51999 249.20003 171.30998 259.06004 184.02999 266.06004 193.05998 265.81004 204.47998 265.65003 212.02999L262.65003 352.02998C262.44004 361.60997 262.56004 369.37998 265.97004 375.04997 272.01005 385.06996 287.43003 387.13996 303.20005 387.88996L384.47004 391.75996C423.21003 393.59996 471.43003 395.89997 508.50004 422.47996 530.43008 438.20997 545.5 464.67997 547.83 491.55995 549.64 512.37997 543.35006 531.26998 530.14 544.75997 519.51 555.6099 506.21003 561.63998 493.35 567.4799 487.14 570.2999 481.27003 572.9599 475.79 576.0999 461.64 584.1999 449.23 599.7899 454.11003 612.7099 456.72 619.6099 463.95 624.9099 469.95 628.7499 489.63 641.3399 512.33 649.21987 535.58 651.5299 551.60006 653.11996 567.63 652.1499 584.60006 651.1299 598.78 650.2699 613.44009 649.3899 628.11007 650.1299 647.55007 651.1199 695.0101 657.5599 715.65 695.8999 720.63 705.1499 723.45 715.2699 726.18008 725.0599 730.41006 740.2499 734.07009 753.35989 744.36007 760.33987 751.77 765.3699 761.91006 766.33987 772.6401 767.3699 775.75009 767.66989 778.9701 767.97988 782.1601 768.3899 799.1201 770.5899 815.57009 776.1699 831.0601 784.9699L863.95 803.66ZM195.66 783.66H748.05007C742.9 782.19 737.84 780.07998 733.1401 776.87997 716.7901 765.77999 711.55007 746.99996 706.93008 730.4199 704.38009 721.2899 701.98007 712.6599 698.05007 705.36996 687.07009 684.9799 660.55007 671.7899 627.11007 670.08999 613.55007 669.39999 600.08 670.22 585.82009 671.07998 568.81008 672.11 551.23007 673.17 533.62008 671.42 507.25007 668.8 481.51008 659.87 459.18006 645.58999 450.57008 640.07998 440.09007 632.17 435.40007 619.76998 431.01005 608.14999 432.61006 595.55 440.03007 583.32998 445.91007 573.63998 455.08006 564.89999 465.85008 558.7399 472.15007 555.12997 478.73008 552.1499 485.08009 549.25997 496.7801 543.94998 507.8401 538.92996 515.8501 530.74996 527.4701 518.89999 528.82009 503.82994 527.9001 493.27995 526.0901 472.36994 513.8901 450.95994 496.83009 438.72996 464.57008 415.58998 419.6201 413.44996 383.51008 411.72996L302.24009 407.85997C288.92008 407.22996 261.2201 405.90995 248.83008 385.36997 242.15009 374.28999 242.43009 361.17997 242.64008 351.59999L245.64008 211.59998C245.77008 205.32997 245.69008 199.43997 243.24008 196.27997 239.93009 192.00997 231.58008 191.51998 223.04009 191.61997L195.64009 191.94997V783.66H195.66Z" fill="#ffffff"/>
</g>
</g>
</g>
<g opacity=".3">
<g clip-path="url(#clip_39)">
<g clip-path="url(#clip_40)">
<path transform="matrix(.09052561,0,0,-.09052561,-12.305153,74.70795)" d="M689.14 803.34C668.05 789.03 669.33 757.81008 657.24 735.36007 642.52999 708.03 608.99 696.41006 578 694.84 547.01 693.26 515.87 699.27 484.99 696.21 460.16999 693.75 435.96 685.35006 414.94999 671.9 406.71 666.63 398.58998 660.12 395.13999 650.97006 388.03999 632.16006 403.74998 612.14 421.19999 602.15 438.65 592.16006 459.3 586.85006 473.37998 572.49008 502.3 542.99008 486.61997 489.42005 453.05 465.34007 419.47999 441.26008 375.63999 438.44007 334.38 436.48005 307.29 435.19004 280.2 433.90007 253.11002 432.61006 236.20001 431.81007 216.53002 429.44004 207.79001 414.94004 202.76001 406.60005 202.82 396.28004 203.03002 386.55006 204.03002 339.88008 205.03002 293.22004 206.03002 246.55005 206.19002 239.02005 206.15001 230.84004 201.54001 224.89005 195.28002 216.82004 183.52 216.24005 173.31002 216.36005 160.88 216.51004 148.46 216.66005 136.03002 216.81005V828.3901H776.49008C762.55007 820.4601 747.16006 815.1001 731.25009 813.0301 716.82 811.15 701.2 811.52 689.14 803.34Z" fill="#6d6f8f"/>
<path transform="matrix(.09052561,0,0,-.09052561,-12.305153,74.70795)" d="M863.95 803.66H175.65003V172.2L222.81003 171.62999C231.38004 171.51999 249.20003 171.30998 259.06004 184.02999 266.06004 193.05998 265.81004 204.47998 265.65003 212.02999L262.65003 352.02998C262.44004 361.60997 262.56004 369.37998 265.97004 375.04997 272.01005 385.06996 287.43003 387.13996 303.20005 387.88996L384.47004 391.75996C423.21003 393.59996 471.43003 395.89997 508.50004 422.47996 530.43008 438.20997 545.5 464.67997 547.83 491.55995 549.64 512.37997 543.35006 531.26998 530.14 544.75997 519.51 555.6099 506.21003 561.63998 493.35 567.4799 487.14 570.2999 481.27003 572.9599 475.79 576.0999 461.64 584.1999 449.23 599.7899 454.11003 612.7099 456.72 619.6099 463.95 624.9099 469.95 628.7499 489.63 641.3399 512.33 649.21987 535.58 651.5299 551.60006 653.11996 567.63 652.1499 584.60006 651.1299 598.78 650.2699 613.44009 649.3899 628.11007 650.1299 647.55007 651.1199 695.0101 657.5599 715.65 695.8999 720.63 705.1499 723.45 715.2699 726.18008 725.0599 730.41006 740.2499 734.07009 753.35989 744.36007 760.33987 751.77 765.3699 761.91006 766.33987 772.6401 767.3699 775.75009 767.66989 778.9701 767.97988 782.1601 768.3899 799.1201 770.5899 815.57009 776.1699 831.0601 784.9699L863.95 803.66ZM195.66 783.66H748.05007C742.9 782.19 737.84 780.07998 733.1401 776.87997 716.7901 765.77999 711.55007 746.99996 706.93008 730.4199 704.38009 721.2899 701.98007 712.6599 698.05007 705.36996 687.07009 684.9799 660.55007 671.7899 627.11007 670.08999 613.55007 669.39999 600.08 670.22 585.82009 671.07998 568.81008 672.11 551.23007 673.17 533.62008 671.42 507.25007 668.8 481.51008 659.87 459.18006 645.58999 450.57008 640.07998 440.09007 632.17 435.40007 619.76998 431.01005 608.14999 432.61006 595.55 440.03007 583.32998 445.91007 573.63998 455.08006 564.89999 465.85008 558.7399 472.15007 555.12997 478.73008 552.1499 485.08009 549.25997 496.7801 543.94998 507.8401 538.92996 515.8501 530.74996 527.4701 518.89999 528.82009 503.82994 527.9001 493.27995 526.0901 472.36994 513.8901 450.95994 496.83009 438.72996 464.57008 415.58998 419.6201 413.44996 383.51008 411.72996L302.24009 407.85997C288.92008 407.22996 261.2201 405.90995 248.83008 385.36997 242.15009 374.28999 242.43009 361.17997 242.64008 351.59999L245.64008 211.59998C245.77008 205.32997 245.69008 199.43997 243.24008 196.27997 239.93009 192.00997 231.58008 191.51998 223.04009 191.61997L195.64009 191.94997V783.66H195.66Z" fill="#ffffff"/>
</g>
</g>
</g>
</g>
<path transform="matrix(1,0,0,-1,0,850.07998)" d="M0 790.51748H65.914218V850.00326H0Z" fill-opacity="0"/>
<path transform="matrix(1,0,0,-1,0,850.07998)" d="M530.2456 796.4284H629.1007V882.4612H530.2456Z" fill-opacity="0"/>
<path transform="matrix(1,0,0,-1,0,850.07998)" d="M-34.372838-25.276963H64.48224V60.75582H-34.372838Z" fill-opacity="0"/>
<path transform="matrix(1,0,0,-1,0,850.07998)" d="M529.3614 7.8717739H595.27566V67.357547H529.3614Z" fill-opacity="0"/>
</g>
</svg>
