<?xml version="1.0" standalone="no"?>
<!DOCTYPE svg PUBLIC "-//W3C//DTD SVG 20010904//EN"
 "http://www.w3.org/TR/2001/REC-SVG-20010904/DTD/svg10.dtd">
<svg version="1.0" xmlns="http://www.w3.org/2000/svg"
 width="4455.000000pt" height="3150.000000pt" viewBox="0 0 4455.000000 3150.000000"
 preserveAspectRatio="xMidYMid meet">

<g transform="translate(0.000000,3150.000000) scale(0.100000,-0.100000)"
fill="#000000" stroke="none">
<path d="M17305 30206 c-43 -19 -94 -74 -106 -116 -6 -23 -9 -525 -7 -1502 l3
-1466 31 -39 c17 -21 51 -49 75 -63 l44 -25 2428 -3 2427 -2 0 -395 0 -395
-4496 0 c-4491 0 -4496 0 -4596 -20 -266 -55 -484 -172 -668 -360 -169 -172
-280 -384 -330 -628 -19 -95 -20 -135 -20 -761 l0 -661 -2448 0 -2448 0 -46
-29 c-30 -19 -52 -44 -67 -73 l-21 -44 0 -1222 c0 -1081 2 -1227 15 -1260 19
-44 49 -78 90 -100 28 -16 224 -17 2475 -22 l2445 -5 3 -357 2 -358 -2272 -2
-2273 -3 -77 -26 c-126 -43 -204 -93 -304 -193 -76 -77 -99 -107 -138 -186
-72 -147 -76 -177 -76 -617 l0 -383 -1998 0 -1998 0 -44 -22 c-26 -14 -57 -41
-75 -66 l-30 -44 -3 -970 c-2 -690 1 -981 9 -1011 16 -62 83 -122 151 -137 39
-8 1043 -10 3898 -8 l3845 3 45 25 c49 28 85 74 100 131 7 25 9 369 8 997 l-3
959 -30 48 c-20 32 -45 56 -74 72 l-44 23 -1806 0 -1806 0 5 402 c5 387 6 405
27 462 36 94 82 163 160 235 81 77 171 125 270 146 102 22 9104 22 9206 0 99
-21 189 -69 270 -146 78 -72 124 -141 160 -235 21 -57 22 -76 27 -461 l5 -403
-1810 -2 -1810 -3 -38 -24 c-20 -13 -49 -42 -62 -66 l-25 -42 0 -987 c0 -963
0 -988 20 -1026 11 -21 33 -48 50 -60 73 -52 -6 -50 1882 -50 l1758 0 0 -320
0 -320 -1537 0 c-928 0 -1575 -4 -1631 -10 -533 -56 -943 -425 -1068 -960 -16
-66 -18 -149 -21 -727 l-4 -653 -1460 0 c-1295 0 -1464 -2 -1497 -15 -47 -20
-79 -50 -103 -97 -18 -36 -19 -79 -19 -1325 l0 -1288 23 -40 c12 -21 42 -53
65 -70 l44 -30 3001 -3 c2111 -2 3013 0 3039 8 20 6 51 22 68 36 64 55 60 -44
60 1389 0 1410 3 1331 -52 1382 -60 56 28 53 -1558 53 l-1460 0 0 613 c0 673
2 706 61 875 121 345 407 598 782 689 68 16 258 18 3187 21 2159 2 3147 0
3221 -8 141 -14 232 -40 364 -104 256 -125 433 -319 532 -581 59 -156 57 -124
60 -842 l4 -663 -1369 0 c-994 0 -1378 -3 -1403 -11 -39 -13 -94 -62 -115
-101 -12 -23 -14 -225 -14 -1324 l0 -1297 25 -43 c18 -30 40 -49 77 -68 l52
-26 2823 0 c3100 0 2860 -5 2926 58 61 57 57 -34 57 1371 0 887 -3 1298 -11
1318 -15 40 -57 82 -104 104 -38 18 -98 19 -1417 19 l-1378 0 0 629 c0 691 -2
721 -62 896 -152 447 -545 761 -1021 814 -64 7 -584 11 -1557 11 l-1460 0 0
320 0 320 1601 0 c1120 0 1613 3 1643 11 56 14 114 62 137 113 18 39 19 89 19
1009 0 851 -2 972 -15 1005 -21 49 -52 81 -100 103 -38 18 -106 19 -1647 19
l-1608 0 0 383 c0 440 -4 470 -76 617 -39 79 -62 109 -138 186 -100 100 -178
150 -304 193 l-77 26 -2267 3 -2268 2 0 360 0 360 2433 0 c2343 0 2433 1 2472
19 48 22 79 54 100 103 13 33 15 179 15 1256 l0 1218 -26 52 c-19 37 -38 59
-68 77 l-43 25 -2444 0 -2444 0 5 687 6 688 27 94 c118 405 435 704 837 787
l115 24 9125 0 9125 0 115 -24 c410 -85 720 -381 842 -806 21 -73 22 -98 27
-763 l6 -687 -2446 0 -2445 0 -46 -29 c-30 -19 -52 -44 -67 -73 l-21 -44 0
-1225 c0 -1169 1 -1226 19 -1264 22 -48 54 -79 103 -100 33 -13 301 -15 2508
-15 l2470 0 0 -360 0 -360 -2327 -2 -2328 -3 -80 -28 c-119 -42 -210 -99 -300
-191 -91 -93 -144 -176 -182 -291 l-27 -80 -4 -407 -3 -408 -1403 -2 -1403 -3
-36 -27 c-19 -16 -46 -43 -59 -60 l-23 -33 0 -1001 0 -1000 27 -41 c17 -26 45
-49 75 -64 l48 -24 2820 -3 c2087 -2 2834 0 2873 8 68 15 135 75 151 137 8 30
11 321 9 1011 l-3 970 -30 43 c-16 23 -50 53 -74 66 l-44 23 -1389 0 -1388 0
0 373 c0 292 3 385 15 434 47 198 199 359 405 429 53 18 186 19 4640 19 l4585
0 70 -22 c179 -57 329 -211 391 -403 15 -48 18 -106 22 -442 l4 -388 -888 0
c-887 0 -888 0 -932 -21 -29 -15 -54 -37 -73 -67 l-29 -46 0 -988 c0 -892 2
-992 16 -1021 23 -46 43 -66 89 -91 40 -21 42 -21 928 -24 l887 -3 0 -4527 c0
-3956 2 -4535 15 -4590 51 -215 237 -390 466 -438 55 -11 134 -14 355 -12
l284 3 0 -363 c0 -394 0 -390 57 -444 64 -61 12 -58 1063 -58 l960 0 0 -693 0
-694 -22 -21 c-19 -17 -38 -21 -116 -24 l-92 -3 0 265 c0 293 -6 321 -66 369
-69 54 61 51 -2094 51 -2175 0 -2028 4 -2098 -55 -64 -53 -63 -46 -60 -722 l3
-611 30 -44 c18 -25 49 -52 75 -65 l44 -23 2006 0 2006 0 44 23 c26 13 57 40
75 65 l30 44 5 276 5 277 96 1 c111 2 152 13 197 53 l32 30 28 -24 c48 -40
109 -66 179 -77 108 -16 141 -27 180 -61 65 -57 63 -39 63 -651 l0 -556 -972
-2 c-960 -3 -973 -3 -1008 -23 -19 -12 -48 -40 -65 -64 l-30 -43 0 -628 0
-628 30 -44 c18 -25 49 -52 75 -65 l44 -23 2006 0 2006 0 44 23 c26 13 57 40
75 65 l30 44 0 628 0 628 -30 43 c-17 24 -46 52 -65 64 -35 20 -48 20 -1007
23 l-973 2 0 513 c0 281 -5 545 -10 584 -11 88 -44 154 -102 209 -64 61 -107
82 -189 95 -115 17 -146 27 -186 62 -76 67 -73 34 -73 760 l0 647 963 0 963 0
52 26 c39 19 59 38 80 72 l27 47 3 760 c2 541 0 775 -8 813 -13 61 -47 105
-101 132 -38 20 -73 20 -2054 20 -1958 0 -2017 -1 -2053 -19 -42 -22 -63 -43
-86 -88 -14 -28 -16 -80 -16 -393 l0 -360 -272 0 c-150 0 -299 4 -331 10 -84
13 -159 51 -223 112 -68 64 -97 107 -124 187 -20 59 -20 80 -20 1146 l0 1085
56 -45 c30 -25 82 -59 115 -75 103 -53 172 -61 477 -58 l272 3 0 -358 c0 -278
3 -365 14 -390 17 -42 76 -93 123 -107 27 -8 532 -10 1740 -8 l1701 3 43 30
c23 17 53 50 66 74 l23 44 0 782 0 781 -25 50 c-14 28 -40 59 -62 74 l-37 25
-1723 3 c-1576 2 -1726 1 -1756 -14 -45 -23 -66 -44 -88 -86 -18 -34 -19 -64
-19 -398 l0 -360 -252 0 c-139 0 -282 5 -317 10 -151 25 -273 130 -330 285
-13 34 -16 182 -18 1017 l-4 978 486 2 485 3 0 -363 c0 -297 3 -368 14 -391
21 -40 80 -88 123 -101 27 -8 391 -10 1238 -8 l1200 3 44 30 c24 17 54 48 65
70 21 39 21 51 24 825 l2 785 -22 44 c-13 25 -40 59 -61 75 l-39 31 -1224 3
c-1116 2 -1227 1 -1257 -14 -45 -23 -66 -44 -88 -86 -18 -34 -19 -64 -19 -398
l0 -360 -485 0 -485 0 0 989 c0 614 4 1008 10 1041 33 176 172 312 347 340 32
6 172 10 311 10 l252 0 0 -363 0 -363 29 -46 c19 -30 44 -52 73 -67 l44 -21
1205 0 c1146 0 1206 1 1244 19 50 23 91 70 105 121 7 26 10 297 8 819 l-3 779
-30 43 c-16 23 -48 52 -70 63 -40 21 -45 21 -1235 24 -842 2 -1206 0 -1233 -8
-47 -14 -106 -65 -123 -107 -11 -25 -14 -112 -14 -390 l0 -358 -257 3 c-163 2
-286 -1 -333 -8 -93 -15 -197 -62 -272 -124 l-58 -47 0 1060 0 1061 861 0
c587 0 874 3 903 11 56 14 114 62 137 113 18 39 19 89 19 1001 0 630 -4 973
-10 997 -14 50 -55 97 -105 119 -38 18 -88 19 -922 19 l-881 0 -4 393 c-4 364
-6 398 -26 471 -55 201 -204 377 -397 471 -166 81 21 75 -2425 75 l-2180 0 0
360 0 360 2398 0 c2309 0 2398 1 2437 19 48 22 79 54 100 103 13 33 15 179 15
1256 l0 1218 -26 52 c-19 37 -38 59 -68 77 l-43 25 -2446 0 -2447 0 0 654 c0
534 -3 669 -15 739 -43 248 -164 484 -338 660 -184 186 -401 303 -665 357
-100 20 -105 20 -4671 20 l-4571 0 0 395 0 395 2428 2 2427 3 44 25 c24 14 58
42 75 63 l31 39 0 1486 0 1487 -24 36 c-14 20 -41 47 -60 60 l-35 24 -4950 2
c-4075 2 -4956 0 -4981 -11z m9893 -148 c17 -17 17 -2879 0 -2896 -17 -17
-9829 -17 -9846 0 -17 17 -17 2879 0 2896 17 17 9829 17 9846 0z m-10106
-6445 c17 -15 18 -66 18 -1214 0 -1075 -2 -1199 -16 -1213 -14 -15 -476 -16
-4930 -16 -3369 0 -4921 3 -4935 10 -19 10 -19 35 -19 1212 0 1104 1 1203 17
1220 16 17 182 18 4931 18 4560 0 4917 -1 4934 -17z m20380 0 c17 -15 18 -66
18 -1214 0 -1075 -2 -1199 -16 -1213 -14 -15 -476 -16 -4930 -16 -3369 0
-4921 3 -4935 10 -19 10 -19 35 -19 1212 0 1104 1 1203 17 1220 16 17 182 18
4931 18 4560 0 4917 -1 4934 -17z m-26777 -4896 c14 -21 15 -132 13 -966 -3
-824 -5 -943 -18 -951 -9 -6 -1457 -10 -3867 -10 -3799 0 -3852 0 -3863 19 -7
13 -10 331 -10 960 0 841 2 941 16 955 14 15 379 16 3864 16 l3850 0 15 -23z
m9885 4 c16 -30 14 -1903 -2 -1919 -17 -17 -6919 -17 -6936 0 -17 17 -17 1909
0 1926 9 9 794 12 3470 12 3408 0 3457 0 3468 -19z m9624 3 c14 -14 16 -114
16 -955 0 -629 -3 -947 -10 -960 -11 -19 -53 -19 -2843 -19 -2190 0 -2836 3
-2845 12 -17 17 -17 1909 0 1926 9 9 654 12 2839 12 2557 0 2829 -2 2843 -16z
m9276 -3 c16 -30 14 -1903 -2 -1919 -15 -15 -3644 -17 -3668 -2 -13 8 -15 127
-18 951 -2 834 -1 945 13 966 l15 23 1825 0 c1793 0 1824 0 1835 -19z m1702
-3338 c17 -15 18 -52 18 -765 0 -497 -3 -756 -10 -769 -10 -19 -34 -19 -1195
-19 l-1185 0 -15 24 c-14 20 -15 111 -13 768 3 614 5 748 17 761 12 16 108 17
1189 17 1080 0 1177 -1 1194 -17z m-25191 -1903 c19 -11 19 -35 19 -1275 0
-1240 0 -1264 -19 -1275 -14 -7 -960 -10 -2986 -10 -2026 0 -2972 3 -2986 10
-19 11 -19 35 -19 1273 0 969 3 1266 12 1275 16 16 5949 18 5979 2z m8200 -7
c12 -13 14 -222 14 -1270 0 -1230 0 -1255 -19 -1269 -17 -12 -418 -14 -2822
-14 l-2803 0 -15 22 c-14 20 -16 156 -16 1263 0 1107 2 1243 16 1263 l15 22
2808 0 c2600 0 2810 -1 2822 -17z m17047 -615 c9 -9 12 -193 12 -767 0 -688
-1 -756 -17 -773 -15 -17 -65 -18 -1190 -18 -1160 0 -1173 0 -1193 20 -20 20
-20 33 -20 759 0 457 4 750 10 765 l10 26 1188 0 c911 0 1191 -3 1200 -12z
m950 -2440 c9 -9 12 -194 12 -769 0 -675 -2 -759 -16 -773 -14 -14 -181 -16
-1688 -16 -1428 0 -1675 2 -1692 14 -18 14 -19 35 -22 762 -2 659 -1 750 13
770 l15 24 1683 0 c1296 0 1686 -3 1695 -12z m662 -2517 c7 -13 10 -270 10
-763 0 -657 -2 -746 -16 -766 l-15 -22 -1980 0 c-1972 0 -1979 0 -1999 20 -20
20 -20 30 -18 776 3 658 5 756 18 764 9 6 768 10 2002 10 1955 0 1987 0 1998
-19z m-2476 -2617 c14 -14 16 -81 16 -594 0 -513 -2 -580 -16 -594 -14 -14
-209 -16 -1994 -16 -1785 0 -1980 2 -1994 16 -14 14 -16 81 -16 594 0 513 2
580 16 594 14 14 209 16 1994 16 1785 0 1980 -2 1994 -16z m3020 -2120 c14
-14 16 -81 16 -594 0 -513 -2 -580 -16 -594 -14 -14 -209 -16 -1994 -16 -1785
0 -1980 2 -1994 16 -14 14 -16 81 -16 594 0 513 2 580 16 594 14 14 209 16
1994 16 1785 0 1980 -2 1994 -16z"/>
<path d="M5602 1260 c-182 -92 -230 -128 -238 -180 -6 -33 -3 -39 43 -75 76
-60 123 -108 139 -138 15 -27 14 -28 -20 -42 -21 -9 -67 -15 -113 -15 l-78 0
-20 37 c-30 54 -49 62 -79 34 -14 -14 -29 -40 -32 -59 -6 -29 -3 -39 16 -54
12 -10 38 -18 56 -18 l34 0 -19 -38 c-42 -81 -114 -122 -218 -122 -61 0 -70
-15 -15 -24 114 -18 190 4 226 68 13 22 29 58 36 79 11 37 12 37 65 37 139 0
203 38 191 114 l-7 39 63 -58 c98 -91 178 -116 243 -77 29 18 30 18 70 -5 46
-26 83 -30 91 -9 4 11 12 13 31 5 32 -12 99 -12 144 1 63 18 71 69 43 268 -11
77 -13 121 -7 135 7 17 4 29 -13 55 -21 31 -23 32 -33 14 -7 -14 -6 -39 4 -88
22 -108 48 -314 40 -322 -4 -4 -44 -9 -90 -10 l-83 -4 -45 41 c-24 23 -47 41
-50 41 -3 0 -27 -18 -52 -40 -42 -37 -51 -40 -103 -40 -66 0 -87 11 -203 105
-43 35 -112 87 -154 115 -41 28 -75 55 -75 60 0 16 84 64 227 131 111 52 134
66 142 90 5 16 8 29 6 29 -3 0 -76 -36 -163 -80z m390 -430 c18 -32 13 -36
-27 -18 -27 12 -33 33 -12 41 20 9 21 8 39 -23z m-717 0 c18 -20 17 -20 -13
-20 -32 0 -45 23 -19 33 6 3 12 6 13 6 0 1 9 -8 19 -19z"/>
<path d="M2012 1225 c-8 -17 -8 -33 -2 -47 10 -24 50 -288 50 -331 0 -14 -7
-28 -16 -31 -30 -12 -160 -6 -178 7 -18 13 -18 15 -1 40 23 36 13 71 -25 87
-58 24 -139 -8 -153 -61 -4 -15 0 -19 23 -19 15 0 33 -7 40 -15 10 -13 7 -17
-21 -29 -40 -16 -149 -30 -149 -19 1 5 7 19 15 33 39 68 1 130 -81 130 -48 0
-108 -39 -180 -119 l-41 -45 -28 18 c-15 10 -30 27 -32 37 -6 20 -23 27 -23 9
0 -6 -11 -22 -25 -35 -44 -45 -165 -27 -165 25 0 14 -7 11 -34 -16 -25 -25
-43 -34 -68 -34 -65 -1 -112 -18 -145 -54 -19 -20 -33 -46 -33 -61 0 -21 7
-27 55 -40 30 -9 57 -20 60 -25 3 -5 -22 -22 -55 -38 -189 -95 -344 -10 -285
157 18 52 11 53 -15 1 -13 -26 -20 -59 -20 -99 0 -53 4 -65 30 -95 17 -19 47
-40 67 -47 52 -17 141 -6 206 26 64 32 93 59 102 96 8 31 -7 45 -66 62 -81 24
-61 43 59 57 55 6 80 14 98 31 l24 22 24 -22 c38 -36 102 -39 149 -7 l38 26
28 -21 c20 -15 27 -27 24 -42 -4 -21 -3 -21 10 -4 13 15 36 17 209 17 200 0
238 5 291 43 28 19 28 19 50 -1 46 -43 144 -56 212 -28 56 24 61 84 24 314 -7
44 -6 69 2 83 8 16 7 24 -5 38 -9 10 -16 23 -16 29 0 22 -17 21 -28 -3z m-458
-326 c14 -11 26 -25 26 -30 0 -28 -211 -82 -233 -60 -14 14 14 45 72 83 53 33
98 36 135 7z"/>
<path d="M3731 1232 c-7 -14 -6 -39 4 -88 22 -108 48 -314 40 -322 -3 -4 -49
-9 -100 -10 -84 -4 -95 -2 -114 17 -27 27 -27 41 2 41 15 0 28 9 35 24 10 23
10 23 -61 29 -40 4 -103 16 -142 27 -116 33 -148 25 -174 -43 -12 -30 -5 -33
23 -12 24 18 89 18 136 0 l35 -13 -70 -32 c-59 -28 -85 -34 -170 -39 l-100 -6
17 35 c22 41 23 99 4 125 -13 19 -15 18 -44 -13 -17 -18 -40 -57 -53 -87 l-23
-55 -56 0 c-88 0 -92 7 -115 215 -9 77 -19 156 -24 175 -7 35 -7 35 -20 11
-10 -17 -10 -33 -2 -65 5 -22 15 -93 21 -156 7 -63 16 -132 21 -152 12 -46 60
-88 102 -88 55 0 73 -10 86 -45 15 -42 64 -85 96 -85 43 0 69 64 45 109 -8 17
-3 19 63 23 74 5 108 18 237 88 74 40 86 39 94 -8 8 -56 35 -75 109 -80 34 -2
81 1 103 7 69 18 77 66 48 269 -11 77 -13 121 -7 135 7 17 4 29 -13 55 -21 31
-23 32 -33 14z m-651 -331 c16 -30 13 -38 -24 -60 -50 -31 -59 -27 -41 16 27
65 46 78 65 44z m-6 -175 c43 -18 52 -32 26 -46 -15 -8 -27 -7 -50 5 -16 9
-30 17 -30 19 0 3 -3 11 -6 20 -8 20 15 21 60 2z"/>
<path d="M6662 1225 c-8 -17 -8 -33 -2 -50 15 -40 42 -254 35 -284 -3 -15 -21
-43 -40 -61 -33 -32 -34 -32 -102 -26 l-68 7 25 -21 c49 -39 79 -41 526 -38
l432 3 113 58 c133 67 149 70 149 26 0 -43 15 -65 51 -78 70 -24 159 -3 180
43 9 20 16 23 29 16 10 -5 36 -13 58 -19 47 -10 68 0 77 39 6 28 -30 108 -57
124 -24 14 -64 -25 -94 -90 -12 -28 -30 -54 -39 -58 -9 -3 -47 -6 -84 -6 -53
0 -72 4 -84 18 -23 25 -21 42 3 42 16 0 40 26 40 44 0 3 -20 6 -44 6 -24 0
-88 11 -142 25 -139 35 -164 33 -189 -16 -22 -41 -19 -53 7 -35 26 19 86 19
142 3 l40 -12 -73 -34 c-69 -32 -209 -60 -231 -46 -5 3 0 20 10 38 36 59 19
95 -52 112 -40 10 -70 0 -122 -40 l-46 -35 -2 103 c-2 56 -3 125 -3 152 0 28
-8 63 -16 79 l-16 30 -12 -23 c-9 -16 -9 -31 -2 -54 15 -50 31 -170 31 -240 0
-57 -3 -66 -30 -92 -30 -29 -89 -42 -133 -29 -17 5 -17 8 -3 22 21 24 36 69
30 87 -9 22 -57 45 -96 45 -34 0 -85 -26 -126 -63 l-23 -22 7 52 c3 28 1 89
-6 136 -7 54 -8 92 -2 103 7 14 3 27 -13 51 l-22 32 -11 -24z m229 -331 c25
-12 28 -18 18 -30 -15 -18 -126 -51 -199 -58 l-55 -6 45 41 c75 68 132 84 191
53z m389 1 c40 -20 38 -33 -7 -52 -45 -18 -194 -46 -202 -37 -8 8 54 60 99 84
43 23 72 25 110 5z m794 -10 c9 -13 16 -27 16 -30 0 -9 -38 -5 -65 7 -28 13
-30 19 -13 36 19 19 44 14 62 -13z"/>
<path d="M2183 1202 c-10 -26 -8 -65 12 -213 14 -100 25 -195 25 -213 0 -24 3
-27 10 -16 16 24 10 153 -14 320 -20 143 -22 153 -33 122z"/>
<path d="M3902 1201 c-10 -29 -8 -66 15 -244 16 -124 30 -202 34 -191 13 33
10 120 -11 267 -10 78 -20 156 -22 172 l-3 30 -13 -34z"/>
<path d="M4755 1211 c-6 -19 6 -128 35 -329 10 -72 30 -109 66 -122 57 -22
155 -5 174 30 17 31 11 93 -11 130 -22 35 -22 35 -32 12 -8 -17 -8 -28 1 -40
49 -69 40 -82 -60 -82 -55 0 -72 4 -88 20 -11 11 -20 24 -20 29 0 5 -4 43 -9
83 -5 40 -15 116 -21 168 -14 107 -24 136 -35 101z"/>
<path d="M8403 1156 c7 -42 -4 -46 -27 -11 -18 27 -36 33 -36 12 0 -8 11 -20
25 -27 36 -19 31 -30 -10 -23 -28 5 -35 2 -35 -11 0 -14 7 -16 38 -11 l37 6
-30 -25 c-21 -18 -27 -28 -19 -36 8 -8 16 -4 28 14 23 36 33 32 28 -10 -3 -28
-1 -35 9 -32 9 3 13 17 11 39 l-3 34 20 -22 c20 -23 41 -30 41 -14 0 5 -12 19
-27 30 l-28 22 39 -3 c27 -2 41 1 44 11 4 11 -3 13 -32 8 -39 -6 -48 6 -16 23
20 11 28 40 11 40 -5 0 -19 -12 -30 -27 l-22 -28 3 34 c2 23 -2 36 -11 39 -11
4 -13 -3 -8 -32z m17 -56 c0 -5 -4 -10 -10 -10 -5 0 -10 5 -10 10 0 6 5 10 10
10 6 0 10 -4 10 -10z"/>
<path d="M7541 1099 c-11 -19 -10 -24 8 -42 17 -17 22 -18 35 -7 21 17 20 33
-2 53 -23 21 -24 21 -41 -4z"/>
<path d="M4946 1091 c-17 -19 -17 -20 9 -37 24 -16 27 -16 42 -1 15 15 15 18
-2 37 -22 25 -27 25 -49 1z"/>
<path d="M4355 1057 c-15 -20 -14 -23 6 -39 26 -22 38 -23 45 -3 4 8 12 15 19
15 7 0 18 -7 25 -15 17 -20 23 -19 38 6 11 18 11 24 -4 40 -21 23 -33 24 -49
2 -12 -16 -14 -16 -38 0 -25 16 -27 16 -42 -6z"/>
<path d="M2545 1040 c-17 -19 -17 -20 6 -39 30 -25 31 -25 47 -1 14 23 10 35
-17 50 -14 7 -23 5 -36 -10z"/>
<path d="M4624 986 c-4 -17 1 -37 16 -61 12 -20 19 -42 17 -50 -19 -47 -325
-86 -400 -50 -44 21 -63 67 -47 110 15 39 5 43 -14 6 -33 -63 -13 -136 45
-167 68 -34 233 -23 359 25 77 29 81 33 87 78 4 28 -1 51 -16 81 -26 52 -39
59 -47 28z"/>
<path d="M2604 886 c-4 -17 4 -36 27 -69 38 -54 35 -74 -16 -134 -44 -52 -111
-85 -189 -93 l-61 -6 40 -12 c62 -18 117 -15 166 11 35 19 51 36 77 86 39 77
41 120 6 189 -28 57 -41 64 -50 28z"/>
<path d="M3353 691 c-10 -16 -8 -22 11 -40 l23 -21 18 20 c17 19 17 21 0 40
-23 25 -37 25 -52 1z"/>
<path d="M968 675 c-17 -22 -17 -24 8 -40 20 -13 28 -14 40 -4 20 17 17 34 -9
52 -20 13 -24 13 -39 -8z"/>
<path d="M696 441 c-17 -19 -20 -19 -42 -4 -14 9 -26 14 -27 12 -2 -2 -9 -12
-16 -21 -12 -16 -10 -20 10 -37 24 -19 24 -19 45 0 19 18 22 18 34 4 17 -20
37 -19 49 4 8 14 5 23 -13 40 -22 21 -23 21 -40 2z"/>
</g>
</svg>
