<?xml version="1.0" standalone="no"?>
<!DOCTYPE svg PUBLIC "-//W3C//DTD SVG 20010904//EN"
 "http://www.w3.org/TR/2001/REC-SVG-20010904/DTD/svg10.dtd">
<svg version="1.0" xmlns="http://www.w3.org/2000/svg"
 width="4455.000000pt" height="3150.000000pt" viewBox="0 0 4455.000000 3150.000000"
 preserveAspectRatio="xMidYMid meet">

<g transform="translate(0.000000,3150.000000) scale(0.100000,-0.100000)"
fill="#000000" stroke="none">
<path d="M17305 30206 c-43 -19 -94 -74 -106 -116 -6 -23 -9 -525 -7 -1502 l3
-1466 31 -39 c17 -21 51 -49 75 -63 l44 -25 2428 -3 2427 -2 0 -395 0 -395
-4496 0 c-4491 0 -4496 0 -4596 -20 -266 -55 -484 -172 -668 -360 -169 -172
-280 -384 -330 -628 -19 -95 -20 -135 -20 -761 l0 -661 -2448 0 -2448 0 -46
-29 c-30 -19 -52 -44 -67 -73 l-21 -44 0 -1222 c0 -1081 2 -1227 15 -1260 19
-44 49 -78 90 -100 28 -16 224 -17 2475 -22 l2445 -5 3 -357 2 -358 -2272 -2
-2273 -3 -77 -26 c-126 -43 -204 -93 -304 -193 -76 -77 -99 -107 -138 -186
-72 -147 -76 -177 -76 -617 l0 -383 -1998 0 -1998 0 -44 -22 c-26 -14 -57 -41
-75 -66 l-30 -44 -3 -970 c-2 -690 1 -981 9 -1011 16 -62 83 -122 151 -137 39
-8 1043 -10 3898 -8 l3845 3 45 25 c49 28 85 74 100 131 7 25 9 369 8 997 l-3
959 -30 48 c-20 32 -45 56 -74 72 l-44 23 -1806 0 -1806 0 5 402 c5 387 6 405
27 462 36 94 82 163 160 235 81 77 171 125 270 146 102 22 9104 22 9206 0 99
-21 189 -69 270 -146 78 -72 124 -141 160 -235 21 -57 22 -76 27 -461 l5 -403
-1810 -2 -1810 -3 -38 -24 c-20 -13 -49 -42 -62 -66 l-25 -42 0 -987 c0 -963
0 -988 20 -1026 11 -21 33 -48 50 -60 73 -52 -6 -50 1882 -50 l1758 0 0 -320
0 -320 -1537 0 c-928 0 -1575 -4 -1631 -10 -533 -56 -943 -425 -1068 -960 -16
-66 -18 -149 -21 -727 l-4 -653 -1460 0 c-1295 0 -1464 -2 -1497 -15 -47 -20
-79 -50 -103 -97 -18 -36 -19 -79 -19 -1325 l0 -1288 23 -40 c12 -21 42 -53
65 -70 l44 -30 3001 -3 c2111 -2 3013 0 3039 8 20 6 51 22 68 36 64 55 60 -44
60 1389 0 1410 3 1331 -52 1382 -60 56 28 53 -1558 53 l-1460 0 0 613 c0 673
2 706 61 875 121 345 407 598 782 689 68 16 258 18 3187 21 2159 2 3147 0
3221 -8 141 -14 232 -40 364 -104 256 -125 433 -319 532 -581 59 -156 57 -124
60 -842 l4 -663 -1369 0 c-994 0 -1378 -3 -1403 -11 -39 -13 -94 -62 -115
-101 -12 -23 -14 -225 -14 -1324 l0 -1297 25 -43 c18 -30 40 -49 77 -68 l52
-26 2823 0 c3100 0 2860 -5 2926 58 61 57 57 -34 57 1371 0 887 -3 1298 -11
1318 -15 40 -57 82 -104 104 -38 18 -98 19 -1417 19 l-1378 0 0 629 c0 691 -2
721 -62 896 -152 447 -545 761 -1021 814 -64 7 -584 11 -1557 11 l-1460 0 0
320 0 320 1601 0 c1120 0 1613 3 1643 11 56 14 114 62 137 113 18 39 19 89 19
1009 0 851 -2 972 -15 1005 -21 49 -52 81 -100 103 -38 18 -106 19 -1647 19
l-1608 0 0 383 c0 440 -4 470 -76 617 -39 79 -62 109 -138 186 -100 100 -178
150 -304 193 l-77 26 -2267 3 -2268 2 0 360 0 360 2433 0 c2343 0 2433 1 2472
19 48 22 79 54 100 103 13 33 15 179 15 1256 l0 1218 -26 52 c-19 37 -38 59
-68 77 l-43 25 -2444 0 -2444 0 5 687 6 688 27 94 c118 405 435 704 837 787
l115 24 9125 0 9125 0 115 -24 c410 -85 720 -381 842 -806 21 -73 22 -98 27
-763 l6 -687 -2446 0 -2445 0 -46 -29 c-30 -19 -52 -44 -67 -73 l-21 -44 0
-1225 c0 -1169 1 -1226 19 -1264 22 -48 54 -79 103 -100 33 -13 301 -15 2508
-15 l2470 0 0 -360 0 -360 -2327 -2 -2328 -3 -80 -28 c-119 -42 -210 -99 -300
-191 -91 -93 -144 -176 -182 -291 l-27 -80 -4 -407 -3 -408 -1403 -2 -1403 -3
-36 -27 c-19 -16 -46 -43 -59 -60 l-23 -33 0 -1001 0 -1000 27 -41 c17 -26 45
-49 75 -64 l48 -24 2820 -3 c2087 -2 2834 0 2873 8 68 15 135 75 151 137 8 30
11 321 9 1011 l-3 970 -30 43 c-16 23 -50 53 -74 66 l-44 23 -1389 0 -1388 0
0 373 c0 292 3 385 15 434 47 198 199 359 405 429 53 18 186 19 4640 19 l4585
0 70 -22 c179 -57 329 -211 391 -403 15 -48 18 -106 22 -442 l4 -388 -888 0
c-887 0 -888 0 -932 -21 -29 -15 -54 -37 -73 -67 l-29 -46 0 -988 c0 -892 2
-992 16 -1021 23 -46 43 -66 89 -91 40 -21 42 -21 928 -24 l887 -3 0 -4527 c0
-3956 2 -4535 15 -4590 51 -215 237 -390 466 -438 55 -11 134 -14 355 -12
l284 3 0 -363 c0 -394 0 -390 57 -444 64 -61 12 -58 1063 -58 l960 0 0 -693 0
-694 -22 -21 c-19 -17 -38 -21 -116 -24 l-92 -3 0 265 c0 293 -6 321 -66 369
-69 54 61 51 -2094 51 -2175 0 -2028 4 -2098 -55 -64 -53 -63 -46 -60 -722 l3
-611 30 -44 c18 -25 49 -52 75 -65 l44 -23 2006 0 2006 0 44 23 c26 13 57 40
75 65 l30 44 5 276 5 277 96 1 c111 2 152 13 197 53 l32 30 28 -24 c48 -40
109 -66 179 -77 108 -16 141 -27 180 -61 65 -57 63 -39 63 -651 l0 -556 -972
-2 c-960 -3 -973 -3 -1008 -23 -19 -12 -48 -40 -65 -64 l-30 -43 0 -628 0
-628 30 -44 c18 -25 49 -52 75 -65 l44 -23 2006 0 2006 0 44 23 c26 13 57 40
75 65 l30 44 0 628 0 628 -30 43 c-17 24 -46 52 -65 64 -35 20 -48 20 -1007
23 l-973 2 0 513 c0 281 -5 545 -10 584 -11 88 -44 154 -102 209 -64 61 -107
82 -189 95 -115 17 -146 27 -186 62 -76 67 -73 34 -73 760 l0 647 963 0 963 0
52 26 c39 19 59 38 80 72 l27 47 3 760 c2 541 0 775 -8 813 -13 61 -47 105
-101 132 -38 20 -73 20 -2054 20 -1958 0 -2017 -1 -2053 -19 -42 -22 -63 -43
-86 -88 -14 -28 -16 -80 -16 -393 l0 -360 -272 0 c-150 0 -299 4 -331 10 -84
13 -159 51 -223 112 -68 64 -97 107 -124 187 -20 59 -20 80 -20 1146 l0 1085
56 -45 c30 -25 82 -59 115 -75 103 -53 172 -61 477 -58 l272 3 0 -358 c0 -278
3 -365 14 -390 17 -42 76 -93 123 -107 27 -8 532 -10 1740 -8 l1701 3 43 30
c23 17 53 50 66 74 l23 44 0 782 0 781 -25 50 c-14 28 -40 59 -62 74 l-37 25
-1723 3 c-1576 2 -1726 1 -1756 -14 -45 -23 -66 -44 -88 -86 -18 -34 -19 -64
-19 -398 l0 -360 -252 0 c-139 0 -282 5 -317 10 -151 25 -273 130 -330 285
-13 34 -16 182 -18 1017 l-4 978 486 2 485 3 0 -363 c0 -297 3 -368 14 -391
21 -40 80 -88 123 -101 27 -8 391 -10 1238 -8 l1200 3 44 30 c24 17 54 48 65
70 21 39 21 51 24 825 l2 785 -22 44 c-13 25 -40 59 -61 75 l-39 31 -1224 3
c-1116 2 -1227 1 -1257 -14 -45 -23 -66 -44 -88 -86 -18 -34 -19 -64 -19 -398
l0 -360 -485 0 -485 0 0 989 c0 614 4 1008 10 1041 33 176 172 312 347 340 32
6 172 10 311 10 l252 0 0 -363 0 -363 29 -46 c19 -30 44 -52 73 -67 l44 -21
1205 0 c1146 0 1206 1 1244 19 50 23 91 70 105 121 7 26 10 297 8 819 l-3 779
-30 43 c-16 23 -48 52 -70 63 -40 21 -45 21 -1235 24 -842 2 -1206 0 -1233 -8
-47 -14 -106 -65 -123 -107 -11 -25 -14 -112 -14 -390 l0 -358 -257 3 c-163 2
-286 -1 -333 -8 -93 -15 -197 -62 -272 -124 l-58 -47 0 1060 0 1061 861 0
c587 0 874 3 903 11 56 14 114 62 137 113 18 39 19 89 19 1001 0 630 -4 973
-10 997 -14 50 -55 97 -105 119 -38 18 -88 19 -922 19 l-881 0 -4 393 c-4 364
-6 398 -26 471 -55 201 -204 377 -397 471 -166 81 21 75 -2425 75 l-2180 0 0
360 0 360 2398 0 c2309 0 2398 1 2437 19 48 22 79 54 100 103 13 33 15 179 15
1256 l0 1218 -26 52 c-19 37 -38 59 -68 77 l-43 25 -2446 0 -2447 0 0 654 c0
534 -3 669 -15 739 -43 248 -164 484 -338 660 -184 186 -401 303 -665 357
-100 20 -105 20 -4671 20 l-4571 0 0 395 0 395 2428 2 2427 3 44 25 c24 14 58
42 75 63 l31 39 0 1486 0 1487 -24 36 c-14 20 -41 47 -60 60 l-35 24 -4950 2
c-4075 2 -4956 0 -4981 -11z m9893 -148 c17 -17 17 -2879 0 -2896 -17 -17
-9829 -17 -9846 0 -17 17 -17 2879 0 2896 17 17 9829 17 9846 0z m-10106
-6445 c17 -15 18 -66 18 -1214 0 -1075 -2 -1199 -16 -1213 -14 -15 -476 -16
-4930 -16 -3369 0 -4921 3 -4935 10 -19 10 -19 35 -19 1212 0 1104 1 1203 17
1220 16 17 182 18 4931 18 4560 0 4917 -1 4934 -17z m20380 0 c17 -15 18 -66
18 -1214 0 -1075 -2 -1199 -16 -1213 -14 -15 -476 -16 -4930 -16 -3369 0
-4921 3 -4935 10 -19 10 -19 35 -19 1212 0 1104 1 1203 17 1220 16 17 182 18
4931 18 4560 0 4917 -1 4934 -17z m-26777 -4896 c14 -21 15 -132 13 -966 -3
-824 -5 -943 -18 -951 -9 -6 -1457 -10 -3867 -10 -3799 0 -3852 0 -3863 19 -7
13 -10 331 -10 960 0 841 2 941 16 955 14 15 379 16 3864 16 l3850 0 15 -23z
m9885 4 c16 -30 14 -1903 -2 -1919 -17 -17 -6919 -17 -6936 0 -17 17 -17 1909
0 1926 9 9 794 12 3470 12 3408 0 3457 0 3468 -19z m9624 3 c14 -14 16 -114
16 -955 0 -629 -3 -947 -10 -960 -11 -19 -53 -19 -2843 -19 -2190 0 -2836 3
-2845 12 -17 17 -17 1909 0 1926 9 9 654 12 2839 12 2557 0 2829 -2 2843 -16z
m9276 -3 c16 -30 14 -1903 -2 -1919 -15 -15 -3644 -17 -3668 -2 -13 8 -15 127
-18 951 -2 834 -1 945 13 966 l15 23 1825 0 c1793 0 1824 0 1835 -19z m1702
-3338 c17 -15 18 -52 18 -765 0 -497 -3 -756 -10 -769 -10 -19 -34 -19 -1195
-19 l-1185 0 -15 24 c-14 20 -15 111 -13 768 3 614 5 748 17 761 12 16 108 17
1189 17 1080 0 1177 -1 1194 -17z m-25191 -1903 c19 -11 19 -35 19 -1275 0
-1240 0 -1264 -19 -1275 -14 -7 -960 -10 -2986 -10 -2026 0 -2972 3 -2986 10
-19 11 -19 35 -19 1273 0 969 3 1266 12 1275 16 16 5949 18 5979 2z m8200 -7
c12 -13 14 -222 14 -1270 0 -1230 0 -1255 -19 -1269 -17 -12 -418 -14 -2822
-14 l-2803 0 -15 22 c-14 20 -16 156 -16 1263 0 1107 2 1243 16 1263 l15 22
2808 0 c2600 0 2810 -1 2822 -17z m17047 -615 c9 -9 12 -193 12 -767 0 -688
-1 -756 -17 -773 -15 -17 -65 -18 -1190 -18 -1160 0 -1173 0 -1193 20 -20 20
-20 33 -20 759 0 457 4 750 10 765 l10 26 1188 0 c911 0 1191 -3 1200 -12z
m950 -2440 c9 -9 12 -194 12 -769 0 -675 -2 -759 -16 -773 -14 -14 -181 -16
-1688 -16 -1428 0 -1675 2 -1692 14 -18 14 -19 35 -22 762 -2 659 -1 750 13
770 l15 24 1683 0 c1296 0 1686 -3 1695 -12z m662 -2517 c7 -13 10 -270 10
-763 0 -657 -2 -746 -16 -766 l-15 -22 -1980 0 c-1972 0 -1979 0 -1999 20 -20
20 -20 30 -18 776 3 658 5 756 18 764 9 6 768 10 2002 10 1955 0 1987 0 1998
-19z m-2476 -2617 c14 -14 16 -81 16 -594 0 -513 -2 -580 -16 -594 -14 -14
-209 -16 -1994 -16 -1785 0 -1980 2 -1994 16 -14 14 -16 81 -16 594 0 513 2
580 16 594 14 14 209 16 1994 16 1785 0 1980 -2 1994 -16z m3020 -2120 c14
-14 16 -81 16 -594 0 -513 -2 -580 -16 -594 -14 -14 -209 -16 -1994 -16 -1785
0 -1980 2 -1994 16 -14 14 -16 81 -16 594 0 513 2 580 16 594 14 14 209 16
1994 16 1785 0 1980 -2 1994 -16z"/>
<path d="M21828 29392 l-26 -47 18 -55 c16 -48 87 -502 105 -678 l7 -62 -39
-16 c-51 -22 -252 -31 -322 -14 -28 6 -62 21 -76 32 l-25 20 35 40 c93 110 27
208 -140 208 -80 0 -134 -21 -177 -66 -32 -34 -63 -113 -49 -127 5 -5 11 -4
15 2 4 6 25 11 46 11 30 0 48 -7 72 -29 l32 -29 -42 -21 c-68 -35 -150 -51
-254 -51 l-98 0 34 45 c21 26 39 67 47 99 10 48 10 58 -7 92 -34 70 -122 109
-225 102 -80 -6 -166 -64 -312 -211 -106 -107 -121 -118 -144 -112 -35 8 -113
87 -113 113 0 38 -18 33 -44 -11 -32 -55 -72 -91 -115 -106 -44 -14 -133 -14
-183 1 -52 16 -98 68 -98 113 0 39 -15 47 -24 13 -9 -36 -66 -99 -105 -115
-20 -9 -83 -19 -140 -24 -86 -7 -116 -14 -168 -39 -69 -34 -115 -82 -139 -147
-31 -80 2 -115 131 -143 69 -15 106 -31 102 -44 -7 -21 -138 -94 -219 -121
-136 -45 -299 -45 -388 0 -37 20 -89 74 -113 119 -31 59 -28 158 7 254 15 41
25 76 23 78 -9 9 -48 -55 -74 -118 -50 -123 -40 -264 25 -354 70 -96 218 -147
361 -124 107 17 232 65 315 120 93 63 119 99 124 171 5 68 4 69 -132 108 -181
53 -129 99 137 121 122 10 178 33 212 87 11 18 22 32 25 33 3 0 14 -13 23 -30
62 -105 266 -118 375 -24 l43 37 27 -26 c15 -13 42 -32 60 -41 28 -14 31 -20
26 -44 -10 -42 -10 -44 3 -49 7 -2 19 12 27 32 14 32 19 35 38 28 33 -11 752
-4 818 9 59 11 136 46 187 84 17 13 35 24 39 24 3 0 22 -14 42 -31 63 -56 132
-80 240 -86 160 -9 258 21 295 91 33 61 29 212 -12 500 l-33 229 20 43 c21 42
21 42 1 60 -10 9 -30 41 -44 71 -14 29 -27 53 -28 53 -1 0 -14 -21 -29 -48z
m-1014 -663 c21 -6 57 -28 80 -50 l41 -39 -25 -22 c-65 -55 -220 -102 -373
-114 -132 -9 -141 -2 -81 65 51 56 148 130 204 154 42 18 101 21 154 6z"/>
<path d="M25415 29393 c-24 -42 -26 -52 -15 -78 6 -16 16 -46 20 -65 8 -33 81
-532 95 -648 l6 -53 -38 -17 c-57 -25 -354 -25 -400 1 -37 20 -53 44 -53 82 0
26 2 26 39 20 40 -7 40 -6 65 44 14 28 26 53 26 56 0 3 -26 5 -57 5 -98 1
-262 27 -392 64 -208 60 -261 58 -320 -9 -29 -33 -60 -109 -49 -120 3 -3 29 7
58 22 42 22 65 27 119 26 65 0 231 -38 231 -53 0 -11 -207 -106 -285 -130 -50
-15 -105 -23 -195 -26 -69 -2 -151 -6 -182 -7 l-58 -3 20 20 c41 45 64 117 65
201 0 155 -38 183 -124 89 -55 -60 -99 -143 -128 -241 l-18 -63 -100 0 c-115
0 -156 15 -191 67 -27 40 -39 105 -64 359 -19 186 -54 415 -69 458 -6 15 -12
8 -30 -34 l-23 -52 21 -102 c11 -55 27 -168 36 -251 40 -376 49 -420 94 -482
38 -53 89 -75 183 -81 63 -4 75 -7 71 -20 -5 -12 0 -14 30 -9 36 6 37 5 48
-36 16 -60 36 -97 78 -140 47 -50 80 -67 131 -67 56 0 78 14 101 63 24 54 24
123 0 168 l-20 36 132 5 c168 7 247 31 417 129 121 69 191 100 256 112 l31 6
5 -64 c12 -149 89 -193 323 -182 166 7 223 38 252 136 19 66 15 137 -27 436
-35 248 -36 261 -10 300 l19 30 -24 25 c-13 14 -33 46 -45 73 -11 26 -23 47
-25 47 -2 0 -15 -21 -30 -47z m-1368 -663 c7 -10 15 -37 19 -58 5 -35 3 -41
-26 -66 -35 -29 -122 -76 -140 -76 -24 0 38 142 83 188 36 37 48 39 64 12z m3
-403 c76 -38 94 -61 66 -83 -28 -20 -85 -17 -123 6 -32 19 -93 94 -93 113 0
17 83 -2 150 -36z"/>
<path d="M22179 29328 l-23 -62 48 -357 c26 -196 50 -391 53 -433 3 -42 9 -79
13 -81 15 -9 31 60 37 150 4 72 -3 151 -36 390 -22 165 -44 335 -47 378 -4 42
-10 77 -14 77 -4 0 -18 -28 -31 -62z"/>
<path d="M25769 29328 l-23 -62 48 -357 c26 -196 50 -391 53 -433 3 -42 9 -79
13 -81 15 -9 31 60 37 150 4 72 -3 151 -36 390 -22 165 -44 335 -47 378 -4 42
-10 77 -14 77 -4 0 -18 -28 -31 -62z"/>
<path d="M22942 28991 c-18 -22 -32 -42 -32 -44 0 -3 23 -24 51 -48 l51 -43
34 40 c18 21 33 44 34 49 0 10 -87 85 -100 85 -4 0 -21 -18 -38 -39z"/>
<path d="M23075 28708 c-3 -7 -9 -31 -13 -53 -8 -37 -5 -44 34 -100 63 -91 86
-142 79 -175 -10 -45 -100 -166 -157 -211 -107 -84 -208 -121 -338 -123 -77
-1 -95 -4 -95 -16 0 -10 23 -21 70 -33 76 -20 225 -18 297 3 85 25 189 141
240 268 18 45 23 76 23 152 0 86 -3 101 -32 162 -34 72 -79 138 -95 138 -5 0
-11 -6 -13 -12z"/>
<path d="M24630 28273 l-34 -45 29 -25 c75 -62 74 -62 111 -18 19 21 34 42 34
46 0 7 -94 89 -101 89 -2 0 -20 -21 -39 -47z"/>
<path d="M19641 28238 l-32 -43 47 -42 c27 -24 52 -43 55 -43 11 0 71 79 67
89 -4 11 -88 81 -97 81 -4 0 -22 -19 -40 -42z"/>
<path d="M19075 27750 c-15 -22 -32 -40 -37 -40 -6 0 -27 14 -48 30 -21 17
-42 30 -47 30 -10 0 -78 -89 -72 -94 2 -1 26 -19 54 -40 l50 -37 36 42 36 43
45 -37 c25 -20 48 -37 51 -37 3 0 20 21 38 46 l32 46 -29 24 c-16 13 -41 33
-55 44 l-27 20 -27 -40z"/>
<path d="M10321 22837 c-19 -31 -20 -37 -7 -68 13 -33 76 -438 76 -492 0 -17
-8 -30 -21 -38 -24 -13 -289 -25 -289 -13 0 4 9 18 21 30 25 27 48 90 41 116
-8 33 -61 62 -122 66 -63 5 -97 -8 -165 -62 -22 -18 -44 -35 -50 -38 -6 -4 -9
25 -6 80 2 48 -2 136 -9 195 -10 88 -10 113 0 132 12 22 11 28 -6 46 -10 11
-24 33 -30 47 l-11 27 -17 -34 c-15 -29 -16 -40 -7 -71 20 -66 51 -293 51
-372 l0 -76 -47 -46 c-41 -39 -54 -46 -88 -46 -55 0 -104 15 -132 41 -28 27
-33 23 -40 -29 -5 -36 -3 -41 26 -58 17 -10 31 -25 31 -33 0 -32 -44 -103 -91
-145 -61 -55 -139 -85 -244 -95 -77 -7 -79 -8 -50 -21 51 -22 198 -25 250 -5
65 24 120 91 147 179 12 39 25 75 29 80 4 5 178 9 386 10 344 1 381 3 415 19
70 35 76 99 38 376 -19 137 -21 170 -10 198 10 29 9 37 -4 52 -8 9 -21 32 -29
50 l-14 33 -22 -35z m-270 -489 c22 -12 39 -27 39 -34 0 -28 -163 -77 -295
-89 l-70 -6 55 51 c103 95 194 122 271 78z"/>
<path d="M13202 22833 c-14 -27 -18 -43 -11 -50 12 -12 65 -336 75 -454 6 -69
5 -78 -12 -87 -54 -27 -251 -19 -282 12 -14 14 -14 18 5 38 25 27 37 68 29 96
-16 50 -151 70 -213 32 -33 -20 -56 -50 -67 -86 -6 -19 -3 -21 34 -20 28 0 46
-5 61 -20 l20 -21 -49 -21 c-48 -21 -222 -42 -222 -28 0 4 9 19 21 35 26 35
40 97 29 126 -19 51 -111 93 -173 79 -51 -11 -132 -70 -211 -155 -40 -43 -78
-79 -84 -79 -19 0 -74 53 -87 83 l-12 30 -24 -43 c-31 -55 -62 -70 -147 -70
-59 0 -73 3 -96 25 -18 16 -26 34 -26 57 l0 33 -26 -43 c-31 -52 -67 -72 -142
-76 -97 -6 -143 -24 -189 -71 -50 -52 -64 -99 -37 -125 11 -10 52 -28 92 -40
39 -11 72 -23 72 -25 0 -11 -87 -59 -149 -82 -51 -20 -85 -26 -151 -27 -103 0
-155 22 -197 85 -33 50 -36 121 -9 193 25 66 13 69 -20 4 -39 -76 -45 -179
-14 -243 29 -59 85 -100 158 -116 47 -10 70 -9 133 3 141 29 258 104 281 180
15 51 -3 70 -87 93 -35 9 -69 23 -76 31 -18 21 45 43 155 53 102 10 124 18
154 56 l20 25 34 -34 c60 -60 171 -61 238 0 l37 34 23 -25 c13 -14 32 -27 42
-31 15 -4 18 -12 13 -35 -8 -33 7 -39 21 -8 9 20 15 21 289 20 308 -2 343 3
425 58 l44 29 39 -33 c49 -43 118 -59 212 -52 96 7 129 25 151 82 19 52 17 92
-17 339 -17 120 -18 154 -9 177 10 22 10 32 1 43 -7 8 -20 31 -30 52 l-19 38
-20 -41z m-683 -461 c19 -10 41 -28 49 -40 12 -19 10 -22 -30 -45 -72 -42
-256 -77 -303 -57 -18 7 -15 13 37 63 97 93 175 118 247 79z"/>
<path d="M15696 22835 c-15 -28 -17 -39 -7 -62 9 -24 55 -312 75 -476 5 -45 4
-48 -22 -59 -38 -15 -251 -15 -280 1 -23 12 -44 49 -35 64 2 4 17 7 32 7 20 0
31 7 39 25 18 40 16 43 -45 49 -100 10 -184 26 -271 52 -97 28 -132 30 -171 9
-28 -14 -61 -68 -61 -98 0 -12 6 -12 37 4 46 24 119 24 193 0 l55 -17 -70 -36
c-102 -52 -165 -68 -302 -75 l-121 -6 25 51 c39 79 31 202 -13 202 -36 0 -99
-92 -134 -195 l-17 -50 -66 -1 c-81 0 -121 15 -141 55 -10 19 -26 115 -41 248
-14 120 -31 243 -38 273 l-13 55 -16 -40 c-14 -35 -14 -48 -2 -105 7 -36 22
-146 33 -245 11 -99 26 -196 32 -215 24 -71 82 -110 164 -110 28 0 44 -4 40
-10 -4 -6 5 -10 20 -10 16 0 28 -7 31 -17 25 -85 90 -153 147 -153 62 0 102
84 73 153 l-15 37 72 0 c119 0 178 19 357 117 41 23 91 45 111 48 l36 7 7 -52
c13 -98 71 -128 234 -118 178 11 195 57 147 397 -22 160 -23 177 -8 204 9 19
11 32 5 36 -6 3 -21 25 -34 48 l-24 42 -18 -34z m-941 -490 c8 -35 7 -39 -20
-61 -35 -28 -83 -49 -92 -41 -10 10 26 93 53 122 31 34 46 29 59 -20z m-5
-248 c58 -28 63 -60 9 -65 -41 -3 -81 23 -105 70 l-16 30 34 -7 c18 -4 53 -16
78 -28z"/>
<path d="M10566 22797 c-18 -48 -18 -49 13 -280 17 -128 35 -266 39 -307 8
-70 9 -73 20 -47 19 46 14 174 -18 420 -17 128 -32 239 -33 247 -1 8 -11 -7
-21 -33z"/>
<path d="M15947 22808 c-23 -50 -22 -75 12 -332 16 -122 32 -248 36 -281 5
-45 9 -55 17 -42 23 42 20 154 -11 377 -16 124 -32 245 -33 270 l-4 45 -17
-37z"/>
<path d="M13452 22803 c-6 -16 -13 -35 -15 -45 -3 -9 7 -110 23 -225 15 -114
31 -239 35 -278 3 -38 9 -81 12 -95 5 -25 5 -25 14 -3 22 58 20 143 -10 358
-17 121 -31 241 -31 268 0 52 -12 61 -28 20z"/>
<path d="M8962 22717 c-12 -13 -22 -26 -22 -29 0 -3 16 -18 35 -32 l35 -27 25
28 25 28 -30 28 c-37 33 -41 33 -68 4z"/>
<path d="M13981 22566 c-28 -30 -27 -39 13 -70 l35 -26 21 31 c22 29 22 31 4
50 -33 37 -49 40 -73 15z"/>
<path d="M8982 22498 c-28 -31 -42 -71 -42 -123 0 -35 5 -48 26 -64 37 -29 70
-26 104 7 28 28 29 28 34 8 12 -46 6 -57 -41 -78 -34 -15 -73 -21 -150 -24
-78 -3 -116 -9 -154 -26 -96 -40 -144 -150 -81 -182 15 -7 43 -17 62 -21 19
-4 46 -12 59 -17 22 -8 23 -10 7 -27 -9 -10 -47 -32 -84 -49 -271 -125 -488 1
-401 233 29 78 16 81 -20 6 -79 -168 -29 -312 125 -357 95 -27 229 2 343 76
64 41 91 80 91 129 0 24 -7 34 -30 46 -16 8 -36 15 -44 15 -29 0 -96 32 -96
46 0 21 64 34 202 44 192 12 238 44 246 166 5 76 -14 137 -58 184 -34 36 -68
39 -98 8z m74 -79 c18 -20 18 -21 -1 -35 -10 -8 -26 -14 -35 -14 -9 0 -25 6
-35 14 -19 14 -19 15 -1 35 11 12 27 21 36 21 9 0 25 -9 36 -21z"/>
<path d="M14063 22343 c-8 -35 -6 -43 28 -93 21 -30 40 -67 44 -81 13 -53 -66
-159 -157 -213 -58 -34 -161 -60 -209 -52 -46 7 -61 -10 -22 -25 47 -17 145
-22 207 -9 75 15 133 67 179 159 28 57 32 76 32 141 -1 61 -6 84 -27 125 -14
28 -35 58 -46 68 -19 18 -20 17 -29 -20z"/>
<path d="M15149 22059 l-22 -32 34 -28 c19 -16 36 -28 39 -28 3 0 15 13 28 29
l23 29 -33 30 c-18 17 -36 31 -40 31 -4 0 -17 -14 -29 -31z"/>
<path d="M11680 22031 l-20 -30 35 -27 36 -27 27 27 27 27 -33 30 c-18 16 -36
29 -41 29 -6 0 -19 -13 -31 -29z"/>
<path d="M8582 21689 l-23 -29 -34 25 -33 26 -21 -27 c-27 -35 -26 -44 11 -74
l31 -24 26 31 26 31 28 -24 c36 -31 41 -30 66 5 l21 29 -35 31 c-20 17 -37 31
-38 30 -1 0 -12 -13 -25 -30z"/>
<path d="M11287 21689 l-24 -31 -33 28 c-32 27 -33 27 -47 8 -35 -46 -35 -52
3 -80 l35 -27 24 29 23 29 31 -22 c38 -29 45 -29 65 2 22 33 21 36 -18 67
l-35 28 -24 -31z"/>
<path d="M29805 22906 c-256 -115 -304 -143 -337 -195 -20 -33 -28 -57 -28
-92 0 -55 15 -74 69 -89 26 -7 57 -30 103 -77 66 -69 90 -105 102 -156 6 -26
3 -29 -41 -49 -38 -17 -72 -22 -166 -25 -120 -3 -168 7 -207 42 -15 14 -18 11
-28 -22 -10 -31 -9 -40 5 -55 8 -10 24 -20 34 -23 26 -9 24 -32 -11 -91 -56
-99 -163 -160 -302 -173 -80 -7 -82 -8 -53 -21 44 -19 177 -25 229 -10 24 6
61 26 81 43 40 33 90 125 100 187 l6 38 127 4 c147 4 210 26 239 82 62 117
-38 293 -246 433 -20 13 195 129 396 214 60 25 83 40 87 56 3 11 9 28 12 37 3
9 2 16 -2 15 -5 0 -81 -33 -169 -73z"/>
<path d="M30971 22837 c-19 -31 -20 -37 -7 -68 13 -33 76 -438 76 -492 0 -15
-7 -30 -17 -35 -31 -16 -116 -22 -187 -12 -65 8 -72 12 -120 59 -28 28 -60 51
-70 51 -11 0 -45 -25 -77 -55 -32 -30 -66 -56 -76 -56 -127 -8 -173 0 -214 37
-16 14 -18 12 -29 -22 -13 -37 -12 -38 25 -70 l38 -32 -27 -55 c-52 -108 -167
-176 -313 -185 -84 -5 -85 -5 -57 -20 18 -10 65 -17 121 -20 86 -4 97 -2 149
23 69 34 105 81 135 180 l24 75 50 0 c49 0 126 27 140 49 4 8 16 3 36 -13 33
-28 121 -58 144 -49 8 3 15 12 15 20 0 12 7 13 33 6 60 -15 209 -9 249 10 70
35 76 98 38 376 -19 137 -21 170 -10 198 10 29 9 37 -4 52 -8 9 -21 32 -29 50
l-14 33 -22 -35z m-304 -582 c12 -22 20 -41 18 -43 -5 -6 -95 36 -95 44 0 14
33 45 44 41 6 -2 21 -21 33 -42z"/>
<path d="M33852 22833 c-14 -27 -18 -43 -11 -50 12 -12 65 -336 75 -454 6 -69
5 -78 -12 -87 -54 -27 -251 -19 -282 12 -14 14 -14 18 5 38 25 27 37 68 29 96
-16 50 -151 70 -213 32 -33 -20 -56 -50 -67 -86 -6 -19 -3 -21 34 -20 28 0 46
-5 61 -20 l20 -21 -49 -21 c-48 -21 -222 -42 -222 -28 0 4 9 19 21 35 26 35
40 97 29 126 -19 51 -111 93 -173 79 -51 -11 -132 -70 -211 -155 -40 -43 -78
-79 -84 -79 -19 0 -74 53 -87 83 l-12 30 -24 -43 c-31 -55 -62 -70 -147 -70
-59 0 -73 3 -96 25 -18 16 -26 34 -26 57 l0 33 -26 -43 c-31 -52 -67 -72 -142
-76 -97 -6 -143 -24 -189 -71 -50 -52 -64 -99 -37 -125 11 -10 52 -28 92 -40
39 -11 72 -23 72 -25 0 -11 -87 -59 -149 -82 -51 -20 -85 -26 -151 -27 -103 0
-155 22 -197 85 -33 50 -36 121 -9 193 25 66 13 69 -20 4 -39 -76 -45 -179
-14 -243 29 -59 85 -100 158 -116 47 -10 70 -9 133 3 141 29 258 104 281 180
15 51 -3 70 -87 93 -35 9 -69 23 -76 31 -18 21 45 43 155 53 102 10 124 18
154 56 l20 25 34 -34 c60 -60 171 -61 238 0 l37 34 23 -25 c13 -14 32 -27 42
-31 15 -4 18 -12 13 -35 -8 -33 7 -39 21 -8 9 20 15 21 289 20 308 -2 343 3
425 58 l44 29 39 -33 c49 -43 118 -59 212 -52 96 7 129 25 151 82 19 52 17 92
-17 339 -17 120 -18 154 -9 177 10 22 10 32 1 43 -7 8 -20 31 -30 52 l-19 38
-20 -41z m-683 -461 c19 -10 41 -28 49 -40 12 -19 10 -22 -30 -45 -72 -42
-256 -77 -303 -57 -18 7 -15 13 37 63 97 93 175 118 247 79z"/>
<path d="M36346 22835 c-15 -28 -17 -39 -7 -62 9 -24 55 -312 75 -476 5 -45 4
-48 -22 -59 -38 -15 -251 -15 -280 1 -23 12 -44 49 -35 64 2 4 17 7 32 7 20 0
31 7 39 25 18 40 16 43 -45 49 -100 10 -184 26 -271 52 -97 28 -132 30 -171 9
-28 -14 -61 -68 -61 -98 0 -12 6 -12 37 4 46 24 119 24 193 0 l55 -17 -70 -36
c-102 -52 -165 -68 -302 -75 l-121 -6 25 51 c39 79 31 202 -13 202 -36 0 -99
-92 -134 -195 l-17 -50 -66 -1 c-81 0 -121 15 -141 55 -10 19 -26 115 -41 248
-14 120 -31 243 -38 273 l-13 55 -16 -40 c-14 -35 -14 -48 -2 -105 7 -36 22
-146 33 -245 11 -99 26 -196 32 -215 24 -71 82 -110 164 -110 28 0 44 -4 40
-10 -4 -6 5 -10 20 -10 16 0 28 -7 31 -17 25 -85 90 -153 147 -153 62 0 102
84 73 153 l-15 37 72 0 c119 0 178 19 357 117 41 23 91 45 111 48 l36 7 7 -52
c13 -98 71 -128 234 -118 178 11 195 57 147 397 -22 160 -23 177 -8 204 9 19
11 32 5 36 -6 3 -21 25 -34 48 l-24 42 -18 -34z m-941 -490 c8 -35 7 -39 -20
-61 -35 -28 -83 -49 -92 -41 -10 10 26 93 53 122 31 34 46 29 59 -20z m-5
-248 c58 -28 63 -60 9 -65 -41 -3 -81 23 -105 70 l-16 30 34 -7 c18 -4 53 -16
78 -28z"/>
<path d="M31216 22797 c-18 -48 -18 -49 13 -280 17 -128 35 -266 39 -307 8
-70 9 -73 20 -47 19 46 14 174 -18 420 -17 128 -32 239 -33 247 -1 8 -11 -7
-21 -33z"/>
<path d="M36597 22808 c-23 -50 -22 -75 12 -332 16 -122 32 -248 36 -281 5
-45 9 -55 17 -42 23 42 20 154 -11 377 -16 124 -32 245 -33 270 l-4 45 -17
-37z"/>
<path d="M34102 22803 c-6 -16 -13 -35 -15 -45 -3 -9 7 -110 23 -225 15 -114
31 -239 35 -278 3 -38 9 -81 12 -95 5 -25 5 -25 14 -3 22 58 20 143 -10 358
-17 121 -31 241 -31 268 0 52 -12 61 -28 20z"/>
<path d="M28869 22580 c-43 -23 -111 -95 -137 -147 -60 -118 -25 -190 103
-207 67 -10 125 -25 125 -34 0 -14 -86 -60 -160 -87 -107 -39 -225 -41 -295
-4 -90 46 -118 139 -75 250 12 28 19 54 17 56 -10 9 -48 -68 -63 -127 -49
-191 86 -318 298 -282 128 22 285 111 307 174 27 78 7 100 -109 118 -135 20
-167 60 -111 138 65 88 162 121 207 69 13 -15 26 -27 29 -27 3 0 5 20 5 45 0
80 -60 108 -141 65z"/>
<path d="M34631 22566 c-28 -30 -27 -39 13 -70 l35 -26 21 31 c22 29 22 31 4
50 -33 37 -49 40 -73 15z"/>
<path d="M29199 22479 l-22 -32 34 -28 34 -28 23 21 c12 12 22 27 22 33 0 12
-51 65 -62 65 -4 0 -17 -14 -29 -31z"/>
<path d="M34713 22343 c-8 -35 -6 -43 28 -93 21 -30 40 -67 44 -81 13 -53 -66
-159 -157 -213 -58 -34 -161 -60 -209 -52 -46 7 -61 -10 -22 -25 47 -17 145
-22 207 -9 75 15 133 67 179 159 28 57 32 76 32 141 -1 61 -6 84 -27 125 -14
28 -35 58 -46 68 -19 18 -20 17 -29 -20z"/>
<path d="M35799 22059 l-22 -32 34 -28 c19 -16 36 -28 39 -28 3 0 15 13 28 29
l23 29 -33 30 c-18 17 -36 31 -40 31 -4 0 -17 -14 -29 -31z"/>
<path d="M32330 22031 l-20 -30 35 -27 36 -27 27 27 27 27 -33 30 c-18 16 -36
29 -41 29 -6 0 -19 -13 -31 -29z"/>
<path d="M28694 21893 l-21 -26 -32 24 -33 24 -24 -30 c-13 -16 -24 -32 -24
-35 1 -3 17 -17 37 -33 l37 -27 19 30 c10 16 21 30 24 30 2 0 19 -11 37 -25
31 -24 34 -24 48 -8 30 36 31 44 2 74 -34 35 -43 35 -70 2z"/>
<path d="M31937 21689 l-24 -31 -33 28 c-32 27 -33 27 -47 8 -35 -46 -35 -52
3 -80 l35 -27 24 29 23 29 31 -22 c38 -29 45 -29 65 2 22 33 21 36 -18 67
l-35 28 -24 -31z"/>
<path d="M5512 18115 c-9 -19 -8 -38 3 -83 7 -31 24 -130 36 -220 16 -125 19
-166 10 -175 -8 -8 -52 -12 -127 -12 -103 0 -117 2 -130 19 -21 29 -17 46 11
46 22 0 45 24 45 48 0 5 -35 12 -78 16 -42 3 -118 17 -167 31 -138 38 -178 31
-205 -35 -16 -39 -11 -44 29 -24 36 18 112 15 166 -6 l30 -12 -45 -24 c-102
-54 -242 -80 -290 -54 -10 5 -24 26 -30 45 l-12 36 -21 -43 c-20 -38 -26 -43
-55 -41 -45 2 -63 19 -55 51 6 24 2 22 -34 -16 -36 -37 -45 -42 -86 -42 l-46
0 15 36 c18 43 13 54 -9 21 -22 -34 -77 -57 -135 -57 -68 0 -100 14 -143 61
-20 21 -42 39 -49 39 -6 0 -31 -20 -55 -45 -45 -46 -55 -50 -143 -59 -30 -3
-70 -13 -90 -23 -44 -22 -84 -78 -80 -113 3 -21 12 -28 65 -45 34 -11 63 -24
65 -30 5 -16 -121 -75 -179 -84 -98 -15 -169 8 -216 71 -23 31 -24 96 -3 157
23 62 13 62 -18 0 -30 -61 -35 -152 -11 -198 19 -38 66 -77 111 -91 133 -44
389 85 359 181 -4 12 -27 25 -68 37 -78 23 -86 45 -23 61 25 6 65 11 89 11 30
0 55 8 80 25 23 15 39 20 43 13 10 -16 86 -48 115 -48 15 0 29 6 32 14 4 11
13 12 46 3 30 -8 54 -8 93 1 59 14 54 14 122 6 39 -5 53 -2 77 15 l29 21 37
-20 c51 -27 89 -26 104 3 6 12 13 23 14 25 2 2 14 -8 28 -22 31 -31 100 -42
172 -28 56 12 77 21 208 90 100 54 113 54 122 1 4 -22 17 -52 30 -67 22 -26
27 -27 127 -27 181 0 194 24 158 295 -19 145 -21 182 -11 194 11 13 9 20 -8
42 -12 15 -21 33 -21 40 0 22 -16 16 -28 -11z m-1353 -470 c23 -39 17 -42 -34
-18 -39 19 -43 27 -17 42 26 15 28 14 51 -24z"/>
<path d="M7866 18115 c-12 -19 -14 -30 -6 -44 5 -11 21 -93 34 -183 39 -262
38 -248 9 -259 -34 -13 -177 -11 -208 3 -30 14 -31 21 -4 58 30 40 20 77 -28
97 -72 30 -154 0 -181 -67 -13 -32 -12 -32 9 -27 20 5 79 -16 79 -29 0 -3 -19
-13 -42 -23 -40 -17 -178 -38 -178 -27 0 3 9 20 20 38 21 35 26 88 10 117 -10
20 -78 51 -111 51 -40 0 -106 -44 -182 -123 l-78 -80 -27 20 c-15 11 -33 32
-41 47 l-13 28 -18 -30 c-28 -46 -58 -62 -116 -62 -61 0 -101 26 -106 68 l-3
27 -18 -32 c-21 -40 -63 -63 -114 -63 -64 0 -116 -20 -156 -61 -31 -31 -38
-44 -35 -71 3 -31 7 -34 65 -53 34 -11 63 -24 65 -30 4 -17 -123 -74 -185 -84
-108 -16 -185 12 -219 80 -22 42 -23 83 -3 139 21 60 10 63 -16 6 -32 -74 -35
-142 -7 -196 57 -110 193 -129 355 -50 77 38 115 81 111 124 -3 29 -8 33 -71
55 -37 13 -66 29 -64 35 5 16 74 34 130 35 58 1 112 22 126 49 11 20 12 20 39
-8 50 -49 139 -52 196 -7 l29 24 34 -21 c25 -16 32 -27 29 -43 -4 -27 2 -29
18 -8 9 13 52 16 262 18 l251 2 52 33 53 32 29 -24 c78 -66 266 -59 298 10 16
36 13 130 -8 279 -16 112 -17 134 -5 157 10 19 11 29 3 34 -6 3 -19 19 -28 35
l-18 30 -17 -26z m-556 -375 c8 -5 23 -17 33 -28 18 -20 18 -21 -25 -46 -24
-13 -64 -30 -91 -35 -50 -12 -154 -17 -163 -9 -9 10 117 118 149 127 32 9 68
5 97 -9z"/>
<path d="M9902 18115 c-8 -17 -8 -33 -2 -50 11 -29 60 -351 60 -395 0 -40 -26
-50 -139 -50 -74 0 -93 3 -115 21 -33 26 -34 49 -1 49 17 0 29 9 39 29 l15 28
-82 7 c-45 3 -122 17 -172 31 -137 38 -165 33 -199 -33 -21 -41 -17 -47 20
-27 16 8 43 15 61 15 40 0 133 -21 133 -30 0 -6 -98 -53 -155 -75 -11 -4 -70
-11 -131 -14 l-110 -6 18 31 c35 60 32 174 -5 174 -32 0 -117 -132 -117 -182
0 -15 -10 -18 -70 -18 -108 0 -120 20 -140 230 -10 113 -25 216 -37 254 -5 18
-7 17 -20 -7 -11 -21 -11 -36 -3 -66 6 -22 19 -116 30 -209 25 -223 44 -261
140 -270 27 -2 50 -9 50 -14 0 -5 8 -7 19 -3 14 4 22 -4 35 -39 45 -118 176
-132 176 -18 0 18 -5 42 -10 53 -10 18 -7 19 48 19 85 0 165 24 264 81 48 28
103 53 123 56 35 6 35 5 35 -31 0 -75 44 -106 152 -106 177 0 197 41 159 318
-15 107 -19 158 -12 171 8 14 5 29 -12 60 -12 22 -25 41 -28 41 -3 0 -11 -11
-17 -25z m-766 -390 c3 -14 4 -32 1 -40 -7 -16 -86 -59 -94 -51 -8 7 16 62 39
91 25 32 46 32 54 0z m0 -211 c41 -19 42 -47 3 -52 -27 -3 -72 27 -90 60 -11
20 -9 21 21 15 17 -4 47 -14 66 -23z"/>
<path d="M8070 18091 c-15 -36 -15 -33 26 -366 20 -164 23 -178 34 -150 15 36
10 136 -18 345 -27 195 -28 203 -42 171z"/>
<path d="M10110 18095 c-17 -39 -15 -75 15 -293 14 -101 25 -199 25 -218 0
-53 18 -31 25 31 5 36 -1 118 -19 252 -14 109 -27 212 -29 228 l-3 30 -14 -30z"/>
<path d="M5710 18073 c-8 -31 -4 -87 23 -283 24 -178 36 -238 42 -220 14 41 9
157 -14 312 -11 82 -21 166 -21 188 0 50 -16 52 -30 3z"/>
<path d="M8500 17895 l-22 -24 28 -25 29 -25 23 21 c27 27 27 28 -7 55 l-28
22 -23 -24z"/>
<path d="M8568 17713 c-2 -18 6 -43 24 -70 48 -72 50 -86 19 -135 -60 -94
-153 -148 -257 -148 -67 0 -77 -14 -19 -29 133 -33 235 9 289 122 36 74 42
125 22 185 -17 51 -50 102 -66 102 -5 0 -10 -12 -12 -27z"/>
<path d="M5066 17485 c-21 -31 -21 -30 14 -55 l29 -21 17 26 c13 21 14 28 4
41 -27 32 -47 35 -64 9z"/>
<path d="M9461 17486 l-23 -25 28 -25 c27 -22 30 -23 47 -9 23 21 22 35 -6 61
l-23 22 -23 -24z"/>
<path d="M6624 17459 c-19 -21 -19 -21 11 -45 27 -21 31 -22 47 -7 23 20 23
36 0 56 -24 22 -35 21 -58 -4z"/>
<path d="M3624 17175 c-17 -26 -16 -27 10 -53 l26 -27 23 28 22 29 19 -21 c25
-27 40 -26 60 3 15 24 15 26 -15 47 l-31 22 -21 -21 c-20 -21 -20 -21 -48 -1
l-28 20 -17 -26z"/>
<path d="M6207 17170 c-17 -28 -17 -29 13 -50 l30 -22 19 23 c18 23 19 23 46
5 28 -19 29 -18 47 4 18 23 18 23 -3 47 -28 29 -36 29 -59 1 -17 -21 -19 -22
-37 -7 -32 28 -39 28 -56 -1z"/>
<path d="M15476 18115 c-12 -19 -14 -30 -6 -44 5 -11 21 -93 34 -183 39 -262
38 -248 9 -259 -34 -13 -157 -11 -188 3 -36 16 -59 59 -89 162 -14 49 -28 91
-30 93 -2 3 -7 -9 -11 -26 -4 -19 2 -56 15 -102 l22 -73 -22 -18 c-41 -33
-170 -53 -185 -28 -14 22 -26 8 -23 -27 4 -48 34 -59 115 -43 43 9 66 21 91
46 19 19 35 33 36 32 46 -76 81 -98 158 -98 71 0 132 23 147 56 16 36 13 130
-8 279 -16 112 -17 134 -5 157 10 19 11 29 3 34 -6 3 -19 19 -28 35 l-18 30
-17 -26z"/>
<path d="M17832 18115 c-9 -19 -8 -38 3 -83 7 -31 24 -130 36 -220 16 -125 19
-166 10 -175 -18 -18 -213 -16 -234 2 -15 12 -15 15 3 38 11 14 20 38 20 53 0
85 -172 93 -215 9 -21 -40 -19 -48 15 -47 37 1 65 -19 50 -37 -19 -23 -200
-57 -200 -38 0 5 9 26 20 48 11 22 20 50 20 63 0 35 -49 78 -98 87 -62 10
-116 -21 -208 -117 -76 -81 -76 -82 -102 -66 -15 9 -34 30 -43 47 l-17 32 -22
-36 c-28 -45 -47 -55 -107 -55 -63 0 -95 18 -109 60 -10 30 -12 31 -18 14 -14
-44 -53 -67 -127 -75 -38 -5 -87 -16 -107 -26 -44 -22 -84 -78 -80 -113 3 -21
12 -28 65 -45 34 -11 63 -24 65 -30 5 -16 -121 -75 -179 -84 -98 -15 -169 8
-216 71 -23 31 -24 96 -3 157 23 62 13 62 -18 0 -30 -61 -35 -152 -11 -198 19
-38 66 -77 111 -91 133 -44 389 85 359 181 -4 12 -27 25 -68 37 -78 23 -86 45
-23 61 25 6 63 11 85 11 48 0 89 14 119 42 l22 22 28 -27 c50 -48 135 -48 192
-1 l30 26 32 -27 c23 -20 32 -35 30 -51 -4 -29 6 -31 16 -4 7 19 17 20 257 23
l250 2 58 33 58 33 29 -25 c44 -36 94 -49 171 -44 139 10 153 44 119 298 -19
145 -21 182 -11 194 11 13 9 20 -8 42 -12 15 -21 33 -21 40 0 22 -16 16 -28
-11z m-539 -387 c35 -25 34 -34 -5 -58 -53 -33 -131 -51 -200 -48 l-63 3 38
42 c21 23 62 53 90 68 58 28 92 27 140 -7z"/>
<path d="M19870 18120 c-9 -16 -9 -34 -1 -68 11 -46 43 -256 55 -360 6 -50 5
-53 -19 -62 -38 -14 -195 -12 -225 3 -14 7 -26 23 -28 35 -3 17 2 22 21 22 16
0 28 8 35 25 7 14 12 27 12 29 0 2 -35 6 -77 9 -43 4 -118 18 -168 32 -138 38
-178 31 -205 -35 -16 -39 -9 -46 24 -24 29 19 115 16 171 -6 35 -13 32 -16
-75 -62 -64 -27 -91 -32 -188 -37 -61 -3 -112 -6 -112 -6 0 1 9 18 20 40 19
38 27 116 14 149 -10 26 -41 18 -67 -16 -30 -40 -62 -103 -71 -140 -6 -27 -9
-28 -70 -28 -111 0 -119 15 -146 275 -14 135 -30 225 -41 225 -14 0 -21 -63
-10 -110 5 -25 17 -112 26 -195 20 -178 37 -229 89 -250 20 -8 52 -15 71 -15
25 0 34 -4 29 -12 -5 -8 0 -9 15 -5 18 4 24 -2 42 -44 26 -59 64 -89 114 -89
32 0 38 4 51 37 15 35 15 59 0 94 -6 14 5 17 80 22 84 5 94 8 218 71 72 37
139 66 149 66 12 0 17 -8 17 -25 0 -14 6 -41 14 -60 11 -26 23 -36 53 -44 49
-14 147 -14 196 0 76 21 84 68 52 312 -13 97 -16 145 -9 165 8 22 5 33 -14 62
-31 46 -29 45 -42 20z m-769 -402 c7 -28 -11 -53 -58 -77 -38 -19 -44 -13 -28
27 36 85 71 106 86 50z m4 -207 c40 -23 39 -45 -3 -49 -25 -3 -39 3 -62 27
-17 16 -30 35 -30 41 0 15 54 4 95 -19z"/>
<path d="M15680 18091 c-15 -36 -15 -33 26 -366 20 -164 23 -178 34 -150 15
36 10 136 -18 345 -27 195 -28 203 -42 171z"/>
<path d="M20071 18083 c-13 -41 -9 -83 46 -493 8 -63 21 -26 22 64 1 55 -41
420 -52 460 -2 5 -9 -9 -16 -31z"/>
<path d="M14830 18073 c-8 -31 -4 -87 23 -283 24 -178 36 -238 42 -220 14 41
9 157 -14 312 -11 82 -21 166 -21 188 0 50 -16 52 -30 3z"/>
<path d="M18030 18073 c-8 -31 -4 -87 23 -283 24 -178 36 -238 42 -220 14 41
9 157 -14 312 -11 82 -21 166 -21 188 0 50 -16 52 -30 3z"/>
<path d="M15115 18040 c-18 -20 -18 -21 8 -47 26 -26 27 -26 47 -8 26 24 25
39 -5 59 -30 20 -28 20 -50 -4z"/>
<path d="M14567 17940 c-17 -28 -17 -29 12 -49 l30 -21 18 24 18 24 29 -21 29
-20 19 23 c18 23 18 23 -3 47 -28 29 -36 29 -59 1 -17 -21 -19 -22 -37 -7 -32
28 -39 28 -56 -1z"/>
<path d="M18465 17893 c-18 -26 -17 -27 11 -51 l28 -24 18 22 c24 30 23 35
-11 59 l-29 21 -17 -27z"/>
<path d="M14645 17761 c-5 -24 -1 -38 19 -64 47 -61 32 -77 -77 -77 -118 0
-203 -45 -221 -115 -10 -38 13 -59 79 -74 30 -7 55 -16 55 -21 0 -15 -59 -51
-117 -72 -76 -26 -181 -27 -226 -1 -71 42 -96 127 -62 210 24 58 8 51 -20 -8
-71 -152 12 -289 176 -289 92 0 245 73 275 132 27 53 17 71 -55 94 -112 36
-86 62 74 73 136 10 175 36 175 117 0 28 -31 94 -53 113 -13 10 -16 7 -22 -18z"/>
<path d="M18536 17725 c-11 -29 -7 -46 23 -88 52 -76 50 -92 -15 -174 -50 -61
-139 -103 -221 -103 -34 0 -63 -4 -63 -10 0 -16 50 -25 130 -25 88 1 131 21
173 82 65 95 75 186 29 274 -29 56 -46 69 -56 44z"/>
<path d="M19423 17484 c-17 -26 -17 -27 12 -51 l28 -25 18 24 c24 31 24 33
-11 58 l-29 21 -18 -27z"/>
<path d="M16594 17464 c-17 -25 -16 -26 10 -52 l27 -27 19 25 c25 32 25 32
-10 58 l-29 22 -17 -26z"/>
<path d="M14215 17173 c-18 -26 -17 -27 11 -51 l28 -25 20 26 19 26 29 -22 29
-22 19 25 c20 27 15 42 -23 62 -17 8 -23 6 -38 -13 -16 -22 -19 -22 -36 -8
-33 29 -41 29 -58 2z"/>
<path d="M16174 17175 c-17 -26 -16 -27 10 -53 l26 -27 23 28 22 29 19 -21
c25 -27 40 -26 60 3 15 24 15 26 -15 47 l-31 22 -21 -21 c-20 -21 -20 -21 -48
-1 l-28 20 -17 -26z"/>
<path d="M26095 18166 c-188 -85 -239 -115 -260 -155 -32 -63 -11 -141 39
-141 24 0 124 -97 148 -143 40 -80 6 -105 -140 -106 -46 -1 -104 -6 -129 -12
-80 -21 -145 -109 -108 -149 8 -9 40 -22 70 -29 30 -7 55 -16 55 -21 0 -15
-59 -51 -117 -72 -76 -26 -181 -27 -226 -1 -71 42 -96 127 -62 210 24 58 8 51
-20 -8 -71 -152 12 -289 176 -289 92 0 245 73 275 132 27 53 17 71 -55 94
-118 38 -85 63 99 74 85 5 139 13 163 25 39 18 67 65 67 112 0 69 -87 194
-180 258 -22 15 -40 32 -40 36 0 10 357 189 376 189 10 0 38 59 32 66 -2 1
-75 -30 -163 -70z"/>
<path d="M27236 18115 c-12 -19 -14 -30 -6 -44 5 -11 21 -93 34 -183 39 -262
38 -248 9 -259 -13 -5 -59 -9 -101 -9 -89 0 -117 13 -127 62 l-7 32 -22 -45
c-23 -49 -42 -57 -88 -38 -26 11 -29 16 -24 43 l6 31 -28 -31 c-35 -41 -61
-54 -107 -54 -31 0 -36 3 -30 18 22 52 18 57 -19 22 -33 -31 -43 -35 -106 -38
-61 -4 -70 -2 -70 13 0 27 -39 83 -62 91 -17 5 -28 -1 -50 -25 -69 -77 -41
-151 58 -151 l35 0 -28 -51 c-33 -62 -89 -112 -142 -127 -21 -7 -69 -12 -105
-12 -49 0 -67 -3 -64 -12 11 -32 187 -34 248 -3 39 20 85 91 100 156 12 47 13
49 48 49 21 1 53 7 73 14 25 9 43 10 54 3 24 -13 102 -3 124 17 16 14 20 14
56 -4 52 -27 79 -25 103 5 18 23 21 23 33 8 53 -63 247 -54 278 13 16 36 13
130 -8 279 -16 112 -17 134 -5 157 10 19 11 29 3 34 -6 3 -19 19 -28 35 l-18
30 -17 -26z m-741 -475 c18 -20 17 -20 -23 -20 -45 0 -45 0 -36 24 8 22 37 20
59 -4z"/>
<path d="M29110 18120 c-9 -16 -9 -34 -1 -68 11 -46 43 -256 55 -360 6 -50 6
-53 -21 -63 -16 -6 -72 -9 -126 -7 -84 3 -101 6 -113 22 -21 29 -17 46 11 46
22 0 45 24 45 48 0 5 -35 12 -78 16 -42 3 -118 17 -167 31 -138 38 -178 31
-205 -35 -16 -39 -11 -44 29 -24 36 18 112 15 166 -6 l30 -12 -45 -24 c-146
-77 -301 -85 -316 -15 -3 14 -7 31 -8 36 -2 6 -10 -5 -20 -22 -21 -41 -63 -63
-119 -63 -64 0 -92 31 -106 118 -11 64 -40 300 -42 332 0 8 -7 1 -14 -16 -12
-27 -10 -68 17 -323 l30 -292 -23 -26 c-75 -81 -233 -82 -274 -2 -17 33 -20
106 -5 145 18 45 2 40 -20 -7 -27 -60 -27 -153 0 -197 24 -40 89 -72 145 -72
22 0 63 11 91 24 86 40 120 111 108 224 l-7 67 21 -18 c45 -41 156 -26 183 25
10 18 11 18 30 -6 27 -34 81 -50 145 -42 64 7 113 27 215 83 42 24 90 46 107
49 29 6 30 4 37 -36 4 -22 17 -53 29 -67 20 -23 32 -27 102 -31 98 -5 158 10
181 45 22 34 22 96 -2 276 -13 97 -16 145 -9 165 8 22 5 33 -14 62 -31 46 -29
45 -42 20z"/>
<path d="M27440 18091 c-15 -36 -15 -33 26 -366 20 -164 23 -178 34 -150 15
36 10 136 -18 345 -27 195 -28 203 -42 171z"/>
<path d="M29311 18083 c-13 -41 -9 -83 46 -493 8 -63 21 -26 22 64 1 55 -41
420 -52 460 -2 5 -9 -9 -16 -31z"/>
<path d="M26824 17959 c-19 -21 -18 -21 10 -45 27 -24 29 -24 47 -8 25 23 24
38 -6 58 -30 20 -28 20 -51 -5z"/>
<path d="M26795 17863 c-18 -26 -17 -27 11 -50 l29 -23 18 25 19 25 29 -21
c29 -21 31 -21 44 -3 19 25 18 38 -3 57 -24 22 -35 21 -57 -3 -16 -17 -21 -18
-34 -7 -31 27 -39 27 -56 0z"/>
<path d="M28305 17463 c-18 -26 -17 -27 11 -51 l28 -24 18 22 c24 30 23 35
-11 59 l-29 21 -17 -27z"/>
<path d="M25485 17173 c-18 -26 -17 -27 11 -51 l28 -25 20 26 19 26 29 -22 29
-22 19 25 c20 27 15 42 -23 62 -17 8 -23 6 -38 -13 -16 -22 -19 -22 -36 -8
-33 29 -41 29 -58 2z"/>
<path d="M36766 18146 c-15 -24 -15 -26 15 -47 l32 -22 18 24 c17 23 17 25 -3
46 -27 29 -42 29 -62 -1z"/>
<path d="M38292 18115 c-9 -19 -8 -38 3 -83 7 -31 24 -130 36 -220 16 -125 19
-166 10 -175 -7 -7 -50 -13 -99 -15 -78 -3 -90 -1 -116 19 -33 26 -50 63 -81
173 -20 75 -33 87 -37 34 -1 -12 7 -53 17 -91 17 -63 17 -68 1 -86 -34 -38
-154 -55 -187 -26 -15 15 -17 14 -23 -10 -8 -33 8 -63 38 -71 47 -11 134 15
171 51 l34 34 20 -35 c29 -49 78 -68 163 -62 138 10 152 44 118 298 -19 145
-21 182 -11 194 11 13 9 20 -8 42 -12 15 -21 33 -21 40 0 22 -16 16 -28 -11z"/>
<path d="M37242 18095 c-9 -20 -10 -37 -2 -65 6 -21 19 -115 30 -208 24 -218
44 -259 132 -269 57 -7 113 17 136 57 19 34 23 35 60 16 36 -18 94 -28 109
-18 23 15 34 62 23 103 -12 42 -54 99 -75 99 -26 0 -65 -43 -94 -105 -17 -35
-39 -69 -50 -75 -11 -5 -47 -10 -80 -10 -97 0 -111 24 -131 230 -12 128 -29
238 -39 258 -5 9 -11 5 -19 -13z m423 -371 c46 -49 27 -68 -40 -40 -40 17 -42
22 -18 48 22 24 29 23 58 -8z"/>
<path d="M38490 18073 c-8 -31 -4 -87 23 -283 24 -178 36 -238 42 -220 14 41
9 157 -14 312 -11 82 -21 166 -21 188 0 50 -16 52 -30 3z"/>
<path d="M36773 17980 c-39 -24 -62 -57 -69 -101 -8 -49 10 -85 60 -120 l44
-32 -33 -48 c-49 -71 -69 -140 -69 -234 0 -159 82 -236 269 -252 66 -5 82 -3
169 28 53 19 96 38 96 42 0 5 -26 5 -57 0 -88 -12 -225 -7 -288 11 -140 41
-202 173 -141 301 38 80 103 140 219 205 54 30 89 71 74 86 -3 3 -39 -12 -80
-35 -83 -46 -111 -50 -165 -22 -53 27 -79 58 -66 79 19 31 95 65 158 71 l61 7
-32 17 c-43 23 -110 22 -150 -3z"/>
<path d="M40241 14911 c-8 -15 -9 -32 -2 -59 6 -20 19 -104 31 -186 16 -120
18 -151 8 -158 -7 -4 -48 -8 -91 -8 -77 0 -78 0 -121 40 -24 22 -46 40 -50 40
-4 0 -24 -18 -46 -40 -39 -40 -40 -40 -114 -40 -55 0 -79 4 -91 16 -25 25 -15
49 23 52 24 3 35 10 43 28 5 14 9 26 9 27 0 1 -39 2 -87 2 -49 0 -113 4 -143
8 -47 8 -59 6 -77 -10 -12 -10 -24 -29 -28 -41 -6 -21 -5 -23 13 -13 12 6 44
11 73 11 l51 0 -40 -40 c-63 -60 -94 -131 -100 -221 -4 -62 -1 -82 16 -115 39
-76 100 -112 201 -121 57 -5 81 -1 149 21 45 15 82 29 82 30 0 2 -57 3 -127 2
-102 -1 -138 3 -175 17 -181 70 -155 322 39 391 l41 14 6 -38 c9 -54 44 -80
111 -80 38 0 60 6 79 21 l26 20 25 -20 c30 -23 79 -36 97 -25 7 5 53 8 101 9
85 0 90 1 113 28 29 34 30 67 8 227 -9 63 -13 127 -10 142 4 18 -1 39 -13 59
-19 30 -19 31 -30 10z m-206 -391 c17 -32 10 -36 -30 -18 -28 13 -30 19 -13
36 18 18 26 15 43 -18z"/>
<path d="M40413 14893 c-17 -29 -17 -42 8 -233 27 -218 29 -227 41 -172 7 32
4 86 -11 200 -11 87 -22 173 -23 192 -3 33 -4 34 -15 13z"/>
<path d="M39620 14764 c-11 -13 -10 -19 8 -36 21 -21 22 -21 42 -3 l22 20 -22
17 c-27 22 -34 22 -50 2z"/>
<path d="M13321 13001 c-8 -15 -9 -32 -2 -59 6 -20 19 -104 31 -186 16 -120
18 -151 8 -158 -19 -11 -166 -10 -188 2 -19 10 -19 11 0 43 25 40 25 42 0 67
-29 29 -110 28 -144 -2 -13 -13 -27 -33 -30 -44 -6 -18 -3 -21 16 -17 13 2 32
-3 43 -11 19 -14 19 -15 -15 -29 -33 -14 -150 -33 -150 -25 0 2 9 21 20 43 26
52 25 61 -9 96 -58 58 -152 26 -243 -82 -23 -27 -47 -49 -54 -49 -7 0 -26 17
-43 37 -17 21 -31 32 -31 25 0 -7 -11 -24 -25 -37 -46 -47 -165 -26 -165 28 0
21 -1 21 -16 -3 -26 -39 -45 -50 -83 -50 -93 0 -171 -50 -171 -109 0 -28 4
-32 55 -46 30 -9 55 -21 55 -26 0 -14 -90 -55 -147 -68 -149 -31 -242 64 -188
193 21 49 10 45 -16 -6 -29 -56 -30 -139 -2 -176 39 -53 69 -67 141 -67 117 1
248 78 240 143 -2 21 -12 28 -56 42 -29 10 -55 20 -58 22 -13 13 32 30 101 37
58 7 82 14 101 32 l24 22 24 -22 c38 -35 102 -39 147 -8 36 24 36 24 62 5 15
-11 27 -29 27 -41 1 -20 2 -20 11 -4 9 15 30 17 208 17 198 0 198 0 255 28 45
23 58 26 67 16 23 -28 97 -47 161 -41 51 5 67 10 85 32 28 32 29 68 7 225 -9
63 -13 127 -10 142 4 18 -1 39 -13 59 -19 30 -19 31 -30 10z m-461 -316 c40
-21 38 -41 -9 -64 -44 -23 -163 -46 -188 -37 -14 6 -13 10 8 33 42 46 101 83
131 83 16 0 42 -7 58 -15z"/>
<path d="M15010 12999 c-8 -15 -9 -29 -1 -47 5 -15 20 -98 32 -185 19 -135 20
-160 8 -168 -20 -12 -176 -11 -200 1 -25 14 -26 54 -1 46 13 -5 22 1 30 18 10
22 8 24 -20 30 -17 3 -43 6 -57 6 -15 0 -69 11 -119 24 -110 29 -140 24 -164
-24 -19 -38 -17 -50 7 -30 25 21 165 13 165 -9 0 -14 -122 -64 -164 -67 -23
-2 -68 -5 -102 -8 l-61 -4 19 36 c21 43 23 101 4 127 -13 19 -15 18 -44 -13
-17 -18 -40 -56 -50 -85 -19 -51 -21 -52 -63 -55 -56 -4 -86 4 -98 27 -6 10
-15 61 -21 112 -20 183 -32 259 -41 264 -15 10 -21 -42 -10 -97 6 -29 15 -100
21 -158 18 -173 31 -195 125 -210 32 -5 58 -11 59 -12 33 -83 82 -127 123
-112 33 11 52 62 35 98 -10 23 -10 24 65 28 66 5 88 12 177 56 131 67 138 68
147 19 9 -57 28 -71 108 -75 85 -5 139 11 152 45 13 35 11 103 -7 230 -11 75
-13 117 -6 129 7 12 4 26 -10 51 -11 18 -22 33 -24 33 -2 0 -8 -9 -14 -21z
m-640 -320 c16 -29 7 -45 -40 -69 l-42 -21 7 23 c10 32 45 88 55 88 5 0 14 -9
20 -21z m-5 -176 c37 -18 45 -37 19 -47 -18 -7 -53 10 -71 33 -27 35 -5 41 52
14z"/>
<path d="M11044 12976 c-3 -13 -1 -48 5 -78 6 -29 15 -102 22 -163 12 -120 31
-173 69 -193 37 -19 135 -8 239 28 65 23 105 31 142 29 41 -2 54 1 65 16 8 10
12 20 10 22 -2 2 -29 8 -62 13 -32 5 -98 26 -146 45 -91 37 -115 38 -150 7
-31 -26 -22 -41 21 -35 39 5 141 -21 141 -36 0 -15 -115 -41 -177 -41 -103 0
-107 5 -123 141 -28 252 -40 306 -56 245z"/>
<path d="M13493 12983 c-17 -29 -17 -42 8 -233 27 -218 29 -227 41 -172 7 32
4 86 -11 200 -11 87 -22 173 -23 192 -3 33 -4 34 -15 13z"/>
<path d="M15183 12983 c-17 -29 -17 -42 8 -233 27 -218 29 -227 41 -172 7 32
4 86 -11 200 -11 87 -22 173 -23 192 -3 33 -4 34 -15 13z"/>
<path d="M13843 12811 c-10 -16 -8 -22 12 -41 l23 -21 16 22 c14 21 14 24 -1
41 -21 23 -35 23 -50 -1z"/>
<path d="M10897 12667 c-5 -19 1 -38 24 -75 36 -59 34 -75 -20 -135 -47 -52
-121 -87 -185 -87 -70 0 -46 -20 31 -27 88 -8 142 18 182 89 17 29 34 68 37
86 8 41 -11 110 -40 147 l-23 29 -6 -27z"/>
<path d="M13904 12665 c-4 -18 1 -36 18 -63 37 -56 38 -66 15 -107 -43 -76
-130 -124 -227 -126 l-45 -1 30 -13 c39 -18 117 -19 158 -1 47 19 94 78 112
140 17 58 14 88 -16 148 -24 48 -37 55 -45 23z"/>
<path d="M14640 12475 c-10 -13 -10 -19 5 -35 23 -25 37 -25 52 0 11 16 9 21
-9 35 -28 19 -32 19 -48 0z"/>
<path d="M11352 12459 c-11 -17 -10 -23 10 -39 23 -19 23 -19 41 2 18 21 18
22 -5 40 -29 22 -31 22 -46 -3z"/>
<path d="M12291 12458 c-11 -18 -10 -24 8 -41 19 -20 22 -20 37 -5 19 19 13
42 -13 57 -15 7 -22 5 -32 -11z"/>
<path d="M12018 12224 c-13 -13 -19 -14 -37 -3 -18 12 -23 11 -38 -4 -16 -16
-16 -18 4 -39 21 -21 23 -21 42 -4 18 16 21 16 44 1 24 -16 26 -15 37 5 9 18
8 25 -6 41 -21 23 -25 23 -46 3z"/>
<path d="M13952 12010 c-8 -13 -9 -26 -2 -42 11 -26 50 -281 50 -327 0 -38
-17 -43 -115 -39 -68 3 -70 4 -86 36 l-17 33 -10 -31 c-13 -36 -35 -46 -71
-34 -21 8 -25 15 -23 38 l3 28 -32 -36 c-26 -30 -38 -36 -70 -36 -37 0 -38 1
-29 26 15 38 13 39 -25 5 -31 -27 -43 -31 -96 -31 -56 0 -62 3 -103 40 -24 22
-47 40 -51 40 -4 0 -27 -18 -51 -40 -40 -36 -48 -40 -98 -40 -59 0 -86 16 -86
51 0 17 -5 15 -34 -15 -29 -32 -39 -36 -82 -36 -57 0 -94 21 -94 53 0 21 -1
21 -16 -3 -28 -41 -45 -50 -99 -50 -79 0 -88 14 -105 175 -5 55 -15 133 -22
174 -11 71 -12 73 -25 47 -10 -20 -11 -35 -4 -64 6 -20 17 -100 26 -176 16
-145 26 -173 70 -202 33 -22 99 -13 131 17 l24 22 24 -22 c15 -14 42 -25 68
-28 35 -4 50 0 83 22 24 17 41 23 43 16 6 -17 57 -41 89 -41 15 0 42 8 59 19
29 18 31 18 53 0 27 -22 90 -36 100 -22 3 5 33 10 66 11 33 0 91 1 130 1 43 1
78 7 92 16 21 14 26 14 53 0 40 -21 66 -19 84 7 14 20 17 21 28 6 29 -38 129
-50 193 -24 56 24 61 84 24 314 -6 38 -6 69 -1 79 7 11 3 27 -10 50 -11 18
-21 33 -22 33 0 0 -7 -9 -14 -20z m-652 -411 c0 -12 -6 -11 -42 7 -31 16 -31
17 -12 31 17 12 21 12 37 -8 9 -12 17 -25 17 -30z"/>
<path d="M14120 11985 c-10 -25 -7 -65 15 -235 15 -113 29 -207 30 -208 2 -2
7 17 10 42 5 29 -2 115 -18 238 -22 174 -26 190 -37 163z"/>
<path d="M12756 11872 c-15 -18 -15 -20 2 -35 23 -21 36 -21 52 -2 10 13 10
19 -5 35 -22 25 -28 25 -49 2z"/>
<path d="M12155 11844 c-94 -48 -148 -166 -99 -215 11 -10 46 -24 79 -30 33
-6 64 -14 68 -18 5 -5 -7 -17 -25 -28 -93 -55 -225 -70 -286 -33 -19 12 -40
37 -49 58 -14 33 -14 41 1 86 19 61 12 74 -10 20 -53 -125 -7 -222 114 -240
94 -14 250 56 279 125 14 33 14 36 -6 52 -11 9 -42 20 -68 24 -56 8 -93 29
-93 52 0 26 46 79 86 98 35 17 37 16 64 -4 24 -17 29 -18 34 -6 8 21 -9 61
-29 69 -23 8 -26 8 -60 -10z"/>
<path d="M12811 11799 c-12 -20 -13 -20 -38 -3 -25 16 -27 16 -40 -2 -18 -24
-17 -29 11 -47 23 -15 25 -15 39 6 14 22 15 22 36 3 20 -18 23 -18 38 -4 18
19 12 42 -14 57 -15 7 -22 5 -32 -10z"/>
<path d="M12397 11703 c-56 -63 -16 -161 48 -119 22 15 25 15 25 1 0 -29 -28
-83 -64 -123 -47 -52 -112 -82 -176 -82 -62 0 -65 -16 -5 -26 59 -8 121 2 162
27 47 29 96 134 101 213 5 97 -46 158 -91 109z m41 -45 c18 -18 14 -28 -11
-28 -30 0 -40 10 -26 27 14 16 22 16 37 1z"/>
<path d="M12986 11471 c-21 -23 -21 -26 10 -46 24 -16 26 -16 40 2 18 24 17
25 -10 45 -22 16 -25 16 -40 -1z"/>
<path d="M11955 11370 c-18 -20 -18 -21 3 -42 20 -21 22 -21 41 -4 18 16 21
16 44 1 24 -16 26 -15 37 6 10 18 9 25 -9 42 -20 20 -21 20 -41 2 -19 -17 -21
-17 -38 -1 -18 15 -20 15 -37 -4z"/>
<path d="M21153 12997 c-7 -14 -7 -30 -2 -39 8 -15 43 -233 51 -316 2 -21 -3
-36 -12 -42 -20 -13 -156 -13 -180 0 -19 10 -19 11 0 43 25 40 25 42 0 67 -29
29 -110 28 -144 -2 -13 -13 -27 -33 -30 -44 -6 -18 -3 -21 16 -17 13 2 32 -3
43 -11 19 -14 19 -15 -15 -29 -33 -14 -150 -33 -150 -25 0 2 9 21 20 43 26 52
25 61 -9 96 -58 58 -152 26 -243 -82 -23 -27 -47 -49 -54 -49 -7 0 -26 16 -42
36 -28 34 -30 35 -37 15 -10 -34 -51 -54 -103 -52 -51 1 -82 22 -82 55 0 17
-4 16 -28 -13 -24 -29 -37 -35 -92 -42 -78 -11 -119 -34 -145 -81 -24 -46 -13
-62 55 -78 28 -7 50 -16 50 -20 0 -14 -102 -59 -156 -69 -76 -15 -147 6 -178
51 -18 26 -21 94 -6 134 17 42 2 41 -16 -1 -26 -62 -28 -101 -10 -150 20 -52
62 -82 128 -91 117 -16 299 93 260 156 -5 8 -31 22 -57 31 -86 27 -70 45 53
59 55 6 80 14 98 31 l24 22 24 -22 c38 -35 102 -39 147 -8 36 24 36 24 62 5
15 -11 27 -29 27 -41 1 -20 2 -20 11 -4 9 15 30 17 208 17 198 0 198 0 255 29
32 16 59 24 63 19 12 -20 90 -48 136 -48 26 0 63 7 82 15 56 23 60 47 40 216
-10 80 -14 159 -11 176 5 21 2 34 -9 43 -8 7 -15 19 -15 26 0 22 -16 16 -27
-9z m-453 -312 c40 -21 38 -41 -9 -64 -44 -23 -163 -46 -188 -37 -14 6 -13 10
8 33 42 46 101 83 131 83 16 0 42 -7 58 -15z"/>
<path d="M22851 13001 c-8 -15 -9 -32 -2 -59 6 -20 19 -104 31 -186 16 -120
18 -151 8 -158 -19 -11 -176 -10 -199 2 -25 14 -26 54 -1 46 13 -5 22 1 30 18
11 24 10 25 -46 31 -31 4 -101 17 -155 30 -111 27 -137 23 -162 -24 -20 -41
-20 -41 24 -25 32 11 52 11 95 2 31 -6 56 -14 56 -18 0 -16 -128 -62 -185 -66
-33 -3 -79 -6 -102 -8 l-42 -3 16 31 c20 38 23 120 5 138 -11 11 -19 7 -45
-23 -18 -20 -41 -60 -51 -88 l-18 -51 -59 0 c-85 0 -87 4 -114 235 -8 72 -19
144 -24 160 l-8 30 -8 -27 c-4 -15 0 -78 9 -140 8 -62 18 -141 21 -174 7 -69
34 -120 68 -133 12 -4 43 -11 69 -15 41 -6 47 -10 53 -36 7 -31 66 -90 90 -90
43 0 77 59 56 99 -6 11 -11 22 -11 24 0 2 35 7 78 10 66 5 89 12 167 53 50 25
102 50 117 55 27 7 28 6 34 -31 10 -63 32 -75 136 -75 86 0 91 1 114 28 29 34
30 67 8 227 -9 63 -13 127 -10 142 4 18 -1 39 -13 59 -19 30 -19 31 -30 10z
m-643 -337 c3 -26 -3 -33 -38 -53 -44 -24 -49 -18 -24 32 34 66 57 73 62 21z
m9 -169 c27 -18 29 -30 8 -39 -23 -9 -60 9 -79 40 l-18 27 33 -7 c18 -3 43
-13 56 -21z"/>
<path d="M21324 12968 c-7 -23 -3 -80 13 -198 12 -91 23 -180 23 -198 0 -20 4
-31 10 -27 16 10 12 130 -11 296 -11 85 -22 155 -23 157 -2 1 -7 -12 -12 -30z"/>
<path d="M23023 12983 c-17 -29 -17 -42 8 -233 27 -218 29 -227 41 -172 7 32
4 86 -11 200 -11 87 -22 173 -23 192 -3 33 -4 34 -15 13z"/>
<path d="M21683 12811 c-10 -16 -8 -22 12 -41 l23 -21 16 22 c14 21 14 24 -1
41 -21 23 -35 23 -50 -1z"/>
<path d="M21744 12665 c-4 -18 1 -36 18 -63 37 -56 38 -66 15 -107 -43 -76
-130 -124 -227 -126 l-45 -1 30 -13 c39 -18 117 -19 158 -1 47 19 94 78 112
140 17 58 14 88 -16 148 -24 48 -37 55 -45 23z"/>
<path d="M22482 12478 c-17 -17 -15 -31 9 -46 16 -10 24 -10 35 -1 19 15 18
29 -3 45 -22 17 -26 17 -41 2z"/>
<path d="M20126 12458 c-14 -19 -13 -22 11 -41 25 -20 26 -20 39 -2 19 25 18
30 -11 49 -23 15 -25 15 -39 -6z"/>
<path d="M19782 12219 c-16 -26 -15 -32 9 -47 18 -11 24 -11 40 4 18 16 20 16
39 -1 20 -18 21 -18 35 1 19 25 19 28 -5 49 -19 17 -21 17 -40 0 -18 -16 -22
-16 -43 -2 -21 14 -24 14 -35 -4z"/>
<path d="M22313 12007 c-7 -14 -7 -30 -2 -39 8 -15 43 -233 51 -316 4 -44 -11
-52 -99 -52 -73 0 -103 13 -103 46 0 24 -17 15 -30 -16 -10 -23 -19 -30 -40
-30 -33 0 -54 22 -47 50 4 14 -4 10 -28 -15 -25 -28 -40 -35 -69 -35 -35 0
-36 1 -30 27 l7 28 -32 -28 c-28 -23 -41 -27 -97 -27 -61 0 -66 2 -109 41 -49
45 -57 44 -109 -10 -26 -27 -37 -31 -81 -31 -58 0 -95 21 -95 53 0 21 -1 21
-16 -3 -28 -41 -45 -50 -101 -50 -56 0 -93 22 -93 58 -1 12 -5 9 -16 -10 -19
-35 -43 -48 -93 -48 -79 0 -86 10 -101 141 -20 183 -32 259 -41 264 -15 10
-21 -42 -10 -97 6 -29 16 -102 22 -163 16 -155 32 -189 95 -201 43 -8 79 1
105 27 l21 21 25 -24 c36 -33 121 -33 157 1 l26 24 26 -24 c32 -30 113 -34
140 -8 15 15 19 15 57 -7 48 -27 85 -31 93 -9 5 11 10 12 26 4 13 -7 41 -9 72
-4 28 4 74 6 103 5 31 0 65 6 83 15 27 14 33 14 52 0 32 -22 75 -19 89 6 l11
21 24 -23 c32 -30 123 -38 177 -16 58 25 62 47 42 218 -10 80 -14 159 -11 176
5 21 2 34 -9 43 -8 7 -15 19 -15 26 0 22 -16 16 -27 -9z m-661 -387 c18 -32
13 -36 -27 -18 -28 13 -30 19 -13 36 17 17 21 15 40 -18z"/>
<path d="M22484 11978 c-7 -23 -3 -80 13 -198 12 -91 23 -180 23 -198 0 -20 4
-31 10 -27 16 10 12 130 -11 296 -11 85 -22 155 -23 157 -2 1 -7 -12 -12 -30z"/>
<path d="M21122 11878 c-18 -18 -15 -34 11 -51 22 -14 24 -13 36 5 10 17 9 23
-5 39 -20 22 -26 23 -42 7z"/>
<path d="M20514 11841 c-45 -27 -103 -100 -110 -137 -12 -67 17 -94 119 -108
30 -5 47 -12 45 -19 -2 -7 -30 -25 -62 -41 -80 -41 -198 -49 -249 -17 -56 35
-72 96 -42 168 22 53 11 52 -14 -2 -13 -28 -21 -65 -21 -100 0 -46 4 -59 30
-88 58 -66 160 -72 277 -16 68 33 113 78 113 114 0 30 -7 34 -87 51 -103 21
-114 40 -61 100 41 46 90 69 118 54 11 -6 20 -15 20 -20 0 -6 5 -10 10 -10 20
0 10 59 -12 74 -29 20 -36 20 -74 -3z"/>
<path d="M21176 11801 c-17 -19 -20 -19 -42 -4 -23 15 -26 14 -39 -3 -19 -25
-19 -26 10 -47 23 -16 24 -16 39 5 15 21 16 21 36 3 16 -14 22 -15 35 -5 20
17 19 33 -3 54 -18 15 -20 15 -36 -3z"/>
<path d="M20748 11674 c-19 -43 -19 -51 -7 -74 18 -31 45 -37 69 -15 29 26 34
0 9 -51 -44 -93 -132 -153 -221 -154 -60 0 -62 -17 -4 -25 59 -9 118 2 158 28
50 33 101 142 102 217 1 66 -24 112 -63 118 -17 3 -26 -6 -43 -44z m61 -17 c6
-8 8 -17 4 -20 -12 -12 -53 -7 -53 6 0 28 30 37 49 14z"/>
<path d="M21351 11468 c-11 -18 -10 -24 8 -41 19 -20 22 -20 37 -5 19 19 13
42 -13 57 -15 7 -22 5 -32 -11z"/>
<path d="M20316 11365 c-15 -23 -15 -25 10 -42 25 -16 27 -16 39 0 15 21 29
22 45 2 17 -20 23 -19 38 6 11 18 11 24 -4 40 -21 23 -33 24 -49 2 -12 -16
-14 -16 -38 0 -24 16 -26 15 -41 -8z"/>
<path d="M40620 12379 c-8 -15 -9 -29 -1 -47 5 -15 20 -98 32 -185 19 -135 20
-160 8 -168 -8 -5 -49 -9 -92 -9 -77 0 -78 0 -121 40 -24 22 -46 40 -50 40 -4
0 -24 -18 -46 -40 -38 -39 -41 -40 -105 -40 -75 0 -105 12 -105 41 0 15 5 19
18 15 13 -5 22 1 30 18 10 22 8 24 -20 30 -17 3 -43 6 -57 6 -15 0 -69 11
-119 24 -110 29 -140 24 -164 -24 -19 -38 -17 -50 7 -30 25 21 165 13 165 -9
0 -19 -127 -65 -191 -69 -71 -4 -99 10 -99 49 0 17 -5 15 -34 -15 -32 -35 -36
-36 -104 -36 -52 0 -75 4 -87 16 -24 25 -15 49 21 52 22 2 35 11 43 28 6 14
11 26 11 27 0 1 -39 2 -87 2 -49 0 -114 4 -145 9 -53 8 -58 7 -82 -17 -32 -32
-36 -63 -7 -47 11 5 42 10 70 10 l50 0 -48 -48 c-129 -129 -126 -339 5 -414
79 -44 159 -48 268 -13 47 15 86 28 86 30 0 1 -57 2 -127 1 -151 -1 -202 13
-257 74 -98 109 -25 295 136 341 25 7 28 5 28 -16 0 -37 19 -72 47 -84 43 -20
117 -14 157 14 36 24 37 24 56 5 47 -47 129 -38 265 30 130 64 137 65 146 17
9 -54 29 -69 94 -75 47 -4 62 -1 86 17 l30 22 25 -20 c31 -24 82 -37 96 -23 7
7 37 8 78 5 83 -7 137 9 151 44 13 35 11 103 -7 230 -11 75 -13 117 -6 129 7
12 4 26 -10 51 -11 18 -22 33 -24 33 -2 0 -8 -9 -14 -21z m-205 -389 c17 -32
10 -36 -30 -18 -28 13 -30 19 -13 36 18 18 26 15 43 -18z"/>
<path d="M40790 12355 c-10 -25 -7 -65 15 -235 15 -113 29 -207 30 -208 2 -2
7 17 10 42 5 29 -2 115 -18 238 -22 174 -26 190 -37 163z"/>
<path d="M39932 12249 c-11 -17 -10 -23 10 -39 23 -19 23 -19 41 2 18 21 18
22 -5 40 -29 22 -31 22 -46 -3z"/>
<path d="M39336 12231 c-16 -17 -15 -19 9 -35 21 -14 29 -15 41 -5 19 15 18
29 -3 45 -24 18 -27 17 -47 -5z"/>
<path d="M39697 11830 c-14 -21 -17 -21 -38 -6 -17 11 -26 13 -36 4 -18 -15
-16 -32 7 -53 20 -18 21 -18 36 3 14 20 17 21 37 7 28 -19 34 -19 46 4 8 14 5
23 -13 40 l-24 22 -15 -21z"/>
<path d="M40220 9939 c-8 -15 -9 -29 -1 -47 5 -15 20 -98 32 -185 19 -135 20
-160 8 -168 -8 -5 -49 -9 -92 -9 -77 0 -78 0 -121 40 -24 22 -46 40 -50 40 -4
0 -24 -18 -46 -40 -39 -40 -40 -40 -114 -40 -41 0 -82 -3 -91 -6 -16 -6 -16
-4 1 27 21 41 24 123 6 141 -11 11 -19 7 -45 -23 -18 -20 -41 -60 -51 -88
l-18 -51 -59 0 c-85 0 -87 4 -114 235 -8 72 -19 144 -24 160 l-8 30 -8 -27
c-4 -15 0 -78 9 -140 8 -62 18 -141 21 -174 7 -69 34 -120 68 -133 12 -4 43
-11 69 -15 41 -6 47 -10 53 -36 7 -31 66 -90 90 -90 43 0 77 59 56 99 -16 30
-15 31 38 31 34 0 56 6 75 21 l26 20 25 -20 c32 -24 83 -37 97 -23 7 7 37 8
78 5 83 -7 137 9 151 44 13 35 11 103 -7 230 -11 75 -13 117 -6 129 7 12 4 26
-10 51 -11 18 -22 33 -24 33 -2 0 -8 -9 -14 -21z m-482 -335 c3 -26 -3 -33
-38 -53 -44 -24 -49 -18 -24 32 34 66 57 73 62 21z m277 -54 c17 -32 10 -36
-30 -18 -28 13 -30 19 -13 36 18 18 26 15 43 -18z m-268 -115 c27 -18 29 -30
8 -39 -23 -9 -60 9 -79 40 l-18 27 33 -7 c18 -3 43 -13 56 -21z"/>
<path d="M40393 9923 c-17 -29 -17 -42 8 -233 27 -218 29 -227 41 -172 7 32 4
86 -11 200 -11 87 -22 173 -23 192 -3 33 -4 34 -15 13z"/>
<path d="M41778 9804 c-13 -13 -19 -14 -37 -3 -18 12 -23 11 -38 -4 -16 -16
-16 -18 4 -39 21 -21 23 -21 42 -4 18 16 21 16 44 1 24 -16 26 -15 37 5 9 18
8 25 -6 41 -21 23 -25 23 -46 3z"/>
<path d="M39220 9715 c0 -14 4 -25 10 -25 27 0 110 -97 110 -129 0 -16 -61
-31 -127 -31 -64 0 -64 0 -61 -27 3 -27 4 -28 64 -26 33 0 77 8 97 16 29 13
37 22 43 52 9 50 -18 115 -67 159 -46 43 -69 46 -69 11z"/>
<path d="M40856 9719 c-14 -21 -14 -24 1 -41 20 -22 32 -23 48 -1 12 16 14 16
38 0 25 -16 27 -16 41 5 14 19 13 22 -11 41 -24 19 -27 19 -38 4 -15 -21 -24
-21 -46 -1 -16 14 -18 13 -33 -7z"/>
<path d="M40687 9678 c-25 -38 -29 -83 -13 -121 18 -45 48 -64 120 -79 66 -14
179 -1 272 31 l58 21 24 -25 c49 -53 127 -46 267 25 130 64 137 65 146 17 10
-63 27 -72 129 -72 80 0 92 2 112 23 32 32 31 95 -1 141 l-25 34 -9 -26 c-6
-20 -4 -32 14 -56 37 -50 22 -61 -76 -61 -95 0 -125 10 -125 41 0 15 5 19 18
15 13 -5 22 1 30 18 10 22 8 24 -20 30 -17 3 -43 6 -57 6 -15 0 -69 11 -119
24 -110 29 -140 24 -164 -24 -19 -38 -17 -50 7 -30 25 21 165 13 165 -9 0 -18
-127 -65 -188 -69 -67 -5 -92 6 -92 39 0 11 -1 19 -3 19 -2 0 -37 -12 -78 -27
-64 -23 -90 -26 -196 -27 -109 -1 -124 1 -150 20 -38 28 -50 66 -35 106 14 39
9 48 -11 16z"/>
<path d="M39422 7450 c-10 -17 -9 -22 14 -37 25 -16 27 -16 40 2 12 16 12 21
-3 37 -21 23 -35 23 -51 -2z"/>
<path d="M40690 7429 c-8 -15 -9 -29 -1 -47 5 -15 20 -98 32 -185 19 -135 20
-160 8 -168 -8 -5 -46 -9 -86 -9 -97 0 -115 16 -152 135 -22 70 -30 85 -35 68
-4 -12 0 -49 9 -84 9 -34 14 -67 11 -75 -3 -7 -30 -20 -61 -29 -43 -13 -63
-14 -87 -6 -17 6 -33 11 -34 11 -10 0 -3 -47 8 -58 27 -27 131 -7 167 32 l23
24 32 -36 c28 -30 40 -36 88 -40 71 -6 126 12 139 45 13 35 11 103 -7 230 -11
75 -13 117 -6 129 7 12 4 26 -10 51 -11 18 -22 33 -24 33 -2 0 -8 -9 -14 -21z"/>
<path d="M39815 7409 c-4 -11 -2 -41 4 -67 6 -26 17 -104 25 -173 16 -141 31
-180 76 -199 55 -23 150 13 150 57 0 17 4 16 41 -3 17 -8 46 -14 66 -12 53 4
63 41 31 106 -38 76 -85 64 -130 -35 -24 -53 -45 -65 -110 -61 -71 4 -84 25
-98 153 -24 231 -38 289 -55 234z m359 -311 c23 -33 20 -41 -16 -34 -43 9 -61
25 -47 42 17 21 46 17 63 -8z"/>
<path d="M40863 7413 c-17 -29 -17 -42 8 -233 27 -218 29 -227 41 -172 7 32 4
86 -11 200 -11 87 -22 173 -23 192 -3 33 -4 34 -15 13z"/>
<path d="M41682 7360 c-10 -17 -9 -22 14 -36 23 -16 26 -16 41 -1 15 15 15 18
-2 37 -23 25 -37 25 -53 0z"/>
<path d="M39418 7307 c-69 -58 -64 -143 13 -182 l29 -16 -29 -42 c-93 -135
-76 -319 33 -371 49 -23 143 -39 191 -32 22 3 69 17 105 31 l65 26 -100 -6
c-172 -9 -274 27 -315 111 -27 54 -25 100 6 162 29 59 82 108 172 160 54 32
83 64 70 78 -3 2 -33 -12 -69 -31 -35 -19 -74 -35 -87 -35 -29 0 -71 21 -96
49 -16 18 -17 23 -5 37 22 27 90 54 139 54 44 1 44 1 20 15 -40 23 -110 19
-142 -8z"/>
<path d="M41174 7296 c-28 -28 -34 -41 -34 -78 0 -46 17 -71 68 -97 l22 -12
-26 -34 c-82 -108 -86 -286 -7 -357 30 -28 86 -47 155 -54 56 -6 78 -2 147 21
44 14 81 28 81 30 0 1 -57 2 -127 2 -118 -2 -132 0 -184 24 -32 15 -66 40 -79
59 -28 39 -37 113 -20 163 17 54 88 126 173 177 64 38 97 73 83 88 -2 1 -33
-13 -68 -33 -36 -19 -75 -35 -87 -35 -28 0 -71 22 -95 49 -16 17 -17 23 -6 36
21 26 70 47 125 55 49 7 50 7 22 18 -16 7 -46 12 -69 12 -32 0 -47 -7 -74 -34z"/>
<path d="M41754 7226 c-4 -12 -1 -46 9 -85 16 -59 16 -66 1 -82 -23 -25 -103
-43 -138 -30 -36 14 -36 14 -36 -12 0 -44 33 -56 109 -41 17 4 46 20 63 36 17
16 32 27 33 26 1 -2 8 -13 14 -25 32 -63 131 -67 285 -13 65 23 102 31 142 29
45 -2 57 1 69 18 14 19 13 21 -17 27 -17 3 -39 6 -50 6 -11 0 -65 18 -119 40
-110 44 -136 45 -169 3 -25 -32 -26 -47 -1 -33 11 5 32 10 48 10 31 0 123 -30
123 -41 0 -14 -120 -39 -187 -39 -67 0 -73 2 -97 31 -14 17 -35 63 -47 102
-11 40 -22 77 -24 82 -1 6 -6 1 -11 -9z"/>
<path d="M42070 6891 c-14 -26 -14 -26 15 -45 23 -15 25 -15 35 5 9 16 8 25
-6 40 -22 24 -31 24 -44 0z"/>
<path d="M38855 4930 c-3 -11 -4 -28 0 -39 3 -10 14 -78 25 -152 15 -104 17
-135 7 -141 -6 -4 -43 -8 -81 -8 -61 0 -67 2 -61 18 15 38 16 87 2 107 -31 41
-104 -16 -110 -85 l-2 -35 -57 -3 c-49 -3 -59 0 -74 20 l-17 24 -22 -22 c-14
-14 -40 -23 -79 -28 -33 -3 -61 -4 -63 -2 -3 3 2 15 11 28 33 47 15 85 -46 94
-25 4 -44 -2 -80 -25 l-48 -31 -2 78 c-1 42 -3 97 -3 122 -1 25 -7 56 -14 69
-24 43 -31 2 -16 -85 8 -43 14 -106 15 -140 0 -52 -3 -64 -25 -84 -29 -28 -83
-29 -122 -4 -21 13 -23 13 -23 -7 0 -13 8 -31 17 -41 15 -17 15 -21 0 -53 -24
-51 -87 -88 -158 -93 -68 -5 -69 -18 -3 -28 90 -13 159 30 185 116 l12 39 209
3 c205 3 210 4 228 26 15 18 20 20 27 9 21 -36 88 -46 153 -23 28 10 43 10 79
-1 90 -27 173 -11 189 36 7 19 7 56 0 107 -5 44 -11 109 -13 145 -2 57 -17
109 -30 109 -2 0 -7 -9 -10 -20z m-125 -261 c14 -26 -3 -49 -37 -49 -34 0 -42
29 -14 52 30 23 38 23 51 -3z m-428 -15 c24 -12 28 -18 17 -25 -19 -13 -104
-36 -159 -44 l-44 -6 24 26 c29 31 87 64 113 65 10 0 32 -7 49 -16z"/>
<path d="M38995 4907 c-7 -27 17 -263 34 -332 17 -68 16 56 -1 192 -22 170
-23 175 -33 140z"/>
<path d="M38703 4842 c-9 -15 -12 -15 -27 -3 -15 12 -19 12 -34 -2 -15 -16
-15 -18 3 -31 18 -13 22 -13 37 1 14 13 21 13 32 4 17 -14 36 -7 36 14 0 24
-34 36 -47 17z"/>
<path d="M37679 4804 c-10 -12 -9 -18 4 -31 15 -15 18 -15 35 0 17 16 20 16
32 2 16 -19 26 -19 34 2 10 25 -19 50 -38 34 -11 -9 -20 -9 -34 -2 -15 8 -23
7 -33 -5z"/>
<path d="M38450 4775 c-11 -14 -10 -19 7 -37 21 -20 21 -20 32 0 8 15 7 23 -8
36 -16 15 -19 15 -31 1z"/>
<path d="M37707 4693 c-12 -21 -29 -112 -24 -126 3 -9 18 -19 33 -23 37 -9 74
32 74 82 0 28 -6 38 -32 54 -36 22 -45 24 -51 13z m43 -61 c27 -22 19 -42 -16
-42 -26 0 -40 20 -30 45 7 20 19 19 46 -3z"/>
<path d="M41381 2812 c-7 -13 -8 -29 -2 -44 13 -36 44 -266 37 -283 -4 -11
-22 -15 -75 -15 -64 0 -73 3 -104 30 -19 17 -38 30 -42 30 -4 0 -23 -13 -42
-30 -27 -24 -43 -30 -81 -30 -52 0 -72 12 -73 45 0 16 -4 13 -16 -12 -9 -18
-24 -33 -34 -33 -30 0 -49 12 -49 31 0 16 -3 15 -25 -6 -15 -16 -36 -25 -54
-25 -29 0 -30 2 -21 26 l10 26 -31 -26 c-24 -21 -41 -26 -83 -26 -55 0 -76 12
-76 43 0 15 -4 13 -25 -11 -20 -24 -35 -30 -81 -36 -31 -4 -59 -5 -61 -2 -3 2
3 18 12 36 20 38 13 63 -21 78 -40 19 -68 14 -112 -18 -23 -16 -44 -30 -46
-30 -2 0 -4 24 -3 53 2 84 -9 202 -20 222 -10 18 -11 17 -21 -2 -6 -11 -9 -23
-6 -26 8 -7 34 -176 34 -218 0 -52 -32 -89 -76 -89 -47 0 -74 16 -74 43 -1 21
-1 21 -12 2 -17 -32 -39 -45 -78 -45 -60 0 -71 22 -89 170 -16 130 -31 172
-30 83 0 -27 8 -122 18 -213 20 -183 20 -184 -43 -217 -41 -21 -115 -12 -138
17 -20 25 -24 90 -8 121 6 10 8 19 5 19 -12 0 -35 -71 -35 -108 0 -50 29 -88
80 -103 33 -10 47 -9 86 6 60 23 84 61 84 137 l0 56 28 -10 c35 -13 77 -4 99
21 16 19 16 19 34 -2 16 -21 26 -22 220 -25 192 -3 204 -2 231 18 l28 21 29
-22 c25 -18 37 -21 73 -14 24 4 63 6 87 5 23 0 53 6 65 13 19 13 25 13 41 1
26 -19 62 -18 73 3 9 15 12 14 37 -5 32 -25 68 -28 107 -8 24 13 31 12 65 -5
39 -20 63 -24 63 -11 0 4 36 7 81 7 73 0 83 2 100 24 23 28 24 71 4 200 -8 52
-10 101 -6 110 5 10 2 26 -9 45 -18 27 -18 28 -29 8z m-950 -281 l24 -20 -38
-15 c-38 -17 -158 -37 -167 -29 -7 7 49 52 85 68 42 20 69 18 96 -4z m777 -46
c13 -29 12 -29 -22 -13 -20 9 -23 14 -15 25 16 19 24 16 37 -12z"/>
<path d="M42864 2813 c-7 -11 -7 -30 2 -62 17 -67 38 -246 31 -265 -5 -12 -21
-16 -67 -16 -72 0 -100 12 -100 43 -1 21 -1 21 -12 2 -6 -11 -18 -26 -26 -32
-20 -16 -124 -17 -140 -1 -16 16 -15 41 2 35 8 -3 18 5 25 19 10 23 9 24 -28
24 -21 0 -73 9 -116 20 -102 26 -130 26 -149 -2 -24 -34 -21 -51 6 -37 23 12
115 6 130 -9 14 -14 -116 -62 -166 -62 -65 0 -74 16 -91 158 -20 173 -25 199
-37 178 -6 -11 -6 -41 1 -84 6 -37 15 -103 20 -148 6 -45 15 -93 22 -107 27
-59 114 -59 225 0 37 19 80 39 96 43 26 8 28 6 28 -18 0 -15 4 -32 8 -38 30
-46 147 -44 175 3 7 11 12 9 26 -8 21 -26 94 -36 145 -19 45 15 51 36 41 144
-4 44 -9 109 -11 142 -1 34 -8 74 -16 88 -12 23 -15 24 -24 9z"/>
<path d="M41523 2790 c-8 -19 -5 -70 12 -200 16 -130 24 -168 30 -146 8 28 4
74 -19 266 -11 90 -14 101 -23 80z"/>
<path d="M43005 2785 c-9 -33 22 -334 37 -350 14 -15 8 111 -11 250 -14 105
-20 124 -26 100z"/>
<path d="M41785 2706 c-48 -48 -42 -111 14 -143 l28 -17 -28 -43 c-36 -58 -53
-131 -44 -190 10 -66 61 -116 133 -132 75 -16 109 -13 177 13 l60 24 -105 -1
c-122 -1 -164 10 -209 57 -38 39 -50 95 -32 149 14 40 95 119 164 159 26 15
47 35 47 44 0 8 -3 14 -7 12 -99 -50 -122 -58 -146 -49 -30 12 -67 46 -67 62
0 18 106 60 137 54 l28 -6 -25 15 c-39 24 -97 20 -125 -8z"/>
<path d="M42363 2704 c-3 -8 2 -23 11 -32 15 -15 17 -15 34 1 16 17 16 19 -2
33 -25 18 -35 18 -43 -2z"/>
<path d="M42686 2651 c-16 -18 -16 -20 5 -35 13 -8 23 -15 24 -13 0 1 6 9 13
18 10 13 8 19 -6 33 -18 15 -20 15 -36 -3z"/>
<path d="M40598 2643 c-14 -13 -20 -14 -32 -4 -17 14 -36 7 -36 -13 0 -8 7
-19 15 -26 13 -10 19 -10 33 3 16 15 20 15 33 1 14 -13 17 -13 29 1 11 14 10
19 -6 36 -18 18 -21 18 -36 2z"/>
<path d="M40114 2353 c-8 -13 -14 -14 -33 -3 -19 10 -25 10 -32 -1 -12 -19
-11 -25 6 -39 13 -10 19 -10 33 3 17 15 19 15 35 -1 16 -15 19 -15 27 -2 14
22 12 34 -8 47 -15 9 -20 8 -28 -4z"/>
<path d="M5602 1260 c-182 -92 -230 -128 -238 -180 -6 -33 -3 -39 43 -75 76
-60 123 -108 139 -138 15 -27 14 -28 -20 -42 -21 -9 -67 -15 -113 -15 l-78 0
-20 37 c-30 54 -49 62 -79 34 -14 -14 -29 -40 -32 -59 -6 -29 -3 -39 16 -54
12 -10 38 -18 56 -18 l34 0 -19 -38 c-42 -81 -114 -122 -218 -122 -61 0 -70
-15 -15 -24 114 -18 190 4 226 68 13 22 29 58 36 79 11 37 12 37 65 37 139 0
203 38 191 114 l-7 39 63 -58 c98 -91 178 -116 243 -77 29 18 30 18 70 -5 46
-26 83 -30 91 -9 4 11 12 13 31 5 32 -12 99 -12 144 1 63 18 71 69 43 268 -11
77 -13 121 -7 135 7 17 4 29 -13 55 -21 31 -23 32 -33 14 -7 -14 -6 -39 4 -88
22 -108 48 -314 40 -322 -4 -4 -44 -9 -90 -10 l-83 -4 -45 41 c-24 23 -47 41
-50 41 -3 0 -27 -18 -52 -40 -42 -37 -51 -40 -103 -40 -66 0 -87 11 -203 105
-43 35 -112 87 -154 115 -41 28 -75 55 -75 60 0 16 84 64 227 131 111 52 134
66 142 90 5 16 8 29 6 29 -3 0 -76 -36 -163 -80z m390 -430 c18 -32 13 -36
-27 -18 -27 12 -33 33 -12 41 20 9 21 8 39 -23z m-717 0 c18 -20 17 -20 -13
-20 -32 0 -45 23 -19 33 6 3 12 6 13 6 0 1 9 -8 19 -19z"/>
<path d="M2012 1225 c-8 -17 -8 -33 -2 -47 10 -24 50 -288 50 -331 0 -14 -7
-28 -16 -31 -30 -12 -160 -6 -178 7 -18 13 -18 15 -1 40 23 36 13 71 -25 87
-58 24 -139 -8 -153 -61 -4 -15 0 -19 23 -19 15 0 33 -7 40 -15 10 -13 7 -17
-21 -29 -40 -16 -149 -30 -149 -19 1 5 7 19 15 33 39 68 1 130 -81 130 -48 0
-108 -39 -180 -119 l-41 -45 -28 18 c-15 10 -30 27 -32 37 -6 20 -23 27 -23 9
0 -6 -11 -22 -25 -35 -44 -45 -165 -27 -165 25 0 14 -7 11 -34 -16 -25 -25
-43 -34 -68 -34 -65 -1 -112 -18 -145 -54 -19 -20 -33 -46 -33 -61 0 -21 7
-27 55 -40 30 -9 57 -20 60 -25 3 -5 -22 -22 -55 -38 -189 -95 -344 -10 -285
157 18 52 11 53 -15 1 -13 -26 -20 -59 -20 -99 0 -53 4 -65 30 -95 17 -19 47
-40 67 -47 52 -17 141 -6 206 26 64 32 93 59 102 96 8 31 -7 45 -66 62 -81 24
-61 43 59 57 55 6 80 14 98 31 l24 22 24 -22 c38 -36 102 -39 149 -7 l38 26
28 -21 c20 -15 27 -27 24 -42 -4 -21 -3 -21 10 -4 13 15 36 17 209 17 200 0
238 5 291 43 28 19 28 19 50 -1 46 -43 144 -56 212 -28 56 24 61 84 24 314 -7
44 -6 69 2 83 8 16 7 24 -5 38 -9 10 -16 23 -16 29 0 22 -17 21 -28 -3z m-458
-326 c14 -11 26 -25 26 -30 0 -28 -211 -82 -233 -60 -14 14 14 45 72 83 53 33
98 36 135 7z"/>
<path d="M3731 1232 c-7 -14 -6 -39 4 -88 22 -108 48 -314 40 -322 -3 -4 -49
-9 -100 -10 -84 -4 -95 -2 -114 17 -27 27 -27 41 2 41 15 0 28 9 35 24 10 23
10 23 -61 29 -40 4 -103 16 -142 27 -116 33 -148 25 -174 -43 -12 -30 -5 -33
23 -12 24 18 89 18 136 0 l35 -13 -70 -32 c-59 -28 -85 -34 -170 -39 l-100 -6
17 35 c22 41 23 99 4 125 -13 19 -15 18 -44 -13 -17 -18 -40 -57 -53 -87 l-23
-55 -56 0 c-88 0 -92 7 -115 215 -9 77 -19 156 -24 175 -7 35 -7 35 -20 11
-10 -17 -10 -33 -2 -65 5 -22 15 -93 21 -156 7 -63 16 -132 21 -152 12 -46 60
-88 102 -88 55 0 73 -10 86 -45 15 -42 64 -85 96 -85 43 0 69 64 45 109 -8 17
-3 19 63 23 74 5 108 18 237 88 74 40 86 39 94 -8 8 -56 35 -75 109 -80 34 -2
81 1 103 7 69 18 77 66 48 269 -11 77 -13 121 -7 135 7 17 4 29 -13 55 -21 31
-23 32 -33 14z m-651 -331 c16 -30 13 -38 -24 -60 -50 -31 -59 -27 -41 16 27
65 46 78 65 44z m-6 -175 c43 -18 52 -32 26 -46 -15 -8 -27 -7 -50 5 -16 9
-30 17 -30 19 0 3 -3 11 -6 20 -8 20 15 21 60 2z"/>
<path d="M6662 1225 c-8 -17 -8 -33 -2 -50 15 -40 42 -254 35 -284 -3 -15 -21
-43 -40 -61 -33 -32 -34 -32 -102 -26 l-68 7 25 -21 c49 -39 79 -41 526 -38
l432 3 113 58 c133 67 149 70 149 26 0 -43 15 -65 51 -78 70 -24 159 -3 180
43 9 20 16 23 29 16 10 -5 36 -13 58 -19 47 -10 68 0 77 39 6 28 -30 108 -57
124 -24 14 -64 -25 -94 -90 -12 -28 -30 -54 -39 -58 -9 -3 -47 -6 -84 -6 -53
0 -72 4 -84 18 -23 25 -21 42 3 42 16 0 40 26 40 44 0 3 -20 6 -44 6 -24 0
-88 11 -142 25 -139 35 -164 33 -189 -16 -22 -41 -19 -53 7 -35 26 19 86 19
142 3 l40 -12 -73 -34 c-69 -32 -209 -60 -231 -46 -5 3 0 20 10 38 36 59 19
95 -52 112 -40 10 -70 0 -122 -40 l-46 -35 -2 103 c-2 56 -3 125 -3 152 0 28
-8 63 -16 79 l-16 30 -12 -23 c-9 -16 -9 -31 -2 -54 15 -50 31 -170 31 -240 0
-57 -3 -66 -30 -92 -30 -29 -89 -42 -133 -29 -17 5 -17 8 -3 22 21 24 36 69
30 87 -9 22 -57 45 -96 45 -34 0 -85 -26 -126 -63 l-23 -22 7 52 c3 28 1 89
-6 136 -7 54 -8 92 -2 103 7 14 3 27 -13 51 l-22 32 -11 -24z m229 -331 c25
-12 28 -18 18 -30 -15 -18 -126 -51 -199 -58 l-55 -6 45 41 c75 68 132 84 191
53z m389 1 c40 -20 38 -33 -7 -52 -45 -18 -194 -46 -202 -37 -8 8 54 60 99 84
43 23 72 25 110 5z m794 -10 c9 -13 16 -27 16 -30 0 -9 -38 -5 -65 7 -28 13
-30 19 -13 36 19 19 44 14 62 -13z"/>
<path d="M2183 1202 c-10 -26 -8 -65 12 -213 14 -100 25 -195 25 -213 0 -24 3
-27 10 -16 16 24 10 153 -14 320 -20 143 -22 153 -33 122z"/>
<path d="M3902 1201 c-10 -29 -8 -66 15 -244 16 -124 30 -202 34 -191 13 33
10 120 -11 267 -10 78 -20 156 -22 172 l-3 30 -13 -34z"/>
<path d="M4755 1211 c-6 -19 6 -128 35 -329 10 -72 30 -109 66 -122 57 -22
155 -5 174 30 17 31 11 93 -11 130 -22 35 -22 35 -32 12 -8 -17 -8 -28 1 -40
49 -69 40 -82 -60 -82 -55 0 -72 4 -88 20 -11 11 -20 24 -20 29 0 5 -4 43 -9
83 -5 40 -15 116 -21 168 -14 107 -24 136 -35 101z"/>
<path d="M8403 1156 c7 -42 -4 -46 -27 -11 -18 27 -36 33 -36 12 0 -8 11 -20
25 -27 36 -19 31 -30 -10 -23 -28 5 -35 2 -35 -11 0 -14 7 -16 38 -11 l37 6
-30 -25 c-21 -18 -27 -28 -19 -36 8 -8 16 -4 28 14 23 36 33 32 28 -10 -3 -28
-1 -35 9 -32 9 3 13 17 11 39 l-3 34 20 -22 c20 -23 41 -30 41 -14 0 5 -12 19
-27 30 l-28 22 39 -3 c27 -2 41 1 44 11 4 11 -3 13 -32 8 -39 -6 -48 6 -16 23
20 11 28 40 11 40 -5 0 -19 -12 -30 -27 l-22 -28 3 34 c2 23 -2 36 -11 39 -11
4 -13 -3 -8 -32z m17 -56 c0 -5 -4 -10 -10 -10 -5 0 -10 5 -10 10 0 6 5 10 10
10 6 0 10 -4 10 -10z"/>
<path d="M7541 1099 c-11 -19 -10 -24 8 -42 17 -17 22 -18 35 -7 21 17 20 33
-2 53 -23 21 -24 21 -41 -4z"/>
<path d="M4946 1091 c-17 -19 -17 -20 9 -37 24 -16 27 -16 42 -1 15 15 15 18
-2 37 -22 25 -27 25 -49 1z"/>
<path d="M4355 1057 c-15 -20 -14 -23 6 -39 26 -22 38 -23 45 -3 4 8 12 15 19
15 7 0 18 -7 25 -15 17 -20 23 -19 38 6 11 18 11 24 -4 40 -21 23 -33 24 -49
2 -12 -16 -14 -16 -38 0 -25 16 -27 16 -42 -6z"/>
<path d="M2545 1040 c-17 -19 -17 -20 6 -39 30 -25 31 -25 47 -1 14 23 10 35
-17 50 -14 7 -23 5 -36 -10z"/>
<path d="M4624 986 c-4 -17 1 -37 16 -61 12 -20 19 -42 17 -50 -19 -47 -325
-86 -400 -50 -44 21 -63 67 -47 110 15 39 5 43 -14 6 -33 -63 -13 -136 45
-167 68 -34 233 -23 359 25 77 29 81 33 87 78 4 28 -1 51 -16 81 -26 52 -39
59 -47 28z"/>
<path d="M2604 886 c-4 -17 4 -36 27 -69 38 -54 35 -74 -16 -134 -44 -52 -111
-85 -189 -93 l-61 -6 40 -12 c62 -18 117 -15 166 11 35 19 51 36 77 86 39 77
41 120 6 189 -28 57 -41 64 -50 28z"/>
<path d="M3353 691 c-10 -16 -8 -22 11 -40 l23 -21 18 20 c17 19 17 21 0 40
-23 25 -37 25 -52 1z"/>
<path d="M968 675 c-17 -22 -17 -24 8 -40 20 -13 28 -14 40 -4 20 17 17 34 -9
52 -20 13 -24 13 -39 -8z"/>
<path d="M696 441 c-17 -19 -20 -19 -42 -4 -14 9 -26 14 -27 12 -2 -2 -9 -12
-16 -21 -12 -16 -10 -20 10 -37 24 -19 24 -19 45 0 19 18 22 18 34 4 17 -20
37 -19 49 4 8 14 5 23 -13 40 -22 21 -23 21 -40 2z"/>
</g>
</svg>
