<svg xmlns="http://www.w3.org/2000/svg" xmlns:xlink="http://www.w3.org/1999/xlink" version="1.1" width="348.75pt" height="34.5pt" viewBox="0 0 348.75 34.5">
<defs>
<clipPath id="clip_0">
<path transform="matrix(.24,0,0,.24,0,0)" d="M0 0H1453.125V143.75H0Z" fill-rule="evenodd"/>
</clipPath>
<clipPath id="clip_1">
<path transform="matrix(.24,0,0,.24,0,0)" d="M.29296876 .00000000000002220446H1450V143.70117H.29296876Z" fill-rule="evenodd"/>
</clipPath>
<clipPath id="clip_2">
<path transform="matrix(.24,0,0,.24,0,0)" d="M553.47549 51.485414H576.6396V92.24031H553.47549Z" fill-rule="evenodd"/>
</clipPath>
</defs>
<g clip-path="url(#clip_0)">
<path transform="matrix(.75,0,0,.75,0,0)" d="M0 0H465V46H0Z" fill="transparent"/>
</g>
<g clip-path="url(#clip_1)">
<path transform="matrix(-.6269141,0,0,-.6272539,362.17588,205.41445)" d="M475.01173 306.76954H468.1797V313.59767H461.35157V320.42579H454.51954V327.2539H475.01173V320.42579H481.84376V313.59767H475.01173V306.76954" fill="#96695E"/>
<path transform="matrix(-.6269141,0,0,-.6272539,362.17588,205.41445)" d="M488.67579 327.2539V320.42579H481.84376V327.2539H488.67579" fill="#96695E"/>
<path transform="matrix(-.6269141,0,0,-.6272539,362.17588,205.41445)" d="M495.5039 306.76954V299.9414H488.67579V293.10939H481.84376V313.59767H495.5039V327.2539H509.16407V320.42579H502.33595V313.59767H515.9961V306.76954H509.16407V300.0703H515.9961V293.2422H509.16407V299.9414H502.33595V306.76954H495.5039" fill="#96695E"/>
<path transform="matrix(-.6269141,0,0,-.6272539,362.17588,205.41445)" d="M509.16407 286.28126H515.9961V279.45704H509.16407V286.28126" fill="#96695E"/>
<path transform="matrix(-.6269141,0,0,-.6272539,362.17588,205.41445)" d="M461.35157 299.9414H454.51954V293.10939H447.6875V286.28126H454.51954V293.10939H461.35157V299.9414ZM447.6875 306.76954H440.85548V299.9414H447.6875V306.76954ZM502.33595 279.45704H495.5039V272.625H488.67579V279.45314H481.84376V272.625H461.35157V279.45314H468.1797V286.28126H461.35157V279.45314H454.51954V272.625H447.6875V279.45314H440.85548V272.625H65.25L22.472657 327.2539H447.6875V320.42579H454.51954V306.76954H468.1797V299.9414H475.01173V293.10939H481.84376V286.28126H488.67579V293.10939H495.5039V299.9414H502.33595V293.10939H509.16407V286.28126H502.33595V279.45704" fill="#96695E"/>
<path transform="matrix(-.6269141,0,0,-.6272539,362.17588,205.41445)" d="M543.3711 327.38673H550.2031V313.73048H543.3711V327.38673" fill="#96695E"/>
<path transform="matrix(-.6269141,0,0,-.6272539,362.17588,205.41445)" d="M529.71096 327.38673H536.53909V320.5586H529.71096V327.38673" fill="#96695E"/>
<path transform="matrix(-.6269141,0,0,-.6272539,362.17588,205.41445)" d="M543.3711 279.58595H550.2031V272.7578H543.3711V279.58595" fill="#96695E"/>
<path transform="matrix(-.6269141,0,0,-.6272539,362.17588,205.41445)" d="M556.6133 279.58595H563.4453V272.7578H556.6133V279.58595" fill="#96695E"/>
<path transform="matrix(-.6269141,0,0,-.6272539,362.17588,205.41445)" d="M536.53909 286.41407V279.58595H529.71096V272.7578H516.0508V279.58595H522.8789V286.41407H536.53909" fill="#96695E"/>
<path transform="matrix(-.6269141,0,0,-.6272539,362.17588,205.41445)" d="M543.3711 300.0703H550.2031V293.2422H543.3711V300.0703" fill="#96695E"/>
<path transform="matrix(-.6269141,0,0,-.6272539,362.17588,205.41445)" d="M570.6953 279.58595H563.8633V286.41407H570.6953V279.58595" fill="#96695E"/>
<path transform="matrix(-.6269141,0,0,-.6272539,362.17588,205.41445)" d="M570.6953 313.73048V320.5586H577.52737V313.73048H570.6953" fill="#96695E"/>
<path transform="matrix(-.6269141,0,0,-.6272539,362.17588,205.41445)" d="M536.53909 306.89845V313.73048H543.3711V306.89845H536.53909" fill="#96695E"/>
<path transform="matrix(-.6269141,0,0,-.6272539,362.17588,205.41445)" d="M536.53909 293.2422H529.71096V306.89845H536.53909V293.2422" fill="#96695E"/>
</g>
<g clip-path="url(#clip_2)">
<path transform="matrix(.021716368,0,0,.021716368,132.8341,12.356499)" d="M0 0H256V450H0Z" fill="#96695E"/>
</g>
</svg>
