<svg xmlns="http://www.w3.org/2000/svg" xmlns:xlink="http://www.w3.org/1999/xlink" version="1.1" width="262.5" height="37.5" viewBox="0 0 262.5 37.5">
<defs>
<clipPath id="clip_0">
<path transform="matrix(.24,0,0,.24,0,0)" d="M0 0H1093.7501V156.25002H0Z" fill-rule="evenodd"/>
</clipPath>
<clipPath id="clip_1">
<path transform="matrix(.24,0,0,.24,0,0)" d="M0 0H1093.7501V156.25002H0Z" fill-rule="evenodd"/>
</clipPath>
<clipPath id="clip_2">
<path transform="matrix(.24,0,0,.24,0,0)" d="M16.25769 42.511266H734.87057V113.70378H16.25769Z" fill-rule="evenodd"/>
</clipPath>
<clipPath id="clip_3">
<path transform="matrix(.24,0,0,.24,0,0)" d="M375.6327 42.511266H1093.7501V113.70378H375.6327Z" fill-rule="evenodd"/>
</clipPath>
</defs>
<g clip-path="url(#clip_0)">
<path transform="matrix(.75000008,0,0,.75000008,0,0)" d="M0 0H350V50H0Z" fill="transparent"/>
</g>
<g clip-path="url(#clip_1)">
<path transform="matrix(.75000008,0,0,.75000008,0,0)" d="M0 0H350V50H0Z" fill="transparent"/>
</g>
<g clip-path="url(#clip_2)">
<path transform="matrix(-.35973633,0,0,-.35973633,211.53705,125.318119)" d="M475.01173 306.76954H468.1797V313.59767H461.35157V320.42579H454.51954V327.2539H475.01173V320.42579H481.84376V313.59767H475.01173V306.76954" fill="#CB8E7E"/>
<path transform="matrix(-.35973633,0,0,-.35973633,211.53705,125.318119)" d="M488.67579 327.2539V320.42579H481.84376V327.2539H488.67579" fill="#CB8E7E"/>
<path transform="matrix(-.35973633,0,0,-.35973633,211.53705,125.318119)" d="M495.5039 306.76954V299.9414H488.67579V293.10939H481.84376V313.59767H495.5039V327.2539H509.16407V320.42579H502.33595V313.59767H515.9961V306.76954H509.16407V300.0703H515.9961V293.2422H509.16407V299.9414H502.33595V306.76954H495.5039" fill="#CB8E7E"/>
<path transform="matrix(-.35973633,0,0,-.35973633,211.53705,125.318119)" d="M509.16407 286.28126H515.9961V279.45704H509.16407V286.28126" fill="#CB8E7E"/>
<path transform="matrix(-.35973633,0,0,-.35973633,211.53705,125.318119)" d="M461.35157 299.9414H454.51954V293.10939H447.6875V286.28126H454.51954V293.10939H461.35157V299.9414ZM447.6875 306.76954H440.85548V299.9414H447.6875V306.76954ZM502.33595 279.45704H495.5039V272.625H488.67579V279.45314H481.84376V272.625H461.35157V279.45314H468.1797V286.28126H461.35157V279.45314H454.51954V272.625H447.6875V279.45314H440.85548V272.625H65.25L22.472657 327.2539H447.6875V320.42579H454.51954V306.76954H468.1797V299.9414H475.01173V293.10939H481.84376V286.28126H488.67579V293.10939H495.5039V299.9414H502.33595V293.10939H509.16407V286.28126H502.33595V279.45704" fill="#CB8E7E"/>
<path transform="matrix(-.35973633,0,0,-.35973633,211.53705,125.318119)" d="M543.3711 327.38673H550.2031V313.73048H543.3711V327.38673" fill="#CB8E7E"/>
<path transform="matrix(-.35973633,0,0,-.35973633,211.53705,125.318119)" d="M529.71096 327.38673H536.53909V320.5586H529.71096V327.38673" fill="#CB8E7E"/>
<path transform="matrix(-.35973633,0,0,-.35973633,211.53705,125.318119)" d="M543.3711 279.58595H550.2031V272.7578H543.3711V279.58595" fill="#CB8E7E"/>
<path transform="matrix(-.35973633,0,0,-.35973633,211.53705,125.318119)" d="M556.6133 279.58595H563.4453V272.7578H556.6133V279.58595" fill="#CB8E7E"/>
<path transform="matrix(-.35973633,0,0,-.35973633,211.53705,125.318119)" d="M536.53909 286.41407V279.58595H529.71096V272.7578H516.0508V279.58595H522.8789V286.41407H536.53909" fill="#CB8E7E"/>
<path transform="matrix(-.35973633,0,0,-.35973633,211.53705,125.318119)" d="M543.3711 300.0703H550.2031V293.2422H543.3711V300.0703" fill="#CB8E7E"/>
<path transform="matrix(-.35973633,0,0,-.35973633,211.53705,125.318119)" d="M570.6953 279.58595H563.8633V286.41407H570.6953V279.58595" fill="#CB8E7E"/>
<path transform="matrix(-.35973633,0,0,-.35973633,211.53705,125.318119)" d="M570.6953 313.73048V320.5586H577.52737V313.73048H570.6953" fill="#CB8E7E"/>
<path transform="matrix(-.35973633,0,0,-.35973633,211.53705,125.318119)" d="M536.53909 306.89845V313.73048H543.3711V306.89845H536.53909" fill="#CB8E7E"/>
<path transform="matrix(-.35973633,0,0,-.35973633,211.53705,125.318119)" d="M536.53909 293.2422H529.71096V306.89845H536.53909V293.2422" fill="#CB8E7E"/>
</g>
<g clip-path="url(#clip_3)">
<path transform="matrix(-.35973633,0,0,-.35973633,297.78706,125.318119)" d="M475.01173 306.76954H468.1797V313.59767H461.35157V320.42579H454.51954V327.2539H475.01173V320.42579H481.84376V313.59767H475.01173V306.76954" fill="#CB8E7E"/>
<path transform="matrix(-.35973633,0,0,-.35973633,297.78706,125.318119)" d="M488.67579 327.2539V320.42579H481.84376V327.2539H488.67579" fill="#CB8E7E"/>
<path transform="matrix(-.35973633,0,0,-.35973633,297.78706,125.318119)" d="M495.5039 306.76954V299.9414H488.67579V293.10939H481.84376V313.59767H495.5039V327.2539H509.16407V320.42579H502.33595V313.59767H515.9961V306.76954H509.16407V300.0703H515.9961V293.2422H509.16407V299.9414H502.33595V306.76954H495.5039" fill="#CB8E7E"/>
<path transform="matrix(-.35973633,0,0,-.35973633,297.78706,125.318119)" d="M509.16407 286.28126H515.9961V279.45704H509.16407V286.28126" fill="#CB8E7E"/>
<path transform="matrix(-.35973633,0,0,-.35973633,297.78706,125.318119)" d="M461.35157 299.9414H454.51954V293.10939H447.6875V286.28126H454.51954V293.10939H461.35157V299.9414ZM447.6875 306.76954H440.85548V299.9414H447.6875V306.76954ZM502.33595 279.45704H495.5039V272.625H488.67579V279.45314H481.84376V272.625H461.35157V279.45314H468.1797V286.28126H461.35157V279.45314H454.51954V272.625H447.6875V279.45314H440.85548V272.625H65.25L22.472657 327.2539H447.6875V320.42579H454.51954V306.76954H468.1797V299.9414H475.01173V293.10939H481.84376V286.28126H488.67579V293.10939H495.5039V299.9414H502.33595V293.10939H509.16407V286.28126H502.33595V279.45704" fill="#CB8E7E"/>
<path transform="matrix(-.35973633,0,0,-.35973633,297.78706,125.318119)" d="M543.3711 327.38673H550.2031V313.73048H543.3711V327.38673" fill="#CB8E7E"/>
<path transform="matrix(-.35973633,0,0,-.35973633,297.78706,125.318119)" d="M529.71096 327.38673H536.53909V320.5586H529.71096V327.38673" fill="#CB8E7E"/>
<path transform="matrix(-.35973633,0,0,-.35973633,297.78706,125.318119)" d="M543.3711 279.58595H550.2031V272.7578H543.3711V279.58595" fill="#CB8E7E"/>
<path transform="matrix(-.35973633,0,0,-.35973633,297.78706,125.318119)" d="M556.6133 279.58595H563.4453V272.7578H556.6133V279.58595" fill="#CB8E7E"/>
<path transform="matrix(-.35973633,0,0,-.35973633,297.78706,125.318119)" d="M536.53909 286.41407V279.58595H529.71096V272.7578H516.0508V279.58595H522.8789V286.41407H536.53909" fill="#CB8E7E"/>
<path transform="matrix(-.35973633,0,0,-.35973633,297.78706,125.318119)" d="M543.3711 300.0703H550.2031V293.2422H543.3711V300.0703" fill="#CB8E7E"/>
<path transform="matrix(-.35973633,0,0,-.35973633,297.78706,125.318119)" d="M570.6953 279.58595H563.8633V286.41407H570.6953V279.58595" fill="#CB8E7E"/>
<path transform="matrix(-.35973633,0,0,-.35973633,297.78706,125.318119)" d="M570.6953 313.73048V320.5586H577.52737V313.73048H570.6953" fill="#CB8E7E"/>
<path transform="matrix(-.35973633,0,0,-.35973633,297.78706,125.318119)" d="M536.53909 306.89845V313.73048H543.3711V306.89845H536.53909" fill="#CB8E7E"/>
<path transform="matrix(-.35973633,0,0,-.35973633,297.78706,125.318119)" d="M536.53909 293.2422H529.71096V306.89845H536.53909V293.2422" fill="#CB8E7E"/>
</g>
</svg>