<svg xmlns="http://www.w3.org/2000/svg" xmlns:xlink="http://www.w3.org/1999/xlink" version="1.1" width="595.5pt" height="842.25pt" viewBox="0 0 595.5 842.25">
<defs>
<clipPath id="clip_26">
<path transform="matrix(.24,0,0,.24,0,0)" d="M0 0H2481.25V3509.375H0Z" fill-rule="evenodd"/>
</clipPath>
<clipPath id="clip_27">
<path transform="matrix(.24,0,0,.24,0,0)" d="M0 0H2481.25V3509.375H0Z" fill-rule="evenodd"/>
</clipPath>
<clipPath id="clip_28">
<path transform="matrix(.24,0,0,.24,0,0)" d="M386.25416 0H1064.3792V173.8189H386.25416Z" fill-rule="evenodd"/>
</clipPath>
<clipPath id="clip_29">
<path transform="matrix(.24,0,0,.24,0,0)" d="M0 0H789.1352V130.95592H0Z" fill-rule="evenodd"/>
</clipPath>
<clipPath id="clip_30">
<path transform="matrix(.24,0,0,.24,0,0)" d="M778.34646 11.979219H875.22146V108.85421H778.34646Z" fill-rule="evenodd"/>
</clipPath>
<clipPath id="clip_31">
<path transform="matrix(.24,0,0,.24,0,0)" d="M0 0H2481.25V3509.375H0Z" fill-rule="evenodd"/>
</clipPath>
<clipPath id="clip_32">
<path transform="matrix(.24,0,0,.24,400.8,0)" d="M0 0H812V938H0Z" fill-rule="evenodd"/>
</clipPath>
<clipPath id="clip_33">
<path transform="matrix(.24,0,0,.24,400.8,0)" d="M1368.3411-826.6717 1885.6486 321.5523 520.8861 936.41659 3.5786134-211.80744 1368.3411-826.6717Z"/>
</clipPath>
<clipPath id="clip_34">
<path transform="matrix(.24,0,0,.24,400.8,0)" d="M596.2103-478.80488 1113.5178 669.4191 520.8861 936.41659 3.5786134-211.80744 596.2103-478.80488Z"/>
</clipPath>
<clipPath id="clip_35">
<path transform="matrix(.24,0,0,.24,400.8,0)" d="M1369.1218-827.0235 1886.4295 321.2005 521.66696 936.06478 4.359375-212.15924 1369.1218-827.0235Z"/>
</clipPath>
<clipPath id="clip_36">
<path transform="matrix(.24,0,0,.24,0,567.12)" d="M0 0H855V1147H0Z"/>
</clipPath>
<clipPath id="clip_37">
<path transform="matrix(.24,0,0,.24,0,567.12)" d="M-930.2382 257.07447 617.5356 1.39357 922.11166 1845.156-625.6622 2100.837-930.2382 257.07447Z"/>
</clipPath>
<clipPath id="clip_38">
<path transform="matrix(.24,0,0,.24,0,567.12)" d="M-168.6842 131.27132 617.5356 1.39357 851.3155 1416.5891 65.095767 1546.4669-168.6842 131.27132Z"/>
</clipPath>
<clipPath id="clip_39">
<path transform="matrix(.24,0,0,.24,0,567.12)" d="M-930.85458 257.17628 616.9191 1.4954071 921.4952 1845.2578-626.2785 2100.9388-930.85458 257.17628Z"/>
</clipPath>
<clipPath id="clip_40">
<path transform="matrix(.24,0,0,.24,0,0)" d="M2201.4608 3209.166H2481.25V3509.166H2201.4608Z" fill-rule="evenodd"/>
</clipPath>
<clipPath id="clip_41">
<path transform="matrix(.24,0,0,.24,0,0)" d="M0 3246.7633H443.4654V3509.2633H0Z" fill-rule="evenodd"/>
</clipPath>
<clipPath id="clip_42">
<path transform="matrix(.24,0,0,.24,0,0)" d="M0 0H287.2154V280.13139H0Z" fill-rule="evenodd"/>
</clipPath>
<clipPath id="clip_43">
<path transform="matrix(.24,0,0,.24,0,0)" d="M2046.1294 0H2481.25V242.78934H2046.1294Z" fill-rule="evenodd"/>
</clipPath>
</defs>
<g>
<g clip-path="url(#clip_26)">
<path transform="matrix(.75,0,0,.75,0,0)" d="M0 0H794V1123H0Z" fill="#ffffff"/>
</g>
<g clip-path="url(#clip_27)">
<path transform="matrix(.75,0,0,.75,0,0)" d="M0 0H794V1123H0Z" fill="#ffffff"/>
</g>
<g clip-path="url(#clip_28)">
<path transform="matrix(.077615488,0,0,.077615488,36.202779,-.26414559)" d="M2613.38 341.32 2743.98 219.16 2827.08 141.43H2200.41V541.22H2827.08L2743.98 463.49 2613.38 341.32Z" fill="#cb8e7e"/>
<path transform="matrix(.077615488,0,0,.077615488,36.202779,-.26414559)" d="M2828.96 542.03H2199.91V140.62H2828.96L2614.39 341.33003 2828.96 542.03ZM2200.92 540.4H2825.2L2612.38 341.32 2825.2 142.24H2200.92V540.4Z" fill="#cb8e7e"/>
<path transform="matrix(.077615488,0,0,.077615488,36.202779,-.26414559)" d="M560.32 1.33H2269.29V401.12H560.32Z" fill="#cb8e7e"/>
<path transform="matrix(.077615488,0,0,.077615488,36.202779,-.26414559)" d="M2269.81 401.62H559.82V.82H2269.81V401.62ZM560.83 400.6H2268.78V1.83H560.83V400.6Z" fill="#595551"/>
<path transform="matrix(.077615488,0,0,.077615488,36.202779,-.26414559)" d="M2269.8 401.93H559.82V.51H2269.8V401.93ZM560.83 400.3H2268.8V2.14H560.83V400.3Z" fill="#cb8e7e"/>
<path transform="matrix(.077615488,0,0,.077615488,36.202779,-.26414559)" d="M2270.31 402.44H559.31008V0H2270.31V402.44ZM560.33 401.42H2269.29V400.81004H560.33V401.42ZM561.34 399.79H2268.29V2.65H561.34V399.79ZM560.33 1.63H2269.29V1.02H560.33V1.63Z" fill="#595551"/>
<path transform="matrix(.077615488,0,0,.077615488,36.202779,-.26414559)" d="M2200.41 541.22V401.11H2269.3V401.36L2200.41 541.22Z" fill="#595551"/>
<path transform="matrix(.077615488,0,0,.077615488,36.202779,-.26414559)" d="M2199.91 543.55V400.3H2269.7999V401.65L2269.6898 401.87 2199.91 543.55ZM2200.92 401.93V538.89L2268.38 401.93H2200.92Z" fill="#595551"/>
</g>
<g clip-path="url(#clip_29)">
<path transform="matrix(.57377228,0,0,.57377228,-61.85755,-2.1290327)" d="M438.33 57.54H219.16 0L13.87 28.77 0 0H219.16 438.33L424.46 28.77 438.33 57.54Z" fill="#595551"/>
</g>
<g clip-path="url(#clip_30)">
<path transform="matrix(.12096774,0,0,.12096774,186.33138,2.403238)" d="M195.9 100C196 100 196.09999 100 196.09999 100 189.4 99.7 182.7 99.5 176.09999 98.8 169.49999 98.100009 162.79999 97.200008 156.4 95.8 149.9 94.3 143.5 92.5 137.5 89.700008 131.5 86.9 125.9 83.3 121.2 78.700008 116.5 74.100009 112.7 68.600009 109.899997 62.700006 107.09999 56.700006 105.299999 50.300004 103.899997 43.800004 102.49999 37.300004 101.7 30.700003 101.09999 24.000004 100.49999 17.400004 100.19999 10.700004 99.99999 4.000004 99.799999 10.700004 99.49999 17.400004 98.899997 24.000004 98.299999 30.700005 97.49999 37.300004 96.09999 43.800004 94.69999 50.300004 92.899997 56.700006 90.09999 62.700006 87.29999 68.700008 83.49999 74.200008 78.79999 78.700008 74.09999 83.3 68.499988 86.9 62.49999 89.700008 56.499994 92.50001 50.09999 94.4 43.59999 95.8 37.09999 97.200008 30.49999 98.200008 23.89999 98.8 17.39999 99.5 10.79999 99.700008 4.2999899 100 4.19999 100 3.9999898 100 3.8999897 100H4 3.9C4 100 4.2000005 100 4.3 100 10.9 100.3 17.400002 100.5 23.900002 101.2 30.500002 101.899997 37.2 102.799999 43.600004 104.2 50.100004 105.7 56.5 107.5 62.5 110.299999 68.5 113.1 74.1 116.7 78.8 121.299999 83.50001 125.899997 87.3 131.4 90.100009 137.29999 92.90001 143.29999 94.700008 149.69998 96.100009 156.19998 97.50001 162.69998 98.3 169.29999 98.90001 175.99999 99.50001 182.69998 99.80001 189.29999 100.00001 195.99999 100.00001 195.89998 100.00001 195.79999 100.00001 195.69998 100.00001 195.79999 100.00001 195.89998 100.00001 195.99999 100.200008 189.29999 100.50001 182.59999 101.100009 175.99999 101.700008 169.29999 102.50001 162.69998 103.90001 156.19998 105.30001 149.69998 107.100009 143.29999 109.90001 137.29999 112.70001 131.29999 116.50001 125.79999 121.20001 121.29999 125.90001 116.69999 131.50002 113.09999 137.50002 110.29999 143.50002 107.499988 149.90001 105.59999 156.40001 104.19999 162.90001 102.79999 169.50002 101.79999 176.1 101.19999 182.70001 100.49999 189.40001 100.19999 196.1 99.99999 196 100 195.9 100 195.9 100Z" fill="#ffffff"/>
</g>
<g clip-path="url(#clip_31)">
<g opacity=".07">
<g clip-path="url(#clip_32)">
<g clip-path="url(#clip_33)">
<g clip-path="url(#clip_34)">
<g clip-path="url(#clip_35)">
<path transform="matrix(.3159934,.701384,-.7002679,.31549058,727.62368,-246.12134)" d="M432.42 301.633C403.75804 257.77 350.12 232.13199 333.29603 180.21799 329.42903 168.28499 328.195 155.79799 323.76103 143.965 319.58903 132.832 313.93904 122.25 306.855 112.696 292.54603 93.4 272.29103 78.098 251.94101 65.659 230.41602 52.502 207.04701 42.408998 182.904 35.154 161.24 28.644 138.29701 23.369999 115.54401 25.862999 95.81901 28.023999 76.70401 37.024999 67.31601 55.341 57.36601 74.754 60.03801 98.552 68.35801 118.012 88.29001 164.633 141.11101 200.626 131.99402 256.751 124.806018 301.006 88.36401 333.60603 76.76802 376.392 65.07702 419.529 85.02002 468.947 128.82501 484.06703 149.18901 491.096 171.311 489.47203 190.11002 478.864 208.78302 468.32704 222.92603 451.708 238.76001 437.60603 247.1 430.178 256.048 423.268 266.19703 418.48603 279.161 412.377 293.502 410.454 307.717 410.484 333.173 410.538 358.368 416.44 383.863 414.172 403.943 412.386 424.575 405.58 437.006 388.764 449.319 372.10603 450.21803 349.969 445.127 330.528 442.442 320.283 438.085 310.571 432.42 301.633 431.99003 300.955 430.90803 301.582 431.341 302.264 443.221 321.00703 450.11003 344.667 445.38203 366.793 440.48 389.733 422.46903 404.735 400.31105 410.243 354.33604 421.67103 304.07704 395.747 260.59303 419.967 224.33502 440.16203 202.39603 485.806 156.70401 487.14903 133.973 487.81703 111.26901 477.98103 96.17901 460.98304 80.21301 442.99806 73.03201 418.12504 74.88101 394.33805 78.27701 350.64906 111.85802 317.75904 127.20401 278.39805 134.82901 258.83906 136.639 238.21504 130.08602 218.05904 122.50401 194.73804 106.92801 175.38004 92.695018 155.83704 77.932018 135.56703 63.694017 113.44504 62.322015 87.66804 61.087015 64.464038 71.45401 42.661039 93.21201 32.885038 113.31001 23.855038 137.19602 25.523037 158.19802 30.058037 182.21901 35.246038 205.725 43.200037 227.84001 53.93004 250.19002 64.77404 271.217 78.53804 289.47303 95.43204 307.64204 112.24603 320.428 133.46103 326.72505 157.42905 329.63905 168.51905 331.07106 179.51206 335.77604 190.10005 340.71205 201.20705 347.48905 211.43805 355.10804 220.87705 370.80705 240.32805 390.50804 255.98505 407.94203 273.77806 416.57 282.58406 424.59004 291.92805 431.34303 302.26206 431.779 302.935 432.862 302.31 432.42 301.633Z"/>
<path transform="matrix(.3159934,.701384,-.7002679,.31549058,727.62368,-246.12134)" d="M423.964 299.483C396.742 257.845 346.003 233.499 329.73799 184.37799 325.98799 173.05199 324.85298 161.146 320.68998 149.88098 316.78797 139.32198 311.49699 129.25899 304.84098 120.17298 291.35197 101.75898 272.22798 87.17498 252.93897 75.27698 232.98796 62.970979 211.34497 53.449979 188.97296 46.503976 168.25096 40.070978 146.29996 34.789976 124.44996 36.624979 105.76396 38.194978 87.18796 45.897977 77.41795 62.728979 66.846958 80.93998 68.82695 104.19498 76.540958 123.05398 94.678958 167.39199 144.68595 200.96399 138.25196 253.62699 133.00296 296.593 97.428958 328.24699 85.66895 369.055 73.830959 410.132 92.00996 457.818 133.78095 472.9 152.91194 479.807 173.95995 478.723 191.90595 469.014 209.74495 459.362 223.26595 443.728 238.11695 430.28 246.06995 423.079 254.55794 416.309 264.20396 411.508 276.34297 405.467 289.80897 403.336 303.26396 403.19599 327.67097 402.93998 351.80195 408.697 376.23695 406.82099 395.44593 405.347 415.36796 399.21998 427.61494 383.43 439.89595 367.596 441.00395 346.224 436.17094 327.417 433.626 317.506 429.432 308.119 423.964 299.483 423.535 298.805 422.453 299.432 422.88499 300.114 434.365 318.24504 441.024 341.308 436.00498 362.65403 430.87699 384.46604 413.26899 398.27104 392.08497 403.208 348.49098 413.368 300.98497 389.229 259.86598 412.4 225.19898 431.936 204.27097 475.492 160.23596 476.163 138.13396 476.5 116.22597 466.348 102.13796 449.343 87.54596 431.72999 81.31096 407.938 83.69796 385.34199 88.06696 343.98298 120.18696 313.03898 134.12796 275.19999 141.10196 256.271 142.00296 236.50498 135.18196 217.36598 127.32296 195.31699 112.272968 177.08199 98.76196 158.33199 85.10896 139.38498 72.36196 118.57199 71.46096 94.57199 70.59296 71.42499 82.11596 50.47499 104.30896 42.200994 123.38396 35.089994 144.93097 36.920995 164.40897 41.25999 187.75296 46.458993 210.55797 54.346994 231.95996 65.04299 252.59696 75.35599 271.97297 88.32599 288.82496 104.12099 306.11195 120.32298 318.05097 141.06099 323.73197 164.05399 326.28398 174.38098 327.83497 184.45398 332.29496 194.23299 337.09696 204.76099 343.62196 214.44699 350.92295 223.39499 365.83595 241.67099 384.43495 256.447 400.86994 273.266 408.98396 281.56999 416.52296 290.384 422.88496 300.11399 423.323 300.785 424.406 300.159 423.964 299.483Z"/>
<path transform="matrix(.3159934,.701384,-.7002679,.31549058,727.62368,-246.12134)" d="M415.507 297.332C389.491 257.572 340.551 234.227 325.66499 186.95801 322.266 176.164 321.09999 164.962 317.059 154.296 313.38499 144.599 308.47099 135.37401 302.347 127.00101 289.74299 109.772 271.91499 96.10701 253.92699 84.893009 234.607 72.84901 213.56899 63.575006 191.82898 56.870004 172.35498 50.864004 151.75998 45.924005 131.23699 47.599004 113.77399 49.025 96.361988 55.976 86.844989 71.450008 76.44899 88.353008 77.86499 110.336009 84.80998 128.23001 101.441989 171.08301 149.86399 202.781 144.11199 253.20201 139.38498 294.635 104.71698 324.98603 93.81398 364.41603 83.25498 402.60203 99.89998 446.657 138.19298 461.50404 156.22199 468.49403 176.41698 468.03105 193.68798 459.14503 211.12697 450.17204 224.22597 435.01304 238.53498 422.006 245.97397 415.243 253.87598 408.863 262.85099 404.24403 274.23298 398.38603 286.86799 396.16804 299.577 395.91804 323.166 395.45503 346.482 401.15003 370.091 399.34803 388.39503 397.95103 407.446 392.10804 419.061 377.00004 430.64903 361.92805 431.695 341.69703 427.099 323.84104 424.678 314.436 420.694 305.531 415.507 297.332 415.078 296.654 413.996 297.28 414.42799 297.963 425.36598 315.25303 431.67799 337.204 426.84199 357.544 421.87898 378.42 404.82499 391.435 384.55299 395.995 342.70399 405.41 297.08399 382.221 257.929 405.54499 225.64699 424.775 205.34499 465.507 163.44199 465.15199 142.62099 464.97499 122.24499 455.14997 109.177989 438.94398 95.82699 422.38398 90.10699 400.27796 92.24499 379.248 96.28099 339.555 127.30199 310.007 140.42499 273.63099 146.885 255.72599 147.57498 237.08599 141.08899 219.05698 133.452 197.82798 118.82499 180.33498 105.85299 162.23097 92.92599 144.18997 81.10499 124.310977 80.61999 101.489978 80.15599 79.64597 91.52299 60.321977 112.43199 52.762975 130.98999 46.053976 151.767 48.145975 170.60199 52.466974 192.18599 57.417974 213.25099 64.77597 233.07099 74.67297 252.86998 84.558979 271.45799 97.03597 287.567 112.24698 303.641 127.42498 314.783 146.88397 320.138 168.31998 322.639 178.33098 324.118 188.10898 328.471 197.58998 332.933 207.30898 338.92903 216.27399 345.647 224.56998 359.66603 241.87998 377.182 255.87798 392.76 271.69499 400.752 279.809 408.182 288.421 414.42604 297.964 414.867 298.634 415.95 298.008 415.507 297.332Z"/>
<path transform="matrix(.3159934,.701384,-.7002679,.31549058,727.62368,-246.12134)" d="M407.051 295.182C382.46 257.635 336.485 235.593 322.103 191.11801 318.758 180.77402 317.693 169.96701 313.807 159.725 310.174 150.149 305.281 141.059 299.138 132.856 287.045 116.709 270.087 103.86 253.032 93.344 234.457 81.891 214.241 73.126 193.363 66.836 175.091 61.329999 155.81401 56.881998 136.61002 58.690999 120.03101 60.253 103.69202 67.272998 95.06102 82.21 85.54502 98.679 87.39402 119.608 94.36902 136.633 110.99402 177.211 157.30303 208.092 149.45203 256.616 143.27303 294.804 111.69903 322.835 101.95103 359.844 92.32003 396.409 109.081027 438.097 145.92803 451.354 162.78403 457.418 181.38303 456.629 197.31702 448.30003 213.89102 439.63603 226.31502 425.131 240.00902 412.77104 247.13503 406.34004 254.73502 400.30705 263.37303 396.02604 274.35603 390.58305 286.53004 388.70906 298.69203 388.60203 321.014 388.40504 343.087 393.74604 365.43605 391.75303 382.38203 390.24104 399.79203 384.557 410.50306 370.57203 421.42707 356.308 422.37306 337.13304 418.02305 320.26704 415.73 311.364 411.956 302.943 407.051 295.182 406.622 294.504 405.54 295.13 405.972 295.81303 416.12599 311.87904 422.05198 332.105 417.991 351.06404 413.638 371.385 397.363 384.19203 377.731 388.61805 338.33799 397.49906 295.387 375.75706 258.413 397.27906 227.693 415.16105 208.631 453.89607 169.18 454.14506 149.57599 454.26905 130.165 445.28907 117.60999 430.23307 104.562 414.58607 98.86699 393.47706 100.77999 373.32606 104.33699 335.87007 133.41899 307.83106 146.11899 273.70704 152.35498 256.95103 153.385 239.37804 147.551 222.33304 140.715 202.36203 127.2 185.83405 114.98999 168.96404 102.49399 151.69803 90.67499 132.74803 89.85399 110.82103 89.07499 90.01503 99.39799 71.29003 119.28499 63.78503 136.47998 57.296033 156.01599 59.01803 173.583 62.94503 194.254 67.56603 214.452 74.52203 233.439 83.93003 252.183 93.21703 269.801 104.92703 285.10099 119.22803 300.71598 133.82303 311.52699 152.42304 316.68998 173.16603 319.05799 182.68003 320.48597 191.95003 324.64299 200.94704 328.882 210.12004 334.56599 218.58104 340.92198 226.41204 354.29997 242.89504 371.01298 256.20805 385.82899 271.31605 393.257 278.89006 400.15199 286.92704 405.972 295.81306 406.411 296.483 407.493 295.857 407.051 295.182Z"/>
<path transform="matrix(.3159934,.701384,-.7002679,.31549058,727.62368,-246.12134)" d="M398.594 293.031C375.443 257.706 332.366 236.964 318.543 195.276 315.316 185.542 314.343 175.31601 310.737 165.641 307.381 156.636 302.83399 148.07102 297.128 140.33301 285.871 125.06701 270.012 112.923007 254.02199 102.96301 236.54099 92.07401 217.50699 83.71501 197.827 77.694019 180.553 72.40901 162.289 68.08102 144.09999 69.599018 128.26 70.92101 112.50499 77.35501 104.104999 91.55302 95.190998 106.62002 96.48499 125.99002 102.635997 141.80503 117.80399 180.80702 162.388 209.86803 155.35399 256.05903 149.799 292.53804 119.41299 319.247 110.28799 354.57405 101.290988 389.40406 117.75699 428.90104 152.99298 440.92005 169.28299 446.47605 186.97298 445.22706 202.05298 436.84904 217.15699 428.45603 228.61098 415.09403 241.32498 403.68803 248.02698 397.67503 255.19698 392.04603 263.33399 388.09504 274.063 382.88505 285.969 381.25804 297.79399 381.30204 318.43397 381.37904 338.85899 386.14805 359.53099 384.25303 375.49699 382.79 391.91499 377.372 401.94898 364.14 412.18498 350.64103 413.06498 332.601 408.95298 316.68803 406.782 308.294 403.219 300.355 398.594 293.031 398.166 292.353 397.08399 292.979 397.51499 293.66203 407.236 309.06004 412.87199 328.514 408.67298 346.63804 404.326 365.39903 389.08699 377.13703 370.89399 381.24604 333.977 389.58406 293.81498 369.34706 259.01499 388.95506 229.986 405.31105 212.29199 441.83406 175.65598 443.09706 156.72698 443.75007 137.81298 435.37007 125.56897 420.93104 112.97797 406.08406 107.51097 385.88005 109.39197 366.64103 112.85197 331.24903 140.37897 304.77604 152.30097 272.46803 158.13397 256.66 159.01697 240.06201 153.46396 224.02301 147.02796 205.434 134.50797 190.00002 123.10596 174.28202 111.094959 157.723 99.67596 139.56401 99.038959 118.487018 98.442958 98.765018 108.49095 81.196018 127.40796 74.347019 144.12596 68.294017 162.82096 70.24402 179.77997 74.154018 199.23097 78.638019 218.21097 85.320018 236.04398 94.306018 253.62699 103.166019 270.16499 114.321018 284.442 127.916019 298.75599 141.54701 308.59199 159.03601 313.29399 178.21202 315.56098 187.45603 317.041 196.38002 321.179 205.06902 325.271 213.66202 330.69999 221.58802 336.73799 228.92302 349.16099 244.01403 364.50398 256.32203 378.17698 270.21104 385.31098 277.45805 391.93397 285.14704 397.51597 293.66404 397.954 294.332 399.037 293.707 398.594 293.031Z"/>
<path transform="matrix(.3159934,.701384,-.7002679,.31549058,727.62368,-246.12134)" d="M390.138 290.881C368.172 257.403 327.016 237.69202 314.473 197.86103 311.606 188.75603 310.62599 179.31502 307.19999 170.32102 304.01399 161.95702 299.73899 154.01302 294.391 146.82901 283.44099 132.121 267.95899 120.45301 252.413 110.977008 235.86899 100.893009 217.90599 93.185009 199.34999 87.661 182.86899 82.755008 165.41399 78.821 148.12799 80.840007 133.16599 82.588008 118.77199 89.567 111.72899 103.487 104.374988 118.020999 106.20199 135.729 112.261989 150.36 127.427989 186.977 169.31598 214.857 160.66399 258.909 154.04999 292.581 126.02998 317.346 118.28099 350.69599 110.72999 383.197 126.68499 419.34599 159.359 430.244 174.808 435.39698 191.48099 434.037 205.672 425.98799 219.702 418.02998 230.379 405.57197 242.269 394.93199 248.817 389.07298 255.84799 383.615 263.861 379.904 273.905 375.25199 285.017 373.909 295.987 374.01399 315.42 374.19999 334.658 378.64399 354.124 376.71098 368.966 375.23698 384.10499 370.02699 393.388 357.71199 402.959 345.01399 403.744 328.04399 399.877 313.11399 397.834 305.222 394.481 297.768 390.138 290.881 389.71 290.20204 388.628 290.829 389.059 291.51203 398.09999 305.85005 403.423 323.94303 399.671 340.84803 395.70899 358.70103 381.38099 369.96504 364.073 373.87403 329.61799 381.65605 292.086 362.851 259.504 380.71003 231.85199 395.86705 215.231 430.653 180.67099 432.07304 162.943 432.80104 145.191 425.084 133.57498 411.69203 121.69098 397.99104 116.42698 379.22804 117.874988 361.295 120.552989 328.134 146.10099 303.105 157.73899 273.19303 163.41599 258.60203 164.84699 243.18602 160.16199 228.10402 154.678 210.45102 143.01699 195.71701 132.25899 181.01902 120.93799 165.55202 109.85799 148.85102 108.36398 129.19602 106.942989 110.501018 115.50198 92.888019 133.39199 85.707019 148.92798 79.471019 166.79698 81.056018 182.75598 84.63102 201.29898 88.78502 219.40699 95.07102 236.41399 103.56302 253.193 111.94202 268.95698 122.53102 282.573 135.46202 296.342 148.53803 305.689 165.40302 310.037 183.86002 311.969 192.06401 313.36698 199.95102 316.99198 207.65802 320.91398 215.99703 326.15299 223.67002 332.00599 230.76602 343.77699 245.03502 358.33 256.65403 371.23899 269.829 377.81 276.535 383.90199 283.653 389.059 291.513 389.498 292.181 390.581 291.556 390.138 290.881Z"/>
<path transform="matrix(.3159934,.701384,-.7002679,.31549058,727.62368,-246.12134)" d="M381.682 288.73C361.042 257.31404 322.226 238.73702 310.667 201.233 308.037 192.7 307.086 183.894 303.853 175.49 300.767 167.46901 296.618 159.875 291.422 153.024 281.23899 139.594 266.992 128.892 252.708 120.161 237.467 110.845 220.911 103.68 203.823 98.518009 188.327 93.837009 171.918 90.024 155.63 91.728008 141.65702 93.19 128.042 99.369 121.10701 112.171009 113.81801 125.62701 115.24701 142.39801 120.78801 156.192 134.639 190.67 173.92902 216.504 166.71102 257.67903 161.17502 289.25804 134.94202 312.48 127.13202 343.33903 119.42102 373.81105 133.67201 408.24604 164.31803 419.08705 178.79503 424.20906 194.60002 423.22105 208.08702 415.80503 221.41402 408.47804 231.52202 396.709 242.68903 386.653 248.71402 381.22703 255.16403 376.148 262.50404 372.61503 272.08103 368.00505 282.71003 366.62403 293.24604 366.71504 311.54005 366.87303 329.66505 371.10203 347.98805 369.23805 362.19303 367.79304 376.60704 362.72105 385.24104 350.71406 393.76603 338.85807 394.37004 323.27207 390.80503 309.54005 388.886 302.151 385.744 295.181 381.682 288.73 381.254 288.05104 380.172 288.678 380.603 289.36103 389.1 302.855 394.083 319.842 390.511 335.73805 386.70899 352.66004 372.93 363.11103 356.541 366.65605 324.05 373.68403 288.72499 356.03605 258.175 373.48405 232.56499 388.11106 216.788 420.44004 184.20798 421.09706 147.42998 421.83906 122.59198 387.09806 126.70998 352.32905 130.33498 321.72804 154.05998 298.74604 164.41298 270.64607 169.40998 257.08406 170.34098 242.83606 165.81899 228.99306 160.42798 212.48805 149.42798 198.75705 139.34299 184.92105 128.75499 170.39505 118.49499 154.58005 117.48299 136.09806 116.512989 118.39705 125.15698 102.318058 142.15898 96.00705 156.76699 90.58505 173.28598 92.25505 188.14298 95.65505 205.47599 99.622058 222.39098 105.55005 238.27097 113.567058 269.45097 129.30905 298.01997 152.78907 306.44398 188.10706 308.32899 196.01107 309.65397 203.58606 313.16999 211.00806 316.741 218.54506 321.46299 225.49506 326.731 231.94306 337.77699 245.46605 351.51899 256.43208 363.716 268.85105 369.945 275.19306 375.714 281.92207 380.601 289.36006 381.042 290.03 382.125 289.405 381.682 288.73Z"/>
<path transform="matrix(.3159934,.701384,-.7002679,.31549058,727.62368,-246.12134)" d="M373.225 286.579C353.906 257.216 317.453 239.779 306.852 204.60701 304.374 196.38701 303.409 187.983 300.214 179.927 297.37599 172.771 293.59999 165.995 288.93699 159.867 279.455 147.407 266.266 137.466 252.99698 129.345 238.80098 120.655 223.39798 113.968 207.48398 109.133 193.00098 104.732 177.65299 101.146 162.41999 102.69701 149.61499 104.00101 137.08298 109.48301 130.42299 121.022 122.93899 133.988 124.48599 150.43001 130.03099 163.792 143.30799 195.79102 179.702 219.994 172.374 258.476 166.76 287.957 142.14099 309.62403 135.30399 338.75703 128.65999 367.07 142.36998 398.725 170.79099 408.45603 183.90799 412.94703 198.21199 412.15003 210.49399 405.61305 223.11598 398.89405 232.646 387.84904 243.10999 378.37504 248.96199 373.07603 255.22798 368.10505 262.40599 364.71803 271.46498 360.44303 281.52998 359.28404 291.44798 359.432 308.53898 359.68803 325.47398 363.587 342.59297 361.68 355.65596 360.225 368.80796 355.37199 376.67396 344.287 384.52796 333.22 385.05595 318.72999 381.73197 305.966 379.938 299.081 377.006 292.594 373.225 286.579 372.798 285.90003 371.716 286.526 372.146 287.21003 380.091 299.846 384.757 315.752 381.35 330.62605 377.755 346.32304 364.924 355.98905 349.715 359.27806 319.447 365.82307 286.541 349.42304 258.055 365.57206 234.02899 379.19206 219.36699 409.45405 188.87 410.08207 154.786 410.78306 131.63899 378.67008 135.237 346.40107 138.429 317.77308 160.58 296.25407 170.351 270.06108 175.027 257.52607 176.028 244.34307 171.98999 231.48007 167.13599 216.02108 156.88999 203.13307 147.46799 190.24207 137.55899 176.68607 127.82399 161.96207 126.71699 144.70607 125.62999 127.75907 133.88599 112.36107 150.29599 106.571079 164.13399 101.68907 179.538 103.417079 193.52199 106.67908 209.64299 110.44008 225.374 116.03508 240.12198 123.56808 268.78898 138.21009 294.977 159.87808 302.856 192.36408 304.624 199.65407 305.797 206.72708 308.99 213.59908 312.254 220.62207 316.599 227.11208 321.464 233.12207 331.62 245.66808 344.266 255.85507 355.599 267.27308 361.708 273.42808 367.374 279.95408 372.148 287.21009 372.586 287.879 373.669 287.254 373.225 286.579Z"/>
<path transform="matrix(.3159934,.701384,-.7002679,.31549058,727.62368,-246.12134)" d="M364.769 284.429C346.888 257.283 313.341 241.15198 303.282 208.76499 301.02903 201.51198 300.23204 193.99898 297.535 186.83599 294.868 179.75299 291.238 173.03299 286.673 166.98999 277.94203 155.43099 265.76103 146.20899 253.50601 138.66199 240.14601 130.43399 225.62401 124.123989 210.61602 119.58499 197.07901 115.49099 182.72702 112.16999 168.501 113.73799 156.923 115.01399 145.619 120.023998 139.46501 130.36299 132.58202 141.92699 133.58101 156.79799 138.28702 168.954 149.88402 198.907 184.29901 221.224 178.49802 256.736 173.95102 284.568 150.74602 304.935 143.99503 332.068 137.42302 358.47999 149.93503 388.224 176.46103 397.535 188.41204 401.73 201.56504 401.191 212.88904 395.411 224.81104 389.32603 233.77805 378.991 243.52704 370.1 248.86104 365.236 254.54404 360.64903 261.04606 357.436 269.38407 353.316 278.65107 352.068 287.86607 352.121 303.85908 352.212 319.70008 355.965 335.71708 354.286 347.90809 353.009 360.28309 348.64103 367.74409 338.376 375.15809 328.176 375.77708 314.734 372.7761 302.854 371.122 296.304 368.353 290.143 364.769 284.429 364.34303 283.749 363.26103 284.37599 363.69 285.06 371.133 296.926 375.491 311.871 372.114 325.805 368.505 340.693 355.92204 349.448 341.446 352.202 313.579 357.504 283.43803 342.918 257.33003 358.01 235.17603 370.816 221.50702 398.758 193.14902 399.082 160.42201 399.456 139.06102 367.44203 144.27402 336.797 148.67502 310.91999 168.77802 291.534 177.11702 267.172 181.21802 255.191 181.42902 242.75 177.09102 230.786 172.11103 217.053 162.85602 205.571 154.37003 193.89099 145.39603 181.53899 136.76403 168.04399 135.87903 152.359 134.99803 136.743 142.71204 122.687999 157.78104 117.36299 170.69603 112.79799 185.09404 114.46399 198.13704 117.52899 213.05304 121.03399 227.60204 126.22299 241.24805 133.206 268.43907 147.12 292.95106 167.78299 299.76905 198.806 301.27906 205.678 302.72306 212.114 305.89106 218.464 308.96208 224.619 312.90608 230.321 317.27207 235.62401 326.82307 247.22402 338.63609 256.667 349.13008 267.362 354.50007 272.835 359.46708 278.646 363.69007 285.05799 364.13 285.729 365.213 285.103 364.769 284.429Z"/>
<path transform="matrix(.3159934,.701384,-.7002679,.31549058,727.62368,-246.12134)" d="M356.312 282.278C339.639 257.01603 307.931 241.86902 299.242 211.36103 297.329 204.64403 296.467 197.82202 293.897 191.26102 291.462 185.04602 288.217 179.15702 284.186 173.83402 276.008 163.03401 264.577 154.42401 253.09 147.41301 240.741 139.876 227.332 134.10301 213.48099 129.96 200.971 126.21801 187.71099 123.20901 174.58599 124.785 163.95099 126.062007 153.70398 130.81401 148.13799 140.352 141.92798 150.994 142.90699 164.61101 147.20099 175.742 157.971 203.664 190.14499 224.375 184.172 257.548 179.538 283.28303 157.909 302.081 152.173 327.501 146.703 351.74403 158.573 378.571 182.824 386.86103 193.934 390.65904 206.07901 390.02104 216.521 384.56703 227.579 378.79103 235.867 369.10704 245.004 360.86604 250.013 356.34803 255.409 352.05104 261.586 349.239 269.553 345.612 278.253 344.661 286.927 344.851 301.486 345.169 315.926 348.45103 330.51 346.709 341.263 345.424 352.04103 341.43504 358.751 332.519 365.87803 323.049 366.526 310.436 363.704 299.27903 362.173 293.232 359.615 287.555 356.312 282.278 355.88603 281.59803 354.80403 282.22404 355.233 282.90904 362.23503 294.09605 366.327 308.29203 362.78 321.37205 359.09 334.97706 347.225 342.59605 333.941 344.94706 308.284 349.48805 280.519 336.21806 256.605 350.45606 236.15901 362.62907 223.28202 388.50807 196.69202 388.06806 166.80202 387.57307 147.81502 358.01606 152.92302 330.02705 157.26003 306.26405 175.76403 288.46305 183.28603 265.93705 186.87403 255.19104 187.06403 244.01204 183.28003 233.27005 178.71002 220.29505 169.94803 209.50806 161.97704 198.51006 153.83403 187.27405 146.01204 175.01605 145.09503 160.78105 144.14003 145.96906 151.51103 132.72205 165.91204 127.93105 177.75403 123.99205 190.80603 125.55905 202.69704 128.36905 216.68604 131.67505 230.32505 136.58405 243.08805 143.21105 256.44706 150.14705 269.56904 159.01905 279.66105 170.28505 285.24705 176.52106 289.63505 183.80605 292.69206 191.59305 295.46406 198.65505 296.21406 206.09105 298.51106 213.25106 308.06504 243.03705 338.70704 257.86906 355.23304 282.90806 355.674 283.578 356.757 282.952 356.312 282.278Z"/>
<path transform="matrix(.3159934,.701384,-.7002679,.31549058,727.62368,-246.12134)" d="M347.856 280.128C332.40299 256.77 302.495 242.57799 295.237 213.961 292.143 201.761 289.427 190.79599 281.61 180.547 273.84 170.36 262.914 162.256 251.97998 155.748 241.06899 149.254 229.29898 144.226 217.14598 140.572 205.64998 137.11602 193.44399 134.32 181.37299 135.744 171.46898 136.912 161.87899 141.37001 156.81499 150.336 151.30599 160.09 152.20099 172.386 156.11199 182.52899 165.92598 207.98099 195.14398 226.80799 190.07999 256.992 186.04698 281.03 165.555 298.46 160.52399 322.229 155.87499 344.195 166.64798 368.297 188.486 375.95 198.888 379.596 210.28 378.97 220.036 373.777 230.00699 368.469 237.511 359.72203 245.789 352.255 250.538 347.97203 255.644 343.946 261.525 341.331 270.065 337.533 279.531 337.195 288.72 337.746 303.032 338.605 317.511 341.607 331.67903 337.862 343.09403 334.845 352.401 327.006 355.16304 315.233 357.986 303.195 354.258 290.383 347.856 280.128 347.431 279.447 346.349 280.074 346.77699 280.759 353.223 291.083 357.00199 304.203 353.61 316.252 350.125 328.63203 339.21299 335.467 327.10499 337.57603 303.46199 341.69303 278.00398 329.50904 256.01899 342.824 237.55098 354.009 225.79599 377.349 201.69399 377.05903 173.69998 376.72203 156.18299 348.56404 161.72899 322.56303 166.32599 301.00703 183.18099 284.846 189.65799 264.04103 196.95699 240.59502 183.25499 221.932 170.08399 203.81401 162.28798 193.09001 154.73398 181.363 154.22899 167.69202 153.74098 154.47801 160.61899 142.95201 173.396 138.72602 184.85199 134.93701 197.41699 136.75902 208.854 139.59702 221.08301 142.63101 233.001 147.01102 244.182 152.83402 256.444 159.22002 268.522 167.39601 277.741 177.79602 282.855 183.56502 286.874 190.31603 289.63 197.51203 291.923 203.49703 292.678 209.75003 294.461 215.85303 302.616 243.76703 331.467 257.61805 346.777 280.76 347.218 281.426 348.301 280.801 347.856 280.128Z"/>
<path transform="matrix(.3159934,.701384,-.7002679,.31549058,727.62368,-246.12134)" d="M339.399 277.977C325.38099 256.826 298.396 243.95899 291.651 218.124 288.691 206.788 286.301 196.66599 278.954 187.163 271.95603 178.111 262.22303 170.89099 252.47202 165.051 242.16501 158.87799 230.99301 154.161 219.47002 150.791 209.16402 147.77701 198.24802 145.384 187.46302 146.796 178.54502 147.964 169.92902 152.15001 165.50202 160.31801 160.93901 168.73702 161.44002 179.11101 164.51201 187.93502 172.87401 211.95102 200.67601 229.01001 195.865 257.118 192.13701 278.896 173.593 294.69703 169.03401 316.25703 164.77501 336.398 174.755 358.46104 194.85202 365.27903 204.41103 368.52204 214.78603 367.79304 223.65602 362.92903 232.34302 358.165 238.96903 350.56404 246.21202 343.97703 251.35802 339.29804 256.93904 334.96403 263.57203 332.62904 271.02604 330.00505 279.058 329.976 286.85005 330.51805 299.72404 331.41404 312.86305 333.95704 325.55805 330.29005 349.687 323.318 351.014 296.636 339.399 277.977 338.97499 277.29499 337.89299 277.922 338.31999 278.608 344.10499 287.901 347.516 299.595 344.61598 310.457 341.46797 322.25 331.02497 328.543 319.53999 330.316 298.57899 333.553 276.05799 323.157 256.48698 334.561 239.39597 344.52003 228.74997 366.239 206.69898 366.048 180.86597 365.824 164.96097 339.752 170.39897 315.892 174.78298 296.65299 189.74198 282.115 195.60097 263.469 202.32997 242.055 189.70897 224.97299 177.69097 208.43 170.72896 198.846 163.95996 188.31499 163.43596 176.11299 162.91396 163.956 169.12596 153.443 180.87897 149.51999 190.83698 146.19599 201.89897 147.66599 211.87497 150.062 223.73097 152.91 235.28197 157.14299 246.05597 162.867 256.97499 168.668 267.77897 176.054 275.93699 185.442 280.766 190.99901 284.464 197.508 286.93 204.437 288.921 210.032 289.461 215.959 291.392 221.54599 299.766 245.777 324.676 258.02299 338.32 278.608 338.762 279.275 339.845 278.65 339.399 277.977Z"/>
<path transform="matrix(.3159934,.701384,-.7002679,.31549058,727.62368,-246.12134)" d="M330.943 275.826C318.246 256.732 293.664 245.00099 287.87599 221.50899 285.44898 211.65999 283.10398 202.76898 276.85899 194.50998 270.56098 186.18198 261.66398 179.57299 252.77198 174.23998 243.51598 168.68898 233.49198 164.44797 223.14597 161.40297 213.63597 158.60398 203.50496 156.38997 193.56098 157.85297 186.02898 158.96097 178.86098 162.47898 174.82498 169.17397 169.96698 177.23297 170.67398 187.60797 173.93799 196.10297 182.13999 217.44898 206.79499 233.13997 201.39798 258.58598 197.29398 277.93699 180.68698 292.11396 177.25998 311.75697 174.17198 329.45997 183.16399 348.35798 200.62299 354.39698 208.98999 357.291 218.18999 356.83699 226.06598 352.72697 234.04099 348.56596 240.09598 341.69798 246.63498 335.69798 251.41498 331.31199 256.61198 327.17698 262.822 325.03898 269.362 322.78599 276.36 322.71397 283.18699 323.15998 295.03099 323.93299 307.08299 326.36198 318.74598 322.88999 340.329 316.466 341.303 292.529 330.943 275.826 330.52 275.14399 329.438 275.771 329.86399 276.457 335.09599 284.893 338.18998 295.497 335.447 305.333 332.28 316.695 321.63999 322.03703 310.641 323.189 292.315 325.109 272.73399 316.76 255.771 327.003 240.67099 336.12199 231.06299 355.22099 211.392 355.025 188.497 354.798 174.302 331.841 178.751 310.613 182.386 293.266 195.839 280.164 201.32901 263.55003 207.604 244.56302 197.13602 229.21802 186.3 214.41703 179.983 205.78803 173.619 196.45003 172.714 185.47502 171.75601 173.85103 177.57901 163.53102 189.016 160.11902 198.21701 157.37403 208.10102 158.82701 217.22801 161.09702 227.60501 163.67801 237.699 167.44503 247.13802 172.48302 256.967 177.72902 266.71803 184.42302 274.00303 192.94303 278.187 197.83603 281.40403 203.53102 283.571 209.58603 285.45503 214.84903 285.927 220.45104 287.842 225.68204 295.696 247.13105 317.639 258.07405 329.863 276.45704 330.307 277.124 331.39 276.499 330.943 275.826Z"/>
<path transform="matrix(.3159934,.701384,-.7002679,.31549058,727.62368,-246.12134)" d="M322.486 273.676C311.07899 256.59199 289.052 246.056 284.09199 224.90399 281.97099 215.85799 279.53398 207.756 273.59999 200.368 267.61698 192.91899 259.356 186.985 251.11399 182.27899 236.47899 173.922 216.67398 166.01399 199.50199 168.94699 182.39899 171.868 177.06299 188.749 183.17198 203.67099 190.97498 222.73099 212.87998 236.99999 206.84998 260.02299 202.42498 276.917 187.77698 289.611 185.55098 307.304 183.54398 323.25599 192.39498 339.70799 208.36899 344.145 226.215 349.10099 237.09299 336.123 249.15399 325.52699 253.45099 321.75199 258.11799 318.52699 263.684 316.95799 269.947 315.19297 276.58699 315.52098 282.996 316.07899 292.786 316.93299 302.925 318.50099 312.49 315.32899 331.07 309.167 331.446 288.185 322.486 273.676 322.064 272.99299 320.982 273.62 321.40699 274.307 325.935 281.64 328.79899 290.969 326.46699 299.552 323.92198 308.919 315.83799 313.952 306.66999 315.431 290.13999 318.097 272.43598 309.903 256.85298 318.411 243.05397 325.946 234.95796 342.987 217.83097 343.983 196.73096 345.21 183.31197 323.887 187.25997 304.641 190.36296 289.51399 201.99797 277.981 207.05297 263.625 212.75096 247.443 204.86296 233.91699 195.41696 221.08499 189.97097 213.687 184.14797 205.95699 182.36197 196.73499 180.34697 186.33298 184.12497 175.52799 194.57297 171.55098 202.73697 168.44298 211.96897 169.58599 220.24497 171.56298 229.44696 173.76097 238.41297 176.99997 246.81296 181.36397 255.92096 186.09497 264.94398 192.17697 271.67997 200.00698 275.48097 204.42498 278.37898 209.55797 280.32597 215.04598 281.95097 219.62697 282.38096 224.49597 284.02696 229.05397 290.93495 248.18198 310.49897 257.972 321.40696 274.30799 321.851 274.972 322.935 274.347 322.486 273.676Z"/>
<path transform="matrix(.3159934,.701384,-.7002679,.31549058,727.62368,-246.12134)" d="M314.03 271.525C303.906 256.445 284.481 247.121 280.345 228.303 278.643 220.55699 276.225 213.47299 271.137 207.22899 266.027 200.958 259.104 195.93599 252.152 191.89099 239.403 184.47299 222.183 177.55899 207.14699 179.777 193.15499 181.84099 187.04 194.51399 191.03899 207.569 196.43898 225.194 217.163 237.296 213.20398 257.669 210.21099 273.069 196.85198 284.245 194.28398 299.846 192.01898 313.603 199.12998 328.152 212.65499 332.798 227.97599 338.062 238.13199 327.697 248.52199 318.194 252.32498 314.716 256.44499 311.468 261.408 309.84 266.991 308.009 272.98399 308.195 278.76499 308.668 287.47099 309.381 296.485 310.906 305.00999 308.143 321.483 302.806 321.925 284.41 314.03 271.525 313.61 270.84 312.529 271.46699 312.951 272.156 317.104 278.935 319.634 287.59703 317 295.419 314.002 304.32203 305.061 307.827 296.394 308.407 282.418 309.342 267.76 303.52003 254.93502 311.556 243.40802 318.779 235.89601 333.329 220.67002 333.005 201.792 332.603 191.47402 312.713 196.49102 295.87303 200.322 283.014 210.48902 273.03703 213.932 260.032 217.67002 245.91202 209.44 234.51102 201.514 223.65201 196.55301 216.85501 191.55301 209.45601 191.04302 200.78601 190.50302 191.59401 195.57 183.82602 204.62802 181.53801 219.09702 177.884 236.85303 184.945 249.36402 191.76201 257.043 195.94602 264.709 201.26702 270.25303 208.11402 273.493 212.11602 275.92704 216.78902 277.484 221.69002 278.687 225.47702 279.05903 229.45702 280.484 233.17502 286.752 249.53401 303.484 258.05604 312.95103 272.157 313.397 272.821 314.48 272.196 314.03 271.525Z"/>
<path transform="matrix(.3159934,.701384,-.7002679,.31549058,727.62368,-246.12134)" d="M305.573 269.375C296.887 256.496 280.387 248.51 276.752 232.47299 275.28004 225.97699 273.38 220.094 269.204 214.76799 264.948 209.34 259.06303 204.999 253.167 201.49799 242.237 195.00798 227.58 189.081 214.621 190.64699 203.019 192.04898 197.001 201.773 199.606 212.97798 203.312 228.92298 222.295 239.21799 219.121 257.11198 216.737 270.55198 204.95 280.23399 202.811 293.80897 201.015 305.20698 206.623 317.28797 217.634 321.61997 230.782 326.79298 239.92401 318.27699 248.939 309.92997 252.388 306.73698 256.097 303.70997 260.648 302.26197 265.58103 300.69197 270.86003 300.94798 275.946 301.38496 283.55104 302.03797 291.49803 303.27696 298.85704 300.50596 312.277 295.451 312.023 279.986 305.573 269.375 305.156 268.689 304.074 269.316 304.494 270.006 308.09199 275.92604 310.31999 283.49903 307.80799 290.282 304.85798 298.24903 296.512 300.78703 288.77299 300.993 276.666 301.315 264.495 296.922 253.63599 304.418 244.10298 310.998 237.34899 323.061 224.208 321.923 207.76 320.49803 200.42499 302.807 205.471 288.557 209.308 277.72 218.28099 268.97203 220.325 257.445 222.399 245.751 215.04199 236.498 208.62 227.58402 204.411 221.74202 200.168 215.21202 200.19499 207.73102 200.22499 199.53102 205.36699 193.51102 213.431 192.07701 226.331 189.78401 241.719 196.15502 252.536 202.57901 259.134 206.49701 265.715 211.45401 269.955 217.95702 274.089 224.29602 274.301 231.31302 277.257 238.01502 283.073 251.20001 296.615 258.328 304.49299 270.00804 304.941 270.669 306.025 270.044 305.573 269.375Z"/>
<path transform="matrix(.3159934,.701384,-.7002679,.31549058,727.62368,-246.12134)" d="M297.117 267.224C289.384 255.866 275.971 249.377 272.845 235.105 270.243 223.224 261.9 215.265 251.499 209.569 242.374 204.571 229.825 199.58301 219.24199 201.964 209.82498 204.08301 206.39398 213.18701 209.11899 221.921 213.22299 235.07501 228.71298 243.823 224.43299 259.239 221.45699 269.95603 211.99098 278.03004 211.14398 289.501 210.41399 299.376 216.24999 309.129 226.10799 311.642 236.84099 314.378 243.527 306.813 250.77999 300.351 257.422 294.433 264.35499 293.33003 273.09 294.101 279.587 294.674 286.548 295.664 292.687 292.782 302.965 287.956 302.187 275.658 297.117 267.224 296.703 266.535 295.622 267.163 296.038 267.855 299.087 272.92604 300.947 279.31303 298.569 285.02903 295.654 292.03804 287.964 293.63804 281.116 293.497 271.918 293.308 262.54499 290.573 254.262 296.002 246.41399 301.14503 241.12999 311.019 230.672 310.988 215.939 310.943 209.356 294.931 214.023 282.627 217.236 274.156 223.996 267.216 225.976 258.24003 228.082 248.69103 222.597 240.90102 217.229 233.56803 213.973 229.11902 210.57701 224.38503 209.65201 218.82003 208.42601 211.45003 212.098 204.85703 219.57501 203.17003 229.97702 200.82202 242.712 206.04604 251.59502 211.04703 257.522 214.38303 263.532 218.73503 267.281 224.51903 270.61503 229.66303 270.9 235.32903 273.173 240.79003 277.84303 252.00803 289.37303 258.06803 296.038 267.85603 296.488 268.516 297.571 267.891 297.117 267.224Z"/>
</g>
</g>
</g>
</g>
</g>
<g opacity=".07">
<g clip-path="url(#clip_36)">
<g clip-path="url(#clip_37)">
<g clip-path="url(#clip_38)">
<g clip-path="url(#clip_39)">
<path transform="matrix(.9454459,-.15618074,.15628264,.94606277,-281.32829,615.6839)" d="M432.42 301.633C403.75804 257.77 350.12 232.13199 333.29603 180.21799 329.42903 168.28499 328.195 155.79799 323.76103 143.965 319.58903 132.832 313.93904 122.25 306.855 112.696 292.54603 93.4 272.29103 78.098 251.94101 65.659 230.41602 52.502 207.04701 42.408998 182.904 35.154 161.24 28.644 138.29701 23.369999 115.54401 25.862999 95.81901 28.023999 76.70401 37.024999 67.31601 55.341 57.36601 74.754 60.03801 98.552 68.35801 118.012 88.29001 164.633 141.11101 200.626 131.99402 256.751 124.806018 301.006 88.36401 333.60603 76.76802 376.392 65.07702 419.529 85.02002 468.947 128.82501 484.06703 149.18901 491.096 171.311 489.47203 190.11002 478.864 208.78302 468.32704 222.92603 451.708 238.76001 437.60603 247.1 430.178 256.048 423.268 266.19703 418.48603 279.161 412.377 293.502 410.454 307.717 410.484 333.173 410.538 358.368 416.44 383.863 414.172 403.943 412.386 424.575 405.58 437.006 388.764 449.319 372.10603 450.21803 349.969 445.127 330.528 442.442 320.283 438.085 310.571 432.42 301.633 431.99003 300.955 430.90803 301.582 431.341 302.264 443.221 321.00703 450.11003 344.667 445.38203 366.793 440.48 389.733 422.46903 404.735 400.31105 410.243 354.33604 421.67103 304.07704 395.747 260.59303 419.967 224.33502 440.16203 202.39603 485.806 156.70401 487.14903 133.973 487.81703 111.26901 477.98103 96.17901 460.98304 80.21301 442.99806 73.03201 418.12504 74.88101 394.33805 78.27701 350.64906 111.85802 317.75904 127.20401 278.39805 134.82901 258.83906 136.639 238.21504 130.08602 218.05904 122.50401 194.73804 106.92801 175.38004 92.695018 155.83704 77.932018 135.56703 63.694017 113.44504 62.322015 87.66804 61.087015 64.464038 71.45401 42.661039 93.21201 32.885038 113.31001 23.855038 137.19602 25.523037 158.19802 30.058037 182.21901 35.246038 205.725 43.200037 227.84001 53.93004 250.19002 64.77404 271.217 78.53804 289.47303 95.43204 307.64204 112.24603 320.428 133.46103 326.72505 157.42905 329.63905 168.51905 331.07106 179.51206 335.77604 190.10005 340.71205 201.20705 347.48905 211.43805 355.10804 220.87705 370.80705 240.32805 390.50804 255.98505 407.94203 273.77806 416.57 282.58406 424.59004 291.92805 431.34303 302.26206 431.779 302.935 432.862 302.31 432.42 301.633Z"/>
<path transform="matrix(.9454459,-.15618074,.15628264,.94606277,-281.32829,615.6839)" d="M423.964 299.483C396.742 257.845 346.003 233.499 329.73799 184.37799 325.98799 173.05199 324.85298 161.146 320.68998 149.88098 316.78797 139.32198 311.49699 129.25899 304.84098 120.17298 291.35197 101.75898 272.22798 87.17498 252.93897 75.27698 232.98796 62.970979 211.34497 53.449979 188.97296 46.503976 168.25096 40.070978 146.29996 34.789976 124.44996 36.624979 105.76396 38.194978 87.18796 45.897977 77.41795 62.728979 66.846958 80.93998 68.82695 104.19498 76.540958 123.05398 94.678958 167.39199 144.68595 200.96399 138.25196 253.62699 133.00296 296.593 97.428958 328.24699 85.66895 369.055 73.830959 410.132 92.00996 457.818 133.78095 472.9 152.91194 479.807 173.95995 478.723 191.90595 469.014 209.74495 459.362 223.26595 443.728 238.11695 430.28 246.06995 423.079 254.55794 416.309 264.20396 411.508 276.34297 405.467 289.80897 403.336 303.26396 403.19599 327.67097 402.93998 351.80195 408.697 376.23695 406.82099 395.44593 405.347 415.36796 399.21998 427.61494 383.43 439.89595 367.596 441.00395 346.224 436.17094 327.417 433.626 317.506 429.432 308.119 423.964 299.483 423.535 298.805 422.453 299.432 422.88499 300.114 434.365 318.24504 441.024 341.308 436.00498 362.65403 430.87699 384.46604 413.26899 398.27104 392.08497 403.208 348.49098 413.368 300.98497 389.229 259.86598 412.4 225.19898 431.936 204.27097 475.492 160.23596 476.163 138.13396 476.5 116.22597 466.348 102.13796 449.343 87.54596 431.72999 81.31096 407.938 83.69796 385.34199 88.06696 343.98298 120.18696 313.03898 134.12796 275.19999 141.10196 256.271 142.00296 236.50498 135.18196 217.36598 127.32296 195.31699 112.272968 177.08199 98.76196 158.33199 85.10896 139.38498 72.36196 118.57199 71.46096 94.57199 70.59296 71.42499 82.11596 50.47499 104.30896 42.200994 123.38396 35.089994 144.93097 36.920995 164.40897 41.25999 187.75296 46.458993 210.55797 54.346994 231.95996 65.04299 252.59696 75.35599 271.97297 88.32599 288.82496 104.12099 306.11195 120.32298 318.05097 141.06099 323.73197 164.05399 326.28398 174.38098 327.83497 184.45398 332.29496 194.23299 337.09696 204.76099 343.62196 214.44699 350.92295 223.39499 365.83595 241.67099 384.43495 256.447 400.86994 273.266 408.98396 281.56999 416.52296 290.384 422.88496 300.11399 423.323 300.785 424.406 300.159 423.964 299.483Z"/>
<path transform="matrix(.9454459,-.15618074,.15628264,.94606277,-281.32829,615.6839)" d="M415.507 297.332C389.491 257.572 340.551 234.227 325.66499 186.95801 322.266 176.164 321.09999 164.962 317.059 154.296 313.38499 144.599 308.47099 135.37401 302.347 127.00101 289.74299 109.772 271.91499 96.10701 253.92699 84.893009 234.607 72.84901 213.56899 63.575006 191.82898 56.870004 172.35498 50.864004 151.75998 45.924005 131.23699 47.599004 113.77399 49.025 96.361988 55.976 86.844989 71.450008 76.44899 88.353008 77.86499 110.336009 84.80998 128.23001 101.441989 171.08301 149.86399 202.781 144.11199 253.20201 139.38498 294.635 104.71698 324.98603 93.81398 364.41603 83.25498 402.60203 99.89998 446.657 138.19298 461.50404 156.22199 468.49403 176.41698 468.03105 193.68798 459.14503 211.12697 450.17204 224.22597 435.01304 238.53498 422.006 245.97397 415.243 253.87598 408.863 262.85099 404.24403 274.23298 398.38603 286.86799 396.16804 299.577 395.91804 323.166 395.45503 346.482 401.15003 370.091 399.34803 388.39503 397.95103 407.446 392.10804 419.061 377.00004 430.64903 361.92805 431.695 341.69703 427.099 323.84104 424.678 314.436 420.694 305.531 415.507 297.332 415.078 296.654 413.996 297.28 414.42799 297.963 425.36598 315.25303 431.67799 337.204 426.84199 357.544 421.87898 378.42 404.82499 391.435 384.55299 395.995 342.70399 405.41 297.08399 382.221 257.929 405.54499 225.64699 424.775 205.34499 465.507 163.44199 465.15199 142.62099 464.97499 122.24499 455.14997 109.177989 438.94398 95.82699 422.38398 90.10699 400.27796 92.24499 379.248 96.28099 339.555 127.30199 310.007 140.42499 273.63099 146.885 255.72599 147.57498 237.08599 141.08899 219.05698 133.452 197.82798 118.82499 180.33498 105.85299 162.23097 92.92599 144.18997 81.10499 124.310977 80.61999 101.489978 80.15599 79.64597 91.52299 60.321977 112.43199 52.762975 130.98999 46.053976 151.767 48.145975 170.60199 52.466974 192.18599 57.417974 213.25099 64.77597 233.07099 74.67297 252.86998 84.558979 271.45799 97.03597 287.567 112.24698 303.641 127.42498 314.783 146.88397 320.138 168.31998 322.639 178.33098 324.118 188.10898 328.471 197.58998 332.933 207.30898 338.92903 216.27399 345.647 224.56998 359.66603 241.87998 377.182 255.87798 392.76 271.69499 400.752 279.809 408.182 288.421 414.42604 297.964 414.867 298.634 415.95 298.008 415.507 297.332Z"/>
<path transform="matrix(.9454459,-.15618074,.15628264,.94606277,-281.32829,615.6839)" d="M407.051 295.182C382.46 257.635 336.485 235.593 322.103 191.11801 318.758 180.77402 317.693 169.96701 313.807 159.725 310.174 150.149 305.281 141.059 299.138 132.856 287.045 116.709 270.087 103.86 253.032 93.344 234.457 81.891 214.241 73.126 193.363 66.836 175.091 61.329999 155.81401 56.881998 136.61002 58.690999 120.03101 60.253 103.69202 67.272998 95.06102 82.21 85.54502 98.679 87.39402 119.608 94.36902 136.633 110.99402 177.211 157.30303 208.092 149.45203 256.616 143.27303 294.804 111.69903 322.835 101.95103 359.844 92.32003 396.409 109.081027 438.097 145.92803 451.354 162.78403 457.418 181.38303 456.629 197.31702 448.30003 213.89102 439.63603 226.31502 425.131 240.00902 412.77104 247.13503 406.34004 254.73502 400.30705 263.37303 396.02604 274.35603 390.58305 286.53004 388.70906 298.69203 388.60203 321.014 388.40504 343.087 393.74604 365.43605 391.75303 382.38203 390.24104 399.79203 384.557 410.50306 370.57203 421.42707 356.308 422.37306 337.13304 418.02305 320.26704 415.73 311.364 411.956 302.943 407.051 295.182 406.622 294.504 405.54 295.13 405.972 295.81303 416.12599 311.87904 422.05198 332.105 417.991 351.06404 413.638 371.385 397.363 384.19203 377.731 388.61805 338.33799 397.49906 295.387 375.75706 258.413 397.27906 227.693 415.16105 208.631 453.89607 169.18 454.14506 149.57599 454.26905 130.165 445.28907 117.60999 430.23307 104.562 414.58607 98.86699 393.47706 100.77999 373.32606 104.33699 335.87007 133.41899 307.83106 146.11899 273.70704 152.35498 256.95103 153.385 239.37804 147.551 222.33304 140.715 202.36203 127.2 185.83405 114.98999 168.96404 102.49399 151.69803 90.67499 132.74803 89.85399 110.82103 89.07499 90.01503 99.39799 71.29003 119.28499 63.78503 136.47998 57.296033 156.01599 59.01803 173.583 62.94503 194.254 67.56603 214.452 74.52203 233.439 83.93003 252.183 93.21703 269.801 104.92703 285.10099 119.22803 300.71598 133.82303 311.52699 152.42304 316.68998 173.16603 319.05799 182.68003 320.48597 191.95003 324.64299 200.94704 328.882 210.12004 334.56599 218.58104 340.92198 226.41204 354.29997 242.89504 371.01298 256.20805 385.82899 271.31605 393.257 278.89006 400.15199 286.92704 405.972 295.81306 406.411 296.483 407.493 295.857 407.051 295.182Z"/>
<path transform="matrix(.9454459,-.15618074,.15628264,.94606277,-281.32829,615.6839)" d="M398.594 293.031C375.443 257.706 332.366 236.964 318.543 195.276 315.316 185.542 314.343 175.31601 310.737 165.641 307.381 156.636 302.83399 148.07102 297.128 140.33301 285.871 125.06701 270.012 112.923007 254.02199 102.96301 236.54099 92.07401 217.50699 83.71501 197.827 77.694019 180.553 72.40901 162.289 68.08102 144.09999 69.599018 128.26 70.92101 112.50499 77.35501 104.104999 91.55302 95.190998 106.62002 96.48499 125.99002 102.635997 141.80503 117.80399 180.80702 162.388 209.86803 155.35399 256.05903 149.799 292.53804 119.41299 319.247 110.28799 354.57405 101.290988 389.40406 117.75699 428.90104 152.99298 440.92005 169.28299 446.47605 186.97298 445.22706 202.05298 436.84904 217.15699 428.45603 228.61098 415.09403 241.32498 403.68803 248.02698 397.67503 255.19698 392.04603 263.33399 388.09504 274.063 382.88505 285.969 381.25804 297.79399 381.30204 318.43397 381.37904 338.85899 386.14805 359.53099 384.25303 375.49699 382.79 391.91499 377.372 401.94898 364.14 412.18498 350.64103 413.06498 332.601 408.95298 316.68803 406.782 308.294 403.219 300.355 398.594 293.031 398.166 292.353 397.08399 292.979 397.51499 293.66203 407.236 309.06004 412.87199 328.514 408.67298 346.63804 404.326 365.39903 389.08699 377.13703 370.89399 381.24604 333.977 389.58406 293.81498 369.34706 259.01499 388.95506 229.986 405.31105 212.29199 441.83406 175.65598 443.09706 156.72698 443.75007 137.81298 435.37007 125.56897 420.93104 112.97797 406.08406 107.51097 385.88005 109.39197 366.64103 112.85197 331.24903 140.37897 304.77604 152.30097 272.46803 158.13397 256.66 159.01697 240.06201 153.46396 224.02301 147.02796 205.434 134.50797 190.00002 123.10596 174.28202 111.094959 157.723 99.67596 139.56401 99.038959 118.487018 98.442958 98.765018 108.49095 81.196018 127.40796 74.347019 144.12596 68.294017 162.82096 70.24402 179.77997 74.154018 199.23097 78.638019 218.21097 85.320018 236.04398 94.306018 253.62699 103.166019 270.16499 114.321018 284.442 127.916019 298.75599 141.54701 308.59199 159.03601 313.29399 178.21202 315.56098 187.45603 317.041 196.38002 321.179 205.06902 325.271 213.66202 330.69999 221.58802 336.73799 228.92302 349.16099 244.01403 364.50398 256.32203 378.17698 270.21104 385.31098 277.45805 391.93397 285.14704 397.51597 293.66404 397.954 294.332 399.037 293.707 398.594 293.031Z"/>
<path transform="matrix(.9454459,-.15618074,.15628264,.94606277,-281.32829,615.6839)" d="M390.138 290.881C368.172 257.403 327.016 237.69202 314.473 197.86103 311.606 188.75603 310.62599 179.31502 307.19999 170.32102 304.01399 161.95702 299.73899 154.01302 294.391 146.82901 283.44099 132.121 267.95899 120.45301 252.413 110.977008 235.86899 100.893009 217.90599 93.185009 199.34999 87.661 182.86899 82.755008 165.41399 78.821 148.12799 80.840007 133.16599 82.588008 118.77199 89.567 111.72899 103.487 104.374988 118.020999 106.20199 135.729 112.261989 150.36 127.427989 186.977 169.31598 214.857 160.66399 258.909 154.04999 292.581 126.02998 317.346 118.28099 350.69599 110.72999 383.197 126.68499 419.34599 159.359 430.244 174.808 435.39698 191.48099 434.037 205.672 425.98799 219.702 418.02998 230.379 405.57197 242.269 394.93199 248.817 389.07298 255.84799 383.615 263.861 379.904 273.905 375.25199 285.017 373.909 295.987 374.01399 315.42 374.19999 334.658 378.64399 354.124 376.71098 368.966 375.23698 384.10499 370.02699 393.388 357.71199 402.959 345.01399 403.744 328.04399 399.877 313.11399 397.834 305.222 394.481 297.768 390.138 290.881 389.71 290.20204 388.628 290.829 389.059 291.51203 398.09999 305.85005 403.423 323.94303 399.671 340.84803 395.70899 358.70103 381.38099 369.96504 364.073 373.87403 329.61799 381.65605 292.086 362.851 259.504 380.71003 231.85199 395.86705 215.231 430.653 180.67099 432.07304 162.943 432.80104 145.191 425.084 133.57498 411.69203 121.69098 397.99104 116.42698 379.22804 117.874988 361.295 120.552989 328.134 146.10099 303.105 157.73899 273.19303 163.41599 258.60203 164.84699 243.18602 160.16199 228.10402 154.678 210.45102 143.01699 195.71701 132.25899 181.01902 120.93799 165.55202 109.85799 148.85102 108.36398 129.19602 106.942989 110.501018 115.50198 92.888019 133.39199 85.707019 148.92798 79.471019 166.79698 81.056018 182.75598 84.63102 201.29898 88.78502 219.40699 95.07102 236.41399 103.56302 253.193 111.94202 268.95698 122.53102 282.573 135.46202 296.342 148.53803 305.689 165.40302 310.037 183.86002 311.969 192.06401 313.36698 199.95102 316.99198 207.65802 320.91398 215.99703 326.15299 223.67002 332.00599 230.76602 343.77699 245.03502 358.33 256.65403 371.23899 269.829 377.81 276.535 383.90199 283.653 389.059 291.513 389.498 292.181 390.581 291.556 390.138 290.881Z"/>
<path transform="matrix(.9454459,-.15618074,.15628264,.94606277,-281.32829,615.6839)" d="M381.682 288.73C361.042 257.31404 322.226 238.73702 310.667 201.233 308.037 192.7 307.086 183.894 303.853 175.49 300.767 167.46901 296.618 159.875 291.422 153.024 281.23899 139.594 266.992 128.892 252.708 120.161 237.467 110.845 220.911 103.68 203.823 98.518009 188.327 93.837009 171.918 90.024 155.63 91.728008 141.65702 93.19 128.042 99.369 121.10701 112.171009 113.81801 125.62701 115.24701 142.39801 120.78801 156.192 134.639 190.67 173.92902 216.504 166.71102 257.67903 161.17502 289.25804 134.94202 312.48 127.13202 343.33903 119.42102 373.81105 133.67201 408.24604 164.31803 419.08705 178.79503 424.20906 194.60002 423.22105 208.08702 415.80503 221.41402 408.47804 231.52202 396.709 242.68903 386.653 248.71402 381.22703 255.16403 376.148 262.50404 372.61503 272.08103 368.00505 282.71003 366.62403 293.24604 366.71504 311.54005 366.87303 329.66505 371.10203 347.98805 369.23805 362.19303 367.79304 376.60704 362.72105 385.24104 350.71406 393.76603 338.85807 394.37004 323.27207 390.80503 309.54005 388.886 302.151 385.744 295.181 381.682 288.73 381.254 288.05104 380.172 288.678 380.603 289.36103 389.1 302.855 394.083 319.842 390.511 335.73805 386.70899 352.66004 372.93 363.11103 356.541 366.65605 324.05 373.68403 288.72499 356.03605 258.175 373.48405 232.56499 388.11106 216.788 420.44004 184.20798 421.09706 147.42998 421.83906 122.59198 387.09806 126.70998 352.32905 130.33498 321.72804 154.05998 298.74604 164.41298 270.64607 169.40998 257.08406 170.34098 242.83606 165.81899 228.99306 160.42798 212.48805 149.42798 198.75705 139.34299 184.92105 128.75499 170.39505 118.49499 154.58005 117.48299 136.09806 116.512989 118.39705 125.15698 102.318058 142.15898 96.00705 156.76699 90.58505 173.28598 92.25505 188.14298 95.65505 205.47599 99.622058 222.39098 105.55005 238.27097 113.567058 269.45097 129.30905 298.01997 152.78907 306.44398 188.10706 308.32899 196.01107 309.65397 203.58606 313.16999 211.00806 316.741 218.54506 321.46299 225.49506 326.731 231.94306 337.77699 245.46605 351.51899 256.43208 363.716 268.85105 369.945 275.19306 375.714 281.92207 380.601 289.36006 381.042 290.03 382.125 289.405 381.682 288.73Z"/>
<path transform="matrix(.9454459,-.15618074,.15628264,.94606277,-281.32829,615.6839)" d="M373.225 286.579C353.906 257.216 317.453 239.779 306.852 204.60701 304.374 196.38701 303.409 187.983 300.214 179.927 297.37599 172.771 293.59999 165.995 288.93699 159.867 279.455 147.407 266.266 137.466 252.99698 129.345 238.80098 120.655 223.39798 113.968 207.48398 109.133 193.00098 104.732 177.65299 101.146 162.41999 102.69701 149.61499 104.00101 137.08298 109.48301 130.42299 121.022 122.93899 133.988 124.48599 150.43001 130.03099 163.792 143.30799 195.79102 179.702 219.994 172.374 258.476 166.76 287.957 142.14099 309.62403 135.30399 338.75703 128.65999 367.07 142.36998 398.725 170.79099 408.45603 183.90799 412.94703 198.21199 412.15003 210.49399 405.61305 223.11598 398.89405 232.646 387.84904 243.10999 378.37504 248.96199 373.07603 255.22798 368.10505 262.40599 364.71803 271.46498 360.44303 281.52998 359.28404 291.44798 359.432 308.53898 359.68803 325.47398 363.587 342.59297 361.68 355.65596 360.225 368.80796 355.37199 376.67396 344.287 384.52796 333.22 385.05595 318.72999 381.73197 305.966 379.938 299.081 377.006 292.594 373.225 286.579 372.798 285.90003 371.716 286.526 372.146 287.21003 380.091 299.846 384.757 315.752 381.35 330.62605 377.755 346.32304 364.924 355.98905 349.715 359.27806 319.447 365.82307 286.541 349.42304 258.055 365.57206 234.02899 379.19206 219.36699 409.45405 188.87 410.08207 154.786 410.78306 131.63899 378.67008 135.237 346.40107 138.429 317.77308 160.58 296.25407 170.351 270.06108 175.027 257.52607 176.028 244.34307 171.98999 231.48007 167.13599 216.02108 156.88999 203.13307 147.46799 190.24207 137.55899 176.68607 127.82399 161.96207 126.71699 144.70607 125.62999 127.75907 133.88599 112.36107 150.29599 106.571079 164.13399 101.68907 179.538 103.417079 193.52199 106.67908 209.64299 110.44008 225.374 116.03508 240.12198 123.56808 268.78898 138.21009 294.977 159.87808 302.856 192.36408 304.624 199.65407 305.797 206.72708 308.99 213.59908 312.254 220.62207 316.599 227.11208 321.464 233.12207 331.62 245.66808 344.266 255.85507 355.599 267.27308 361.708 273.42808 367.374 279.95408 372.148 287.21009 372.586 287.879 373.669 287.254 373.225 286.579Z"/>
<path transform="matrix(.9454459,-.15618074,.15628264,.94606277,-281.32829,615.6839)" d="M364.769 284.429C346.888 257.283 313.341 241.15198 303.282 208.76499 301.02903 201.51198 300.23204 193.99898 297.535 186.83599 294.868 179.75299 291.238 173.03299 286.673 166.98999 277.94203 155.43099 265.76103 146.20899 253.50601 138.66199 240.14601 130.43399 225.62401 124.123989 210.61602 119.58499 197.07901 115.49099 182.72702 112.16999 168.501 113.73799 156.923 115.01399 145.619 120.023998 139.46501 130.36299 132.58202 141.92699 133.58101 156.79799 138.28702 168.954 149.88402 198.907 184.29901 221.224 178.49802 256.736 173.95102 284.568 150.74602 304.935 143.99503 332.068 137.42302 358.47999 149.93503 388.224 176.46103 397.535 188.41204 401.73 201.56504 401.191 212.88904 395.411 224.81104 389.32603 233.77805 378.991 243.52704 370.1 248.86104 365.236 254.54404 360.64903 261.04606 357.436 269.38407 353.316 278.65107 352.068 287.86607 352.121 303.85908 352.212 319.70008 355.965 335.71708 354.286 347.90809 353.009 360.28309 348.64103 367.74409 338.376 375.15809 328.176 375.77708 314.734 372.7761 302.854 371.122 296.304 368.353 290.143 364.769 284.429 364.34303 283.749 363.26103 284.37599 363.69 285.06 371.133 296.926 375.491 311.871 372.114 325.805 368.505 340.693 355.92204 349.448 341.446 352.202 313.579 357.504 283.43803 342.918 257.33003 358.01 235.17603 370.816 221.50702 398.758 193.14902 399.082 160.42201 399.456 139.06102 367.44203 144.27402 336.797 148.67502 310.91999 168.77802 291.534 177.11702 267.172 181.21802 255.191 181.42902 242.75 177.09102 230.786 172.11103 217.053 162.85602 205.571 154.37003 193.89099 145.39603 181.53899 136.76403 168.04399 135.87903 152.359 134.99803 136.743 142.71204 122.687999 157.78104 117.36299 170.69603 112.79799 185.09404 114.46399 198.13704 117.52899 213.05304 121.03399 227.60204 126.22299 241.24805 133.206 268.43907 147.12 292.95106 167.78299 299.76905 198.806 301.27906 205.678 302.72306 212.114 305.89106 218.464 308.96208 224.619 312.90608 230.321 317.27207 235.62401 326.82307 247.22402 338.63609 256.667 349.13008 267.362 354.50007 272.835 359.46708 278.646 363.69007 285.05799 364.13 285.729 365.213 285.103 364.769 284.429Z"/>
<path transform="matrix(.9454459,-.15618074,.15628264,.94606277,-281.32829,615.6839)" d="M356.312 282.278C339.639 257.01603 307.931 241.86902 299.242 211.36103 297.329 204.64403 296.467 197.82202 293.897 191.26102 291.462 185.04602 288.217 179.15702 284.186 173.83402 276.008 163.03401 264.577 154.42401 253.09 147.41301 240.741 139.876 227.332 134.10301 213.48099 129.96 200.971 126.21801 187.71099 123.20901 174.58599 124.785 163.95099 126.062007 153.70398 130.81401 148.13799 140.352 141.92798 150.994 142.90699 164.61101 147.20099 175.742 157.971 203.664 190.14499 224.375 184.172 257.548 179.538 283.28303 157.909 302.081 152.173 327.501 146.703 351.74403 158.573 378.571 182.824 386.86103 193.934 390.65904 206.07901 390.02104 216.521 384.56703 227.579 378.79103 235.867 369.10704 245.004 360.86604 250.013 356.34803 255.409 352.05104 261.586 349.239 269.553 345.612 278.253 344.661 286.927 344.851 301.486 345.169 315.926 348.45103 330.51 346.709 341.263 345.424 352.04103 341.43504 358.751 332.519 365.87803 323.049 366.526 310.436 363.704 299.27903 362.173 293.232 359.615 287.555 356.312 282.278 355.88603 281.59803 354.80403 282.22404 355.233 282.90904 362.23503 294.09605 366.327 308.29203 362.78 321.37205 359.09 334.97706 347.225 342.59605 333.941 344.94706 308.284 349.48805 280.519 336.21806 256.605 350.45606 236.15901 362.62907 223.28202 388.50807 196.69202 388.06806 166.80202 387.57307 147.81502 358.01606 152.92302 330.02705 157.26003 306.26405 175.76403 288.46305 183.28603 265.93705 186.87403 255.19104 187.06403 244.01204 183.28003 233.27005 178.71002 220.29505 169.94803 209.50806 161.97704 198.51006 153.83403 187.27405 146.01204 175.01605 145.09503 160.78105 144.14003 145.96906 151.51103 132.72205 165.91204 127.93105 177.75403 123.99205 190.80603 125.55905 202.69704 128.36905 216.68604 131.67505 230.32505 136.58405 243.08805 143.21105 256.44706 150.14705 269.56904 159.01905 279.66105 170.28505 285.24705 176.52106 289.63505 183.80605 292.69206 191.59305 295.46406 198.65505 296.21406 206.09105 298.51106 213.25106 308.06504 243.03705 338.70704 257.86906 355.23304 282.90806 355.674 283.578 356.757 282.952 356.312 282.278Z"/>
<path transform="matrix(.9454459,-.15618074,.15628264,.94606277,-281.32829,615.6839)" d="M347.856 280.128C332.40299 256.77 302.495 242.57799 295.237 213.961 292.143 201.761 289.427 190.79599 281.61 180.547 273.84 170.36 262.914 162.256 251.97998 155.748 241.06899 149.254 229.29898 144.226 217.14598 140.572 205.64998 137.11602 193.44399 134.32 181.37299 135.744 171.46898 136.912 161.87899 141.37001 156.81499 150.336 151.30599 160.09 152.20099 172.386 156.11199 182.52899 165.92598 207.98099 195.14398 226.80799 190.07999 256.992 186.04698 281.03 165.555 298.46 160.52399 322.229 155.87499 344.195 166.64798 368.297 188.486 375.95 198.888 379.596 210.28 378.97 220.036 373.777 230.00699 368.469 237.511 359.72203 245.789 352.255 250.538 347.97203 255.644 343.946 261.525 341.331 270.065 337.533 279.531 337.195 288.72 337.746 303.032 338.605 317.511 341.607 331.67903 337.862 343.09403 334.845 352.401 327.006 355.16304 315.233 357.986 303.195 354.258 290.383 347.856 280.128 347.431 279.447 346.349 280.074 346.77699 280.759 353.223 291.083 357.00199 304.203 353.61 316.252 350.125 328.63203 339.21299 335.467 327.10499 337.57603 303.46199 341.69303 278.00398 329.50904 256.01899 342.824 237.55098 354.009 225.79599 377.349 201.69399 377.05903 173.69998 376.72203 156.18299 348.56404 161.72899 322.56303 166.32599 301.00703 183.18099 284.846 189.65799 264.04103 196.95699 240.59502 183.25499 221.932 170.08399 203.81401 162.28798 193.09001 154.73398 181.363 154.22899 167.69202 153.74098 154.47801 160.61899 142.95201 173.396 138.72602 184.85199 134.93701 197.41699 136.75902 208.854 139.59702 221.08301 142.63101 233.001 147.01102 244.182 152.83402 256.444 159.22002 268.522 167.39601 277.741 177.79602 282.855 183.56502 286.874 190.31603 289.63 197.51203 291.923 203.49703 292.678 209.75003 294.461 215.85303 302.616 243.76703 331.467 257.61805 346.777 280.76 347.218 281.426 348.301 280.801 347.856 280.128Z"/>
<path transform="matrix(.9454459,-.15618074,.15628264,.94606277,-281.32829,615.6839)" d="M339.399 277.977C325.38099 256.826 298.396 243.95899 291.651 218.124 288.691 206.788 286.301 196.66599 278.954 187.163 271.95603 178.111 262.22303 170.89099 252.47202 165.051 242.16501 158.87799 230.99301 154.161 219.47002 150.791 209.16402 147.77701 198.24802 145.384 187.46302 146.796 178.54502 147.964 169.92902 152.15001 165.50202 160.31801 160.93901 168.73702 161.44002 179.11101 164.51201 187.93502 172.87401 211.95102 200.67601 229.01001 195.865 257.118 192.13701 278.896 173.593 294.69703 169.03401 316.25703 164.77501 336.398 174.755 358.46104 194.85202 365.27903 204.41103 368.52204 214.78603 367.79304 223.65602 362.92903 232.34302 358.165 238.96903 350.56404 246.21202 343.97703 251.35802 339.29804 256.93904 334.96403 263.57203 332.62904 271.02604 330.00505 279.058 329.976 286.85005 330.51805 299.72404 331.41404 312.86305 333.95704 325.55805 330.29005 349.687 323.318 351.014 296.636 339.399 277.977 338.97499 277.29499 337.89299 277.922 338.31999 278.608 344.10499 287.901 347.516 299.595 344.61598 310.457 341.46797 322.25 331.02497 328.543 319.53999 330.316 298.57899 333.553 276.05799 323.157 256.48698 334.561 239.39597 344.52003 228.74997 366.239 206.69898 366.048 180.86597 365.824 164.96097 339.752 170.39897 315.892 174.78298 296.65299 189.74198 282.115 195.60097 263.469 202.32997 242.055 189.70897 224.97299 177.69097 208.43 170.72896 198.846 163.95996 188.31499 163.43596 176.11299 162.91396 163.956 169.12596 153.443 180.87897 149.51999 190.83698 146.19599 201.89897 147.66599 211.87497 150.062 223.73097 152.91 235.28197 157.14299 246.05597 162.867 256.97499 168.668 267.77897 176.054 275.93699 185.442 280.766 190.99901 284.464 197.508 286.93 204.437 288.921 210.032 289.461 215.959 291.392 221.54599 299.766 245.777 324.676 258.02299 338.32 278.608 338.762 279.275 339.845 278.65 339.399 277.977Z"/>
<path transform="matrix(.9454459,-.15618074,.15628264,.94606277,-281.32829,615.6839)" d="M330.943 275.826C318.246 256.732 293.664 245.00099 287.87599 221.50899 285.44898 211.65999 283.10398 202.76898 276.85899 194.50998 270.56098 186.18198 261.66398 179.57299 252.77198 174.23998 243.51598 168.68898 233.49198 164.44797 223.14597 161.40297 213.63597 158.60398 203.50496 156.38997 193.56098 157.85297 186.02898 158.96097 178.86098 162.47898 174.82498 169.17397 169.96698 177.23297 170.67398 187.60797 173.93799 196.10297 182.13999 217.44898 206.79499 233.13997 201.39798 258.58598 197.29398 277.93699 180.68698 292.11396 177.25998 311.75697 174.17198 329.45997 183.16399 348.35798 200.62299 354.39698 208.98999 357.291 218.18999 356.83699 226.06598 352.72697 234.04099 348.56596 240.09598 341.69798 246.63498 335.69798 251.41498 331.31199 256.61198 327.17698 262.822 325.03898 269.362 322.78599 276.36 322.71397 283.18699 323.15998 295.03099 323.93299 307.08299 326.36198 318.74598 322.88999 340.329 316.466 341.303 292.529 330.943 275.826 330.52 275.14399 329.438 275.771 329.86399 276.457 335.09599 284.893 338.18998 295.497 335.447 305.333 332.28 316.695 321.63999 322.03703 310.641 323.189 292.315 325.109 272.73399 316.76 255.771 327.003 240.67099 336.12199 231.06299 355.22099 211.392 355.025 188.497 354.798 174.302 331.841 178.751 310.613 182.386 293.266 195.839 280.164 201.32901 263.55003 207.604 244.56302 197.13602 229.21802 186.3 214.41703 179.983 205.78803 173.619 196.45003 172.714 185.47502 171.75601 173.85103 177.57901 163.53102 189.016 160.11902 198.21701 157.37403 208.10102 158.82701 217.22801 161.09702 227.60501 163.67801 237.699 167.44503 247.13802 172.48302 256.967 177.72902 266.71803 184.42302 274.00303 192.94303 278.187 197.83603 281.40403 203.53102 283.571 209.58603 285.45503 214.84903 285.927 220.45104 287.842 225.68204 295.696 247.13105 317.639 258.07405 329.863 276.45704 330.307 277.124 331.39 276.499 330.943 275.826Z"/>
<path transform="matrix(.9454459,-.15618074,.15628264,.94606277,-281.32829,615.6839)" d="M322.486 273.676C311.07899 256.59199 289.052 246.056 284.09199 224.90399 281.97099 215.85799 279.53398 207.756 273.59999 200.368 267.61698 192.91899 259.356 186.985 251.11399 182.27899 236.47899 173.922 216.67398 166.01399 199.50199 168.94699 182.39899 171.868 177.06299 188.749 183.17198 203.67099 190.97498 222.73099 212.87998 236.99999 206.84998 260.02299 202.42498 276.917 187.77698 289.611 185.55098 307.304 183.54398 323.25599 192.39498 339.70799 208.36899 344.145 226.215 349.10099 237.09299 336.123 249.15399 325.52699 253.45099 321.75199 258.11799 318.52699 263.684 316.95799 269.947 315.19297 276.58699 315.52098 282.996 316.07899 292.786 316.93299 302.925 318.50099 312.49 315.32899 331.07 309.167 331.446 288.185 322.486 273.676 322.064 272.99299 320.982 273.62 321.40699 274.307 325.935 281.64 328.79899 290.969 326.46699 299.552 323.92198 308.919 315.83799 313.952 306.66999 315.431 290.13999 318.097 272.43598 309.903 256.85298 318.411 243.05397 325.946 234.95796 342.987 217.83097 343.983 196.73096 345.21 183.31197 323.887 187.25997 304.641 190.36296 289.51399 201.99797 277.981 207.05297 263.625 212.75096 247.443 204.86296 233.91699 195.41696 221.08499 189.97097 213.687 184.14797 205.95699 182.36197 196.73499 180.34697 186.33298 184.12497 175.52799 194.57297 171.55098 202.73697 168.44298 211.96897 169.58599 220.24497 171.56298 229.44696 173.76097 238.41297 176.99997 246.81296 181.36397 255.92096 186.09497 264.94398 192.17697 271.67997 200.00698 275.48097 204.42498 278.37898 209.55797 280.32597 215.04598 281.95097 219.62697 282.38096 224.49597 284.02696 229.05397 290.93495 248.18198 310.49897 257.972 321.40696 274.30799 321.851 274.972 322.935 274.347 322.486 273.676Z"/>
<path transform="matrix(.9454459,-.15618074,.15628264,.94606277,-281.32829,615.6839)" d="M314.03 271.525C303.906 256.445 284.481 247.121 280.345 228.303 278.643 220.55699 276.225 213.47299 271.137 207.22899 266.027 200.958 259.104 195.93599 252.152 191.89099 239.403 184.47299 222.183 177.55899 207.14699 179.777 193.15499 181.84099 187.04 194.51399 191.03899 207.569 196.43898 225.194 217.163 237.296 213.20398 257.669 210.21099 273.069 196.85198 284.245 194.28398 299.846 192.01898 313.603 199.12998 328.152 212.65499 332.798 227.97599 338.062 238.13199 327.697 248.52199 318.194 252.32498 314.716 256.44499 311.468 261.408 309.84 266.991 308.009 272.98399 308.195 278.76499 308.668 287.47099 309.381 296.485 310.906 305.00999 308.143 321.483 302.806 321.925 284.41 314.03 271.525 313.61 270.84 312.529 271.46699 312.951 272.156 317.104 278.935 319.634 287.59703 317 295.419 314.002 304.32203 305.061 307.827 296.394 308.407 282.418 309.342 267.76 303.52003 254.93502 311.556 243.40802 318.779 235.89601 333.329 220.67002 333.005 201.792 332.603 191.47402 312.713 196.49102 295.87303 200.322 283.014 210.48902 273.03703 213.932 260.032 217.67002 245.91202 209.44 234.51102 201.514 223.65201 196.55301 216.85501 191.55301 209.45601 191.04302 200.78601 190.50302 191.59401 195.57 183.82602 204.62802 181.53801 219.09702 177.884 236.85303 184.945 249.36402 191.76201 257.043 195.94602 264.709 201.26702 270.25303 208.11402 273.493 212.11602 275.92704 216.78902 277.484 221.69002 278.687 225.47702 279.05903 229.45702 280.484 233.17502 286.752 249.53401 303.484 258.05604 312.95103 272.157 313.397 272.821 314.48 272.196 314.03 271.525Z"/>
<path transform="matrix(.9454459,-.15618074,.15628264,.94606277,-281.32829,615.6839)" d="M305.573 269.375C296.887 256.496 280.387 248.51 276.752 232.47299 275.28004 225.97699 273.38 220.094 269.204 214.76799 264.948 209.34 259.06303 204.999 253.167 201.49799 242.237 195.00798 227.58 189.081 214.621 190.64699 203.019 192.04898 197.001 201.773 199.606 212.97798 203.312 228.92298 222.295 239.21799 219.121 257.11198 216.737 270.55198 204.95 280.23399 202.811 293.80897 201.015 305.20698 206.623 317.28797 217.634 321.61997 230.782 326.79298 239.92401 318.27699 248.939 309.92997 252.388 306.73698 256.097 303.70997 260.648 302.26197 265.58103 300.69197 270.86003 300.94798 275.946 301.38496 283.55104 302.03797 291.49803 303.27696 298.85704 300.50596 312.277 295.451 312.023 279.986 305.573 269.375 305.156 268.689 304.074 269.316 304.494 270.006 308.09199 275.92604 310.31999 283.49903 307.80799 290.282 304.85798 298.24903 296.512 300.78703 288.77299 300.993 276.666 301.315 264.495 296.922 253.63599 304.418 244.10298 310.998 237.34899 323.061 224.208 321.923 207.76 320.49803 200.42499 302.807 205.471 288.557 209.308 277.72 218.28099 268.97203 220.325 257.445 222.399 245.751 215.04199 236.498 208.62 227.58402 204.411 221.74202 200.168 215.21202 200.19499 207.73102 200.22499 199.53102 205.36699 193.51102 213.431 192.07701 226.331 189.78401 241.719 196.15502 252.536 202.57901 259.134 206.49701 265.715 211.45401 269.955 217.95702 274.089 224.29602 274.301 231.31302 277.257 238.01502 283.073 251.20001 296.615 258.328 304.49299 270.00804 304.941 270.669 306.025 270.044 305.573 269.375Z"/>
<path transform="matrix(.9454459,-.15618074,.15628264,.94606277,-281.32829,615.6839)" d="M297.117 267.224C289.384 255.866 275.971 249.377 272.845 235.105 270.243 223.224 261.9 215.265 251.499 209.569 242.374 204.571 229.825 199.58301 219.24199 201.964 209.82498 204.08301 206.39398 213.18701 209.11899 221.921 213.22299 235.07501 228.71298 243.823 224.43299 259.239 221.45699 269.95603 211.99098 278.03004 211.14398 289.501 210.41399 299.376 216.24999 309.129 226.10799 311.642 236.84099 314.378 243.527 306.813 250.77999 300.351 257.422 294.433 264.35499 293.33003 273.09 294.101 279.587 294.674 286.548 295.664 292.687 292.782 302.965 287.956 302.187 275.658 297.117 267.224 296.703 266.535 295.622 267.163 296.038 267.855 299.087 272.92604 300.947 279.31303 298.569 285.02903 295.654 292.03804 287.964 293.63804 281.116 293.497 271.918 293.308 262.54499 290.573 254.262 296.002 246.41399 301.14503 241.12999 311.019 230.672 310.988 215.939 310.943 209.356 294.931 214.023 282.627 217.236 274.156 223.996 267.216 225.976 258.24003 228.082 248.69103 222.597 240.90102 217.229 233.56803 213.973 229.11902 210.57701 224.38503 209.65201 218.82003 208.42601 211.45003 212.098 204.85703 219.57501 203.17003 229.97702 200.82202 242.712 206.04604 251.59502 211.04703 257.522 214.38303 263.532 218.73503 267.281 224.51903 270.61503 229.66303 270.9 235.32903 273.173 240.79003 277.84303 252.00803 289.37303 258.06803 296.038 267.85603 296.488 268.516 297.571 267.891 297.117 267.224Z"/>
</g>
</g>
</g>
</g>
</g>
</g>
<g clip-path="url(#clip_40)">
<path transform="matrix(-1.7787492,0,0,1.7787492,648.55276,720.57278)" d="M49.4 68.2H28.7V31.8L40.3 52.1 46.9 63.8 49.4 68.2Z" fill="#423e3a"/>
<path transform="matrix(-1.7787492,0,0,1.7787492,648.55276,720.57278)" d="M45.6 66H32.3L28.7 59.6V36.3L39 54.4 45.6 66Z" fill="#cb8e7e"/>
<path transform="matrix(-1.7787492,0,0,1.7787492,648.55276,720.57278)" d="M32.3 66H45.6L55.9 48.1H42.6L32.3 66Z" fill="#96695e"/>
<path transform="matrix(-1.7787492,0,0,1.7787492,648.55276,720.57278)" d="M67.3 68.2H54L49.2 59.7 42.6 48.1H55.9L67.3 68.2Z" fill="#cb8e7e"/>
<path transform="matrix(-1.7787492,0,0,1.7787492,648.55276,720.57278)" d="M51.7 68.2H50.8L47.6 62.6 41 50.9 28.7 29.4V27.9L41.4 50.199998 48 61.8 51.7 68.2ZM34.6 66 33.5 64.1 28.7 55.699998V57.199998L33 64.799999 33.7 65.99999 34.9 68.19999H35.800004L34.6 66Z" fill="#423e3a"/>
</g>
<g clip-path="url(#clip_41)">
<path transform="matrix(1.8429457,0,0,1.8429457,-35.760168,722.09188)" d="M71.2 65H19.1V39.1L47.6 53.3 71.2 65Z" fill="#595551"/>
<path transform="matrix(1.8429457,0,0,1.8429457,-35.760168,722.09188)" d="M70.5 65H68.3L47.6 54.7 43.5 52.7 21.5 41.7 19.1 40.5V39.4L47.6 53.6 47.9 53.7 70.5 65Z" fill="#423e3a"/>
<path transform="matrix(1.8429457,0,0,1.8429457,-35.760168,722.09188)" d="M45.4 61.3 46.7 58.9 47.6 57.3 21.5 41.7 19.1 40.3V48.6L20.7 49.4V58.8L33.3 65H52.9L45.4 61.3Z" fill="#96695e"/>
<path transform="matrix(1.8429457,0,0,1.8429457,-35.760168,722.09188)" d="M47.6 47.5V57.3L45.6 56.3 19.1 43.1V33.3L47.6 47.5ZM23.5 47.3V57.1L39.3 65H58.9L46.7 58.9 23.5 47.3Z" fill="#cb8e7e"/>
<path transform="matrix(1.8429457,0,0,1.8429457,-35.760168,722.09188)" d="M30.3 36.6V37.699998L19.099999 32.1V31L30.3 36.6ZM48.8 51V52.1L74.7 65H76.899997L48.8 51ZM23.5 53 20.7 51.6 19.1 50.8V52L20.7 52.8 23.5 54.2 45.3 65H47.5L23.5 53ZM47.6 52.7 19.1 38.5V39.6L47.6 53.8 70.1 65H72.299999L47.6 52.7Z" fill="#e8a998"/>
</g>
<g clip-path="url(#clip_42)">
<path transform="matrix(1.7787492,0,0,-1.7787492,-51.27053,116.858638)" d="M49.4 68.2H28.7V31.8L40.3 52.1 46.9 63.8 49.4 68.2Z" fill="#423e3a"/>
<path transform="matrix(1.7787492,0,0,-1.7787492,-51.27053,116.858638)" d="M45.6 66H32.3L28.7 59.6V36.3L39 54.4 45.6 66Z" fill="#cb8e7e"/>
<path transform="matrix(1.7787492,0,0,-1.7787492,-51.27053,116.858638)" d="M32.3 66H45.6L55.9 48.1H42.6L32.3 66Z" fill="#96695e"/>
<path transform="matrix(1.7787492,0,0,-1.7787492,-51.27053,116.858638)" d="M67.3 68.2H54L49.2 59.7 42.6 48.1H55.9L67.3 68.2Z" fill="#cb8e7e"/>
<path transform="matrix(1.7787492,0,0,-1.7787492,-51.27053,116.858638)" d="M51.7 68.2H50.8L47.6 62.6 41 50.9 28.7 29.4V27.9L41.4 50.199998 48 61.8 51.7 68.2ZM34.6 66 33.5 64.1 28.7 55.699998V57.199998L33 64.799999 33.7 65.99999 34.9 68.19999H35.800004L34.6 66Z" fill="#423e3a"/>
</g>
<g clip-path="url(#clip_43)">
<path transform="matrix(-1.8429457,0,0,-1.8429457,633.05197,115.40076)" d="M71.2 65H19.1V39.1L47.6 53.3 71.2 65Z" fill="#595551"/>
<path transform="matrix(-1.8429457,0,0,-1.8429457,633.05197,115.40076)" d="M70.5 65H68.3L47.6 54.7 43.5 52.7 21.5 41.7 19.1 40.5V39.4L47.6 53.6 47.9 53.7 70.5 65Z" fill="#423e3a"/>
<path transform="matrix(-1.8429457,0,0,-1.8429457,633.05197,115.40076)" d="M45.4 61.3 46.7 58.9 47.6 57.3 21.5 41.7 19.1 40.3V48.6L20.7 49.4V58.8L33.3 65H52.9L45.4 61.3Z" fill="#96695e"/>
<path transform="matrix(-1.8429457,0,0,-1.8429457,633.05197,115.40076)" d="M47.6 47.5V57.3L45.6 56.3 19.1 43.1V33.3L47.6 47.5ZM23.5 47.3V57.1L39.3 65H58.9L46.7 58.9 23.5 47.3Z" fill="#cb8e7e"/>
<path transform="matrix(-1.8429457,0,0,-1.8429457,633.05197,115.40076)" d="M30.3 36.6V37.699998L19.099999 32.1V31L30.3 36.6ZM48.8 51V52.1L74.7 65H76.899997L48.8 51ZM23.5 53 20.7 51.6 19.1 50.8V52L20.7 52.8 23.5 54.2 45.3 65H47.5L23.5 53ZM47.6 52.7 19.1 38.5V39.6L47.6 53.8 70.1 65H72.299999L47.6 52.7Z" fill="#e8a998"/>
</g>
</g>
</svg>
