<svg viewBox="0 0 1112 1000" xmlns="http://www.w3.org/2000/svg"><path d="M417 382q5 0 9.5-5.5T431 360q0-5-4.5-13t-9.5-8q-11 0-16 8t-5 13q0 22 21 22zm283 218q20 11 28.5 34t-1.5 43q-20 5-40.5-3.5T650 650q0 15-14 27.5t-36 6.5q5-11 8.5-28.5T607 621q-5 17-23 26.5t-40 9.5q-21 0-35.5-14T494 607q0-11 11-24t32-19q-5 17 0 26.5t21 9.5q6 0 14-8.5t8-19.5q0-17-17-26t-33-9q-11 0-21 6t-18 16q-8 10-13 22.5t-5 25.5q0 21 11 40.5t29 34q18 14.5 40.5 23T600 713q21 0 45.5-1t48.5-1q24 0 45.5 2t37.5 7q-8-16-11-36.5t-4-44q-1-23.5 0-47.5t1-48q0-24-8.5-47t-23-40.5Q717 439 697.5 428T657 417q-27 0-48.5 17.5T587 473q0 21 9 35.5t25 14.5q17 0 26.5-4.5t9.5-9.5q0-17-12.5-23t-23.5-6q0-16 12.5-25.5T657 445q27 0 38.5 14t11.5 35q0 17-6 35t-23 28q11 5 29 1.5t34-8.5q0 22-13 36t-28 14zm-79-197l-27-14q-19 13-36.5 20.5t-36 8Q503 418 483 411t-44-22q31 47 31.5 82.5T446 544l7 28q5-18 16.5-32t27.5-21.5q16-7.5 35.5-7T573 523q-5-11-10-21.5t-5-21.5q0-26 18.5-46t44.5-31zM127 600q-15 0-27-14t-7-36q11 5 29 8.5t34-1.5q-16-10-26-28t-10-35q0-21 14.5-35t35.5-14q11 0 24.5 9.5T213 480q-16 0-26 6t-10 23q0 5 9 9.5t20 4.5q16 0 25-14.5t9-35.5q0-10-6-20.5t-15-18q-9-7.5-20-12.5t-22-5q-24 0-44.5 11t-36 28.5Q81 474 72.5 497T64 544q0 21 1 46t.5 49.5q-.5 24.5-4 46T50 720q16-5 39-7t48-2q25 0 50 1t46 1q24 0 47-8.5t40.5-23q17.5-14.5 28.5-34t11-40.5q0-13-4.5-25.5T343 559q-8-10-18-16t-21-6q-21 0-35 9t-14 26q0 11 5 19.5t16 8.5q11 0 16-9.5t5-26.5q22 6 29 19t7 24q0 22-14.5 36T283 657q-21 0-39.5-9.5T220 621q-5 17-1.5 34.5T227 684q-21 6-35.5-6.5T177 650q-11 15-34 23.5t-43 3.5q-5-20 3.5-43t23.5-34zm106-211l-27 14q26 11 44.5 31t18.5 46q0 11-4.5 21.5T255 523q21-11 40-10.5t35 8.5q16 8 27.5 21.5T374 572l15-28q-27-37-29.5-72.5T389 389q-47 31-83 28.5T233 389zm184 155l-21 56 21 43 14-43-14-56zm-14-35l14-29 7 29q17-22 16-47.5T417 410q-26 26-28 51.5t14 47.5zm297-382q15 0 28 14.5t13 35.5q-16-11-34-11.5t-29 4.5q17 5 23 23.5t6 39.5q0 22-11.5 36T657 283q-11 0-23.5-10.5T621 240q11 5 23.5 0t12.5-21q0-5-9.5-13t-26.5-8q-16 0-25 16.5t-9 32.5q0 22 21.5 39t48.5 17q21 0 40.5-11t34-28.5q14.5-17.5 23-40T763 177q0-21-1-45.5t0-48.5q1-24 4-45.5T777 0q-16 8-37.5 11.5T694 16q-24 1-48.5 0T600 15q-24 0-46.5 8.5T513 46q-18 14-29 33.5T473 120q0 27 18 48.5t39 21.5q16 0 33-9t17-25q0-16-8-26t-14-10q-16 0-21 12.5t0 23.5q-43-11-43-43 0-21 14.5-32T544 70q22 0 40 6.5T607 99q5-11 1.5-29T600 36q22 0 36 13t14 29q16-21 36.5-30t40.5 2q11 21 2 41t-29 36zM594 332l27-7q-26-11-44.5-31T558 247q0-11 5-21t10-21q-21 11-40.5 10.5T497 207q-16-8-27.5-21.5T453 156l-7 27q26 38 25 72.5T439 332q48-26 82-26 35 0 73 26zM127 127q-15-16-23.5-36T100 50q20-10 43-1.5T177 78q0-16 14.5-29T227 36q-5 16-8.5 34t1.5 29q5-16 23.5-22.5T283 70q21 0 35.5 11t14.5 32q0 17-7 27.5T297 156q0-11-5-23.5T276 120q-11 0-16 10t-5 26q0 16 14 25t35 9q22 0 39-21.5t17-48.5q0-21-11-40.5T320.5 46Q303 32 280 23.5T233 15q-21 0-46 1t-50 0q-25-1-48-4.5T50 0q8 16 11.5 37.5t4 45.5q.5 24-.5 48.5T64 177q0 24 8.5 46.5t24 40q15.5 17.5 36 28.5t44.5 11q22 0 42.5-17t20.5-39q0-16-9-32.5T206 198q-11 0-20 8t-9 13q0 16 10 21t26 0q-5 22-18.5 32.5T170 283q-21 0-35.5-14T120 233q0-21 10-39.5t26-23.5q-16-5-34-4.5T93 177q-5-21 7-35.5t27-14.5zm106 205q38-26 73-26t83 26q-32-42-29.5-76.5T389 183l-15-27q-5 16-16.5 29.5T330 207q-16 8-35 8.5T255 205q5 11 9.5 21t4.5 21q0 27-18.5 47T206 325l27 7zm163-205l21 56 14-56-14-42-21 42zm7 85q-16 26-14 50t28 55q22-31 23-55t-16-50l-7 28-14-28zm247 134l-56 14 56 22 43-22-43-14zm-92 7q-21-16-43.5-15T460 360q32 27 54.5 29t43.5-15l-21-14 21-7zm-289 0l28 7-28 14q21 17 46.5 15t51.5-29q-26-21-51.5-22T269 353zm-92-7l-42 14 42 22 56-22-56-14z"/></svg>